<svg xmlns="http://www.w3.org/2000/svg" width="819.521" height="209.024"><g><path fill="#fff" d="M252.297 23.435c-1.336-1.348-3.707-2.573-5.849-3.124l-.002-.002-1.442-4.09-6.597-6.549c-1.526-1.511-3.603-1.981-4.605-1.042l-17.131 11.339.002.002h-.002v-.002l-11.336 17.125c-.941 1.006-.474 3.081 1.043 4.61l6.545 6.599 4.116 1.449.002.002c.558 2.137 1.79 4.541 3.117 5.854l9.52 9.465 21.164.027 2.656-8.293h.001l.002-.009-.014-.018.018.018h.004l.001-.001 7.9-2.523.017-21.673-9.13-9.164z"/><polygon fill="#fff" points="20.111,103.457 799.668,103.573 810.954,81.794 8.823,81.676"/><g fill="#fff"><path d="M314.812 22.336c4.702 4.3 7.049 10.198 7.049 17.854 0 7.661-2.293 13.735-6.87 18.198-4.581 4.465-11.572 6.709-20.972 6.709h-16.543v-49.036h17.107c8.784 0 15.529 1.978 20.229 6.275zm-8.071 29.135c2.699-2.54 4.054-6.235 4.054-11.082 0-4.834-1.354-8.631-4.054-11.242-2.701-2.61-6.848-3.98-12.439-3.98h-6.316v30.125h7.16c5.026 0 8.894-1.287 11.595-3.821zM360.852 65.098h-9.8v-4.689c-2.803 3.43-6.069 5.146-10.082 5.146-4.021 0-7.379-1.163-10.104-3.491-2.725-2.325-4.078-5.425-4.078-9.31 0-3.873 1.41-6.718 4.231-8.642 2.817-1.93 6.677-2.831 11.56-2.831h7.769v-.33c0-4.041-2.073-6.061-6.341-6.061-1.838 0-3.744.367-5.787 1.093-2.047.731-3.762 1.631-5.168 2.715l-4.714-6.84c4.978-3.618 10.67-5.429 17.061-5.429 4.603 0 8.27 1.152 11.185 3.458 2.905 2.299 4.269 5.938 4.269 10.923v24.288zm-10.504-14.557v-1.554h-6.568c-4.228 0-6.339 1.172-6.339 3.808 0 1.36.5 2.336 1.51 3.066 1.014.728 2.455 1.057 4.337 1.057 1.88 0 3.509-.593 4.942-1.744 1.432-1.153 2.118-2.708 2.118-4.633zM388.728 36.377c-3.15 0-5.644 1.114-7.195 3.344-1.549 2.232-2.468 5.182-2.468 8.844v16.533h-10.507v-37.828h10.507v4.803c1.398-1.555 3.312-2.869 5.354-3.953 2.047-1.078 4.453-1.644 6.554-1.689v9.947h-2.245zM407.787 34.975v16.691c0 1.46.427 2.598 1.182 3.416.75.824 1.667 1.238 2.704 1.238 1.974 0 3.657-.893 5.016-2.68l3.957 7.401c-3.288 3.008-6.753 4.513-10.394 4.513-3.642 0-6.708-1.197-9.218-3.598-2.518-2.395-3.76-5.659-3.76-9.797v-36.1h10.513v10.507h11.192l-5.776 8.407h-5.416z"/></g><g fill="#fff"><path d="M462.043 65.119v-44.482c3.688 0 5.164-1.99 5.164-4.646h3.91v49.128h-9.074zM486.093 65.119v-8.336h8.559v8.336h-8.559zM528.146 67.11c-16.897 0-26.635-12.688-26.635-25.597v-1.622c0-12.909 9.737-25.597 26.635-25.597 16.822 0 26.561 12.688 26.561 25.597v1.622c-.001 12.909-9.739 25.597-26.561 25.597zm17.706-26.998c0-10.105-6.271-18.072-17.706-18.072s-17.708 7.967-17.708 18.072v1.181c0 10.105 6.272 18.071 17.708 18.071s17.706-7.966 17.706-18.071v-1.181z"/></g><g fill="#fff"><path d="M117.019 127.646v15.362h15.602v16.565h-15.602v32.043h-21.65v-80.536h44.745v16.566h-23.095zM145.44 191.617v-80.537h21.645v62.283h23.099v18.254h-44.744zM195.629 191.617v-80.537h21.651v80.537h-21.651zM267.708 191.617l-2.416-7.855c-3.025 6.286-9.555 9.921-16.203 9.921-14.754 0-23.95-10.406-23.95-22.259v-40.149c0-10.884 11.01-22.133 27.453-22.133 16.327 0 26.727 11.249 26.727 22.133v10.159h-20.919v-9.916c0-2.658-1.813-4.592-5.443-4.592-3.629 0-5.565 1.934-5.565 4.592v39.426c0 2.665 2.299 4.837 5.806 4.837 3.748 0 5.808-2.172 5.808-4.837v-7.017h-6.048v-13.056h26.729v40.746h-11.979zM322.136 191.617v-29.503h-12.818v29.503h-21.646v-80.537h21.646v32.649h12.818v-32.649h21.648v80.537h-21.648zM385.992 128.975v62.642h-21.645v-62.642h-15.117v-17.895h52.001v17.896h-15.239zM472.792 191.617c-3.387 0-5.08-6.646-5.08-12.447v-13.303c0-2.177-1.567-5.203-4.592-5.203h-4.958v30.953h-21.653v-80.537h30.72c10.523 0 20.321 7.255 20.321 18.383v11.852c0 4.11-2.906 9.066-8.466 11.371 5.56 2.293 8.829 7.251 8.829 11.487v14.023c0 5.08 1.33 9.191 2.78 13.062v.358h-17.901zm-5.685-60.22c0-2.902-1.211-3.99-3.623-3.99h-5.322v18.625h5.322c2.412 0 3.623-1.09 3.623-3.994v-10.641zM496.018 191.617v-80.537h46.075v17.532h-24.424v14.149h15.84v15.235h-15.84v15.001h24.424v18.619h-46.075zM580.794 191.617l-1.448-11.244h-12.821l-1.816 11.244h-19.709l16.328-80.537h25.151l15.965 80.537h-21.65zm-7.132-53.326l-4.599 27.211h8.227l-3.628-27.211zM634.136 191.617h-27.211v-80.537h27.211c16.205 0 26.362 10.762 26.362 24.669v33.139c0 13.908-10.157 22.729-26.362 22.729zm4.713-56.353c0-4.471-1.934-7.011-6.289-7.011h-3.994v46.196h3.994c4.355 0 6.289-2.538 6.289-7.013v-32.172zM704.646 157.638v33.979h-21.645v-33.979l-18.873-46.559h22.256l8.828 26.851 7.859-26.851h21.402l-19.827 46.559z"/></g><polygon fill="#4CC1BB" points="795.755,111.124 732.213,111.114 732.213,132.896 784.468,132.902"/><polygon fill="#4CC1BB" points="780.554,140.455 732.213,140.448 732.213,162.231 769.266,162.237"/><polygon fill="#4CC1BB" points="765.352,169.791 732.213,169.785 732.213,191.565 754.065,191.569"/><polygon fill="#4CC1BB" points="24.094,111.124 87.636,111.114 87.636,132.896 35.381,132.902"/><polygon fill="#4CC1BB" points="39.295,140.455 87.636,140.448 87.636,162.231 50.583,162.237"/><polygon fill="#4CC1BB" points="54.497,169.791 87.636,169.785 87.636,191.565 65.783,191.569"/><polygon fill="#fff" points="458.418,15.991 452.184,25.065 471.117,25.065 471.117,15.991"/><path fill="#45BFAE" d="M220.353 23.649l-3.682-3.681.016 26.608.045 1.244c.019.585.127 1.246.308 1.93l29.168 10.285 7.292-3.23.002-.009-33.149-33.147z"/><path fill="#6CC8BF" d="M217.039 49.75l.002.002-.008-.038.006.036zm36.462 7.046-.002.009l-7.292 3.23-29.166-10.283c.558 2.137 1.79 4.541 3.117 5.854l9.52 9.465 21.164.027 2.659-8.302-.002.009z"/><path fill="#0A82C5" d="M216.671 19.966l-11.336 17.125c-.941 1.006-.474 3.081 1.043 4.61l6.545 6.599 4.116 1.449c-.181-.684-.289-1.345-.308-1.93l-.045-1.244-.016-26.608v-.001z"/><path fill="#0075C9" d="M246.446 20.309c-.685-.174-1.34-.282-1.936-.301l-1.313-.045-26.526.004 36.834 36.83h.004l3.234-7.298-10.297-29.19z"/><path fill="#1DA3DD" d="M246.413 20.302l.035.009-.002-.002-.033-.007zm5.884 3.133c-1.336-1.348-3.707-2.573-5.849-3.124l10.295 29.187-3.234 7.298h-.004l7.905-2.524.017-21.673-9.13-9.164z"/><path fill="#45BFAE" d="M245.004 16.219l-6.597-6.549c-1.526-1.511-3.603-1.981-4.605-1.042l-17.131 11.339 26.526-.004 1.313.045c.596.019 1.251.127 1.936.301l-1.442-4.09zm-28.333 3.747"/></g></svg>