<svg xmlns="http://www.w3.org/2000/svg" width="288.5" height="122"><g opacity=".7"><defs><filter filterUnits="userSpaceOnUse" x="95.96" y="104.841" width="0" height="0"><feFlood result="back" flood-color="#fff" flood-opacity="1"/><feBlend in="SourceGraphic" in2="back"/></filter></defs><g mask="url(#SVGID_1_)"><linearGradient id="a" gradientUnits="userSpaceOnUse" x1="95.96" y1="104.841" x2="95.96" y2="104.841"><stop offset="0" stop-opacity="0"/><stop offset=".545" stop-color="#008CBA"/><stop offset="1" stop-opacity="0"/></linearGradient><path fill="url(#a)" d="M95.96 104.841"/></g></g><polygon stroke="#fff" stroke-width="4" points="283.184,25.526 272.257,4.441 17.209,4.441 5.967,26.135 5.967,93.582 17.228,115.313 272.238,115.313 283.184,94.191" fill="none" opacity=".8"/><g fill="#fff"><path d="M92.117 77.877c-10.265 0-17.188-6.354-17.188-15.722v-7.25h13.929v8.064c0 1.792 1.548 2.851 3.259 2.851 1.71 0 3.258-1.059 3.258-2.851v-40.728h14.581v39.914c0 9.369-7.494 15.722-17.839 15.722zM133.253 77.877c-10.346 0-18.246-6.354-18.246-15.722v-25.578c0-9.367 7.9-15.64 18.246-15.64 10.264 0 18.165 6.272 18.165 15.64v25.578c0 9.369-7.901 15.722-18.165 15.722zm3.259-42.114c0-1.792-1.548-2.851-3.258-2.851-1.711 0-3.339 1.059-3.339 2.851v27.207c0 1.792 1.627 2.851 3.339 2.851 1.711 0 3.258-1.059 3.258-2.851v-27.207zM156.714 76.491v-54.25h14.581v54.25h-14.581zM202.248 76.491l-8.471-17.676-3.747-7.82v25.496h-13.034v-54.25h12.626l8.146 18.164 3.502 7.82v-25.984h12.953v54.25h-11.975z"/></g><rect x="218.755" y="22.241" fill="#fff" width="48.552" height="2.656"/><rect x="218.755" y="39.419" fill="#fff" width="48.552" height="2.657"/><rect x="218.755" y="56.598" fill="#fff" width="48.552" height="2.658"/><rect x="218.755" y="73.776" fill="#fff" width="48.552" height="2.656"/><rect x="21.844" y="22.241" fill="#fff" width="48.552" height="2.657"/><rect x="21.844" y="39.419" fill="#fff" width="48.552" height="2.657"/><rect x="21.844" y="56.598" fill="#fff" width="48.552" height="2.658"/><rect x="21.844" y="73.776" fill="#fff" width="48.552" height="2.657"/></svg>