<?xml version="1.0" encoding="utf-8"?><svg width="48" height="24" viewBox="0 0 48 24" xmlns="http://www.w3.org/2000/svg" xmlns:xlink="http://www.w3.org/1999/xlink"><view id="icon--arrow" viewBox="0 0 24 24"/><svg viewBox="0 0 24 24" width="24" height="24"><path d="M24 12c0-6.6-5.4-12-12-12S0 5.4 0 12s5.4 12 12 12 12-5.4 12-12zM.8 12C.8 5.8 5.8.8 12 .8s11.2 5 11.2 11.2-5 11.2-11.2 11.2S.8 18.2.8 12z"/><path d="M16.4 10.8c.2-.2.2-.4 0-.6-.1-.2-.4-.2-.5 0l-3.7 3.7-3.7-3.7c-.2-.2-.4-.2-.6 0-.1.1-.1.2-.1.3s0 .2.1.3l4 4c.2.2.4.2.6 0l3.9-4z"/></svg><view id="icon--pin" viewBox="24 0 24 24"/><svg viewBox="0 0 24 24" width="24" height="24" x="24"><path d="M12 1C7.5 1 3.9 4.6 3.9 9.1c0 1.2.2 2.3.7 3.3 2 4.4 5.9 9.1 7 10.4.1.1.2.2.3.2.1 0 .3-.1.3-.2 1.1-1.3 5-6 7-10.4.5-1 .7-2.1.7-3.3C20.1 4.6 16.5 1 12 1zm0 12.3c-2.3 0-4.2-1.9-4.2-4.2 0-2.3 1.9-4.2 4.2-4.2s4.2 1.9 4.2 4.2c0 2.3-1.9 4.2-4.2 4.2z"/></svg></svg>