<svg xmlns="http://www.w3.org/2000/svg" width="430.099" height="88.717"><path fill="#C2C1C1" d="M89.193 64.432v-35.736h4.622l21.872 28.789v-28.789h4.371v35.735h-4.622l-21.869-29.04v29.04h-4.374z"/><path fill="#C2C1C1" d="M155.548 63.032c-2.883 1.105-5.992 1.65-9.324 1.65-12.942 0-19.415-6.206-19.415-18.617 0-11.75 6.244-17.621 18.74-17.621 3.583 0 6.918.499 9.999 1.5v3.997c-3.081-1.167-6.25-1.75-9.5-1.75-9.745 0-14.615 4.624-14.615 13.874 0 9.911 4.794 14.871 14.395 14.871 1.528 0 3.231-.2 5.095-.602v-12.149h4.625v14.847z"/><path fill="#C2C1C1" d="M162.921 50.64v-21.944h4.619v21.944c0 6.861 3.42 10.297 10.247 10.297 6.836 0 10.247-3.435 10.247-10.297v-21.944h4.624v21.944c0 9.365-4.954 14.043-14.872 14.043-9.908 0-14.865-4.678-14.865-14.043z"/><path fill="#C2C1C1" d="M205.528 28.696v31.989h18.699v3.746h-23.317v-35.735h4.618z"/><path fill="#C2C1C1" d="M230.898 64.432h-4.797l17.768-40.451 17.77 40.451h-5.123l-4.622-11.244h-11.819l1.274-3.746h8.995l-6.674-16.196-12.772 31.186z"/><path fill="#C2C1C1" d="M266.513 64.432v-35.736h15.248c6.796 0 10.196 2.854 10.196 8.571 0 4.649-3.325 8.089-9.971 10.319l12.271 16.845h-6.102l-11.367-16.07v-3.021c6.83-1.085 10.24-3.708 10.24-7.871 0-3.301-1.898-4.951-5.694-4.951h-10.197v31.914h-4.624z"/><path fill="#F0EFEF" d="M90.363 63.265v-35.737h4.622l21.868 28.787v-28.787h4.373v35.736h-4.621l-21.872-29.04v29.041h-4.37z"/><path fill="#F0EFEF" d="M156.718 61.865c-2.883 1.099-5.99 1.65-9.325 1.65-12.945 0-19.418-6.206-19.418-18.621 0-11.743 6.247-17.62 18.744-17.62 3.58 0 6.918.499 9.999 1.503v3.997c-3.081-1.167-6.253-1.751-9.5-1.751-9.742 0-14.618 4.625-14.618 13.871 0 9.911 4.8 14.875 14.398 14.875 1.528 0 3.229-.2 5.096-.603v-12.148h4.624v14.847z"/><path fill="#F0EFEF" d="M164.088 49.47v-21.948h4.622v21.948c0 6.861 3.416 10.3 10.247 10.3 6.834 0 10.25-3.438 10.25-10.3v-21.948h4.622v21.948c0 9.365-4.954 14.046-14.872 14.046-9.908 0-14.869-4.681-14.869-14.046z"/><path fill="#F0EFEF" d="M206.699 27.522v31.993h18.697v3.749h-23.316v-35.742h4.619z"/><path fill="#F0EFEF" d="M232.065 63.265h-4.794l17.768-40.455 17.77 40.455h-5.126l-4.622-11.248h-11.818l1.273-3.749h8.995l-6.67-16.196-12.776 31.193z"/><path fill="#F0EFEF" d="M267.683 63.265v-35.737h15.245c6.799 0 10.197 2.856 10.197 8.569 0 4.646-3.323 8.091-9.968 10.318l12.271 16.849h-6.105l-11.364-16.07v-3.024c6.83-1.086 10.244-3.708 10.244-7.875 0-3.295-1.901-4.944-5.701-4.944h-10.193v31.914h-4.626z"/><path fill="#A4A4A4" d="M41.738 0l-41.738 14.69 6.595 54.686 35.19 19.34 35.369-19.604 6.595-54.681-42.011-14.431z"/><path fill="#C42028" d="M79.582 17.589l-37.938-12.936v79.444l31.795-17.595 6.143-48.913z"/><path fill="#ED1B31" d="M4.684 17.824l5.651 48.907 31.309 17.366v-79.447l-36.96 13.174z"/><path fill="#F0EFEF" d="M50.438 44.167l-8.726-18.22-7.684 18.22h16.41zm3.323 7.658h-23.13l-5.17 12.945-9.623.176 25.806-57.41 26.707 57.41h-8.92l-5.67-13.121z"/><path fill="#A4A4A4" d="M41.644 7.536l.066 18.411 8.719 18.235h-8.766l-.019 7.634 12.117.009 5.67 13.125 9.208.172-26.995-57.586z"/><g><path fill="#C1C0C0" d="M298.383 64.467v-35.809h13.017c11.853 0 17.78 5.642 17.78 16.93 0 12.588-5.927 18.879-17.78 18.879h-13.017zm12.704-3.756c8.766 0 13.147-5.039 13.147-15.123 0-8.785-4.381-13.171-13.147-13.171h-8.39v28.294h8.39z" enable-background="new"/><path fill="#A31D27" d="M299.71 63.287v-35.809h13.02c11.854 0 17.777 5.642 17.777 16.927 0 12.591-5.924 18.882-17.777 18.882h-13.02zm12.704-3.756c8.763 0 13.146-5.042 13.146-15.126 0-8.782-4.384-13.171-13.146-13.171h-8.39v28.297h8.39z" enable-background="new"/><g enable-background="new"><path fill="#C2C1C1" d="M430.099 28.658v3.759h-11.264v32.047h-4.634v-32.047h-11.271v-3.759h27.169z"/><path fill="#C2C1C1" d="M373.024 64.464v-35.806h15.271c6.814 0 10.216 2.864 10.216 8.591 0 4.655-3.326 8.101-9.987 10.341l12.293 16.874h-6.108l-11.395-16.099v-3.028c6.846-1.085 10.268-3.715 10.268-7.888 0-3.307-1.904-4.96-5.707-4.96h-10.219v31.975h-4.632z"/><path fill="#A31D27" d="M373.811 63.284v-35.806h15.277c6.808 0 10.219 2.861 10.219 8.587 0 4.659-3.336 8.104-9.996 10.345l12.296 16.874h-6.109l-11.396-16.103v-3.027c6.847-1.082 10.27-3.712 10.27-7.888 0-3.304-1.908-4.957-5.71-4.957h-10.216v31.975h-4.635z"/><path fill="#A31D27" d="M430.971 27.478v3.756h-11.27v32.05h-4.631v-32.05h-11.27v-3.756h27.171z"/></g></g><path fill="#C2C1C1" d="M335.819 64.332h-4.797l17.771-40.452 17.771 40.452h-5.124l-4.624-11.245h-11.819l1.273-3.746h8.999l-6.674-16.196-12.776 31.187z"/><path fill="#A31D27" d="M336.99 63.284h-4.798l17.772-40.459 12.183 28.106 5.585 12.353h-5.124l-4.621-11.248h-11.822l1.274-3.75h8.998l-6.671-16.195-12.776 31.193z"/></svg>