<svg xmlns="http://www.w3.org/2000/svg" xmlns:xlink="http://www.w3.org/1999/xlink" width="430.099" height="88.717"><g opacity=".7"><defs><filter id="a" filterUnits="userSpaceOnUse" x="123.294" y="60.607" width="0" height="0"><feFlood result="back" flood-color="#fff" flood-opacity="1"/><feBlend in="SourceGraphic" in2="back"/></filter></defs><mask maskUnits="userSpaceOnUse" x="123.294" y="60.607" width="0" height="0" id="b"><image overflow="visible" width="17" height="17" xlink:href="2E159F495B31838.jpg" transform="matrix(.24 0 0 .24 121.294 58.607)" filter="url(#a)"/></mask><g mask="url(#b)"><linearGradient id="c" gradientUnits="userSpaceOnUse" x1="123.294" y1="60.607" x2="123.294" y2="60.607"><stop offset="0" stop-opacity="0"/><stop offset=".545" stop-color="#008CBA"/><stop offset="1" stop-opacity="0"/></linearGradient><path fill="url(#c)" d="M123.294 60.607"/></g></g><path fill="#fff" d="M89.193 64.432v-35.736h4.622l21.872 28.789v-28.789h4.371v35.735h-4.622l-21.869-29.04v29.04h-4.374z"/><path fill="#fff" d="M155.548 63.032c-2.883 1.104-5.992 1.65-9.324 1.65-12.942 0-19.415-6.206-19.415-18.617 0-11.75 6.244-17.621 18.74-17.621 3.583 0 6.918.499 9.999 1.5v3.997c-3.081-1.167-6.25-1.75-9.5-1.75-9.745 0-14.615 4.624-14.615 13.874 0 9.911 4.794 14.871 14.395 14.871 1.528 0 3.231-.2 5.095-.603v-12.147h4.625v14.846z"/><path fill="#fff" d="M162.921 50.64v-21.944h4.619v21.944c0 6.861 3.42 10.297 10.247 10.297 6.836 0 10.247-3.436 10.247-10.297v-21.944h4.624v21.944c0 9.365-4.954 14.043-14.872 14.043-9.908 0-14.865-4.678-14.865-14.043z"/><path fill="#fff" d="M205.528 28.696v31.989h18.699v3.746h-23.317v-35.735h4.618z"/><path fill="#fff" d="M230.898 64.432h-4.797l17.768-40.451 17.771 40.451h-5.123l-4.622-11.244h-11.819l1.274-3.746h8.995l-6.674-16.196-12.773 31.186z"/><path fill="#fff" d="M266.513 64.432v-35.736h15.248c6.796 0 10.196 2.854 10.196 8.571 0 4.649-3.325 8.089-9.971 10.319l12.271 16.845h-6.102l-11.367-16.07v-3.021c6.83-1.085 10.24-3.708 10.24-7.871 0-3.301-1.898-4.951-5.694-4.951h-10.197v31.914h-4.624z"/><path fill="#fff" d="M41.738 0l-41.738 14.69 6.595 54.686 35.19 19.34 35.369-19.604 6.595-54.681-42.011-14.431zm31.701 66.503l-31.795 17.595-31.309-17.367-5.651-48.907 36.96-13.174v.003l37.939 12.935-6.144 48.915z"/><path fill="#fff" d="M50.438 44.167l-8.726-18.22-7.684 18.22h16.41zm3.323 7.658h-23.13l-5.17 12.945-9.623.176 25.806-57.41 26.707 57.41h-8.92l-5.67-13.121z"/><g><path fill="#00A4E4" d="M298.383 64.467v-35.809h13.017c11.853 0 17.78 5.642 17.78 16.93 0 12.588-5.927 18.879-17.78 18.879h-13.017zm12.704-3.756c8.766 0 13.147-5.039 13.147-15.123 0-8.785-4.381-13.171-13.147-13.171h-8.39v28.294h8.39z" enable-background="new"/><g enable-background="new" fill="#00A4E4"><path d="M430.099 28.658v3.759h-11.264v32.047h-4.634v-32.047h-11.271v-3.759h27.169zM373.024 64.464v-35.806h15.271c6.814 0 10.216 2.864 10.216 8.591 0 4.655-3.326 8.101-9.987 10.341l12.293 16.874h-6.108l-11.396-16.099v-3.028c6.846-1.085 10.269-3.715 10.269-7.888 0-3.307-1.904-4.96-5.707-4.96h-10.219v31.975h-4.632z"/></g></g><path fill="#00A4E4" d="M335.819 64.332h-4.797l17.772-40.452 17.771 40.452h-5.124l-4.624-11.245h-11.819l1.273-3.746h8.999l-6.674-16.196-12.777 31.187z"/></svg>