<svg xmlns="http://www.w3.org/2000/svg" width="61.428" height="58.967"><path fill="#fff" d="M47.448 15.292c-1.336-1.348-3.707-2.573-5.849-3.124l-.002-.002-1.442-4.09-6.597-6.549c-1.526-1.511-3.603-1.981-4.605-1.042l-17.131 11.338.002.002h-.002v-.002l-11.336 17.125c-.941 1.006-.474 3.081 1.043 4.61l6.545 6.599 4.116 1.449.002.002c.558 2.137 1.79 4.541 3.117 5.854l9.52 9.465 21.164.027 2.656-8.293h.001l.002-.009-.014-.018.018.018h.004l.001-.001 7.9-2.523.017-21.673-9.13-9.163z"/><path fill="#45BFAE" d="M15.504 15.506l-3.682-3.681.016 26.608.045 1.244c.019.585.127 1.246.308 1.93l29.168 10.285 7.292-3.23.002-.009-33.149-33.147z"/><path fill="#6CC8BF" d="M12.19 41.607l.002.002-.008-.038.006.036zm36.462 7.046l-.002.009-7.292 3.23-29.166-10.283c.558 2.137 1.79 4.541 3.117 5.854l9.52 9.465 21.164.027 2.659-8.302-.002.009.002-.009z"/><path fill="#0A82C5" d="M11.822 11.823l-11.336 17.125c-.941 1.006-.474 3.081 1.043 4.61l6.545 6.599 4.116 1.449c-.181-.684-.289-1.345-.308-1.93l-.045-1.244-.015-26.609z"/><path fill="#0075C9" d="M41.598 12.166c-.685-.174-1.34-.282-1.936-.301l-1.313-.045-26.526.004 36.834 36.83h.004l3.234-7.298-10.297-29.19z"/><path fill="#1DA3DD" d="M41.564 12.159l.035.009-.002-.002-.033-.007zm5.884 3.133c-1.336-1.348-3.707-2.573-5.849-3.124l10.295 29.187-3.234 7.298h-.004l7.905-2.524.017-21.673-9.13-9.164z"/><path fill="#45BFAE" d="M40.155 8.076l-6.597-6.549c-1.526-1.511-3.603-1.981-4.605-1.042l-17.131 11.338 26.526-.004 1.313.045c.596.019 1.251.127 1.936.301l-1.442-4.089z"/></svg>