<svg xmlns="http://www.w3.org/2000/svg" width="247.333" height="102"><g fill="#fff"><path d="M84.394 28.91v7.625h7.746v8.227h-7.746v15.911h-10.747v-39.989h22.216v8.227h-11.469zM98.507 60.673v-39.989h10.748v39.989h-10.748zM132.071 60.673l-6.244-13.029-2.762-5.765v18.794h-9.607v-39.989h9.307l6.004 13.39 2.582 5.765v-19.155h9.547v39.989h-8.827zM158.613 60.673h-13.51v-39.989h13.51c8.046 0 13.09 5.345 13.09 12.249v16.452c0 6.905-5.044 11.288-13.09 11.288zm2.342-27.981c0-2.222-.961-3.482-3.122-3.482h-1.981v22.937h1.981c2.161 0 3.122-1.261 3.122-3.482v-15.973z"/></g><polygon stroke="#fff" stroke-width="4" points="244.004,24.452 233.076,3.367 13.906,3.367 2.664,25.06 2.664,76.908 13.925,98.638 233.056,98.638 244.004,77.516" fill="none" opacity=".8"/><rect x="178.622" y="22.745" fill="#fff" width="48.553" height="2.657"/><rect x="178.622" y="39.923" fill="#fff" width="48.553" height="2.658"/><rect x="178.622" y="57.102" fill="#fff" width="48.553" height="2.656"/><rect x="18.541" y="22.745" fill="#fff" width="48.553" height="2.657"/><rect x="18.541" y="39.923" fill="#fff" width="48.553" height="2.658"/><rect x="18.541" y="57.102" fill="#fff" width="48.553" height="2.657"/></svg>