<svg xmlns="http://www.w3.org/2000/svg" width="790.75" height="277.837"><path fill="#fff" d="M308.108 14.188c-1.236-1.251-3.437-2.386-5.426-2.9h-.005l-1.339-3.797-6.121-6.076c-1.411-1.402-3.339-1.837-4.275-.966l-15.899 10.521.012.004h-.012v-.004l-10.514 15.89c-.871.933-.437 2.862.968 4.281l6.076 6.124 3.82 1.346c.512 1.983 1.659 4.213 2.892 5.432l8.835 8.781 19.644.026 2.46-7.696.005-.004-.014-.018.018.018v-.005l7.331-2.342.018-20.109-8.474-8.506z"/><g fill="#fff"><path d="M366.128 13.17c4.36 3.989 6.536 9.462 6.536 16.567 0 7.113-2.123 12.744-6.38 16.887-4.249 4.146-10.736 6.226-19.458 6.226h-15.344v-45.503h15.87c8.153 0 14.412 1.832 18.776 5.823zm-7.495 27.033c2.504-2.353 3.765-5.782 3.765-10.283 0-4.485-1.261-8.003-3.765-10.429-2.504-2.424-6.352-3.696-11.54-3.696h-5.863v27.958h6.646c4.662 0 8.253-1.191 10.757-3.55zM408.847 52.851h-9.095v-4.353c-2.598 3.183-5.631 4.778-9.355 4.778-3.731 0-6.843-1.078-9.37-3.24-2.533-2.157-3.79-5.032-3.79-8.637 0-3.596 1.309-6.237 3.926-8.02 2.619-1.792 6.198-2.63 10.732-2.63h7.199v-.304c0-3.748-1.912-5.628-5.879-5.628-1.708 0-3.473.345-5.366 1.017-1.901.679-3.494 1.516-4.803 2.522l-4.373-6.35c4.624-3.358 9.903-5.034 15.83-5.034 4.276 0 7.679 1.066 10.385 3.203 2.701 2.136 3.959 5.514 3.959 10.137v22.539zm-9.752-13.508v-1.444h-6.089c-3.923 0-5.882 1.088-5.882 3.534 0 1.263.469 2.171 1.399 2.85.943.67 2.281.977 4.026.977 1.745 0 3.254-.551 4.584-1.616 1.337-1.074 1.962-2.513 1.962-4.301zM434.721 26.199c-2.928 0-5.236 1.034-6.68 3.1-1.438 2.074-2.292 4.811-2.292 8.209v15.343h-9.749v-35.1h9.749v4.454c1.301-1.444 3.076-2.663 4.968-3.672 1.903-.998 4.138-1.524 6.087-1.562v9.228h-2.083zM452.408 24.899v15.488c0 1.357.396 2.408 1.1 3.171.693.764 1.543 1.145 2.504 1.145 1.834 0 3.398-.827 4.654-2.481l3.679 6.867c-3.056 2.788-6.271 4.188-9.651 4.188-3.377 0-6.226-1.111-8.55-3.341-2.342-2.219-3.49-5.251-3.49-9.091v-33.499h9.755v9.75h10.388l-5.367 7.804h-5.022z"/></g><path fill="#00C4B3" d="M278.468 14.387l-3.424-3.413.02 24.689.039 1.155c.021.542.118 1.157.291 1.793l27.066 9.544 6.764-3.001.005-.004-30.761-30.763z"/><path fill="#22D3C5" d="M275.393 38.612l-.013-.035.013.035zm33.836 6.539-.006.003l-6.764 3.001-27.066-9.544c.512 1.983 1.659 4.213 2.892 5.432l8.835 8.781 19.644.026 2.465-7.7-.006.004z"/><path fill="#0075C9" d="M275.043 10.97l-10.514 15.89c-.871.933-.437 2.862.968 4.281l6.076 6.124 3.82 1.346c-.173-.636-.27-1.251-.291-1.793l-.039-1.155-.02-24.689v-.004z"/><path fill="#0075C9" d="M302.676 11.288c-.63-.164-1.238-.261-1.793-.277l-1.214-.045-24.625.003 34.189 34.181 3.004-6.774-9.561-27.088z"/><path fill="#1DA3DD" d="M302.645 11.281l.036.007h-.005l-.031-.007zm5.463 2.907c-1.236-1.251-3.437-2.386-5.426-2.9l9.555 27.088-3.004 6.774 7.331-2.347.018-20.109-8.474-8.506z"/><path fill="#00C4B3" d="M301.337 7.491l-6.121-6.076c-1.411-1.402-3.339-1.837-4.275-.966l-15.898 10.521 24.625-.003 1.214.045c.555.016 1.163.112 1.793.277l-1.338-3.798zm-26.294 3.479"/><polygon fill="#fff" points="10.25,92.754 780.5,92.865 790.75,73.088 0,72.977"/><g fill="#fff"><path d="M98.254 114.72v13.955h14.165v15.045h-14.165v29.098h-19.658v-73.138h40.634v15.04h-20.976zM124.066 172.818v-73.138h19.653v56.558h20.977v16.581h-40.63zM169.644 172.818v-73.138h19.656v73.138h-19.656zM235.101 172.818l-2.194-7.137c-2.747 5.709-8.677 9.009-14.714 9.009-13.401 0-21.752-9.448-21.752-20.214v-36.46c0-9.879 9.998-20.097 24.933-20.097 14.822 0 24.268 10.218 24.268 20.097v9.224h-18.994v-9.002c0-2.413-1.651-4.17-4.949-4.17-3.296 0-5.052 1.757-5.052 4.17v35.803c0 2.418 2.084 4.391 5.274 4.391 3.397 0 5.272-1.973 5.272-4.391v-6.375h-5.495v-11.854h24.274v37.005h-10.871zM284.523 172.818v-26.794h-11.639v26.794h-19.658v-73.138h19.658v29.649h11.639v-29.649h19.659v73.138h-19.659zM342.514 115.928v56.89h-19.656v-56.89h-13.728v-16.248h47.223v16.249h-13.839z"/></g><polygon fill="#22D3C5" points="776.945,99.719 719.236,99.71 719.236,119.488 766.695,119.493"/><polygon fill="#22D3C5" points="763.142,126.353 719.236,126.348 719.236,146.13 752.891,146.136"/><polygon fill="#22D3C5" points="749.336,152.997 719.236,152.991 719.236,172.773 739.085,172.773"/><polygon fill="#22D3C5" points="13.866,99.719 71.575,99.71 71.575,119.488 24.118,119.493"/><polygon fill="#22D3C5" points="27.67,126.353 71.575,126.348 71.575,146.13 37.92,146.136"/><polygon fill="#22D3C5" points="41.476,152.997 71.575,152.991 71.575,172.773 51.728,172.773"/><path fill="#fff" d="M272.185 254.768v-32.398h4.186l19.827 26.098v-26.098h3.963v32.398h-4.189l-19.827-26.326v26.326h-3.96z"/><path fill="#fff" d="M332.33 253.498c-2.614.995-5.427 1.494-8.454 1.494-11.73 0-17.597-5.623-17.597-16.88 0-10.641 5.662-15.969 16.987-15.969 3.249 0 6.272.454 9.064 1.361v3.625c-2.792-1.059-5.667-1.588-8.608-1.588-8.834 0-13.255 4.193-13.255 12.57 0 8.987 4.353 13.484 13.056 13.484 1.383 0 2.92-.183 4.616-.547v-11.009h4.191v13.459z"/><path fill="#fff" d="M339.008 242.262v-19.894h4.192v19.894c0 6.217 3.094 9.334 9.284 9.334 6.201 0 9.292-3.117 9.292-9.334v-19.894h4.191v19.894c0 8.485-4.492 12.73-13.483 12.73-8.981 0-13.476-4.244-13.476-12.73z"/><path fill="#fff" d="M377.635 222.368v29.002h16.946v3.395h-21.133v-32.397h4.187z"/><path fill="#fff" d="M400.626 254.768h-4.344l16.104-36.673 16.108 36.673h-4.647l-4.188-10.197h-10.714l1.154-3.398h8.152l-6.046-14.682-11.579 28.277z"/><path fill="#fff" d="M432.908 254.768v-32.398h13.822c6.158 0 9.246 2.591 9.246 7.77 0 4.213-3.019 7.336-9.043 9.355l11.129 15.273h-5.537l-10.298-14.566v-2.741c6.189-.982 9.283-3.363 9.283-7.139 0-2.991-1.726-4.482-5.165-4.482h-9.241v28.929h-4.196z"/><path fill="#fff" d="M228.112 197.423l-37.838 13.317 5.977 49.568 31.898 17.528 32.064-17.768 5.973-49.569-38.074-13.076zm28.734 60.277l-28.823 15.947-28.382-15.74-5.123-44.328 33.505-11.942 34.386 11.73-5.563 44.333z"/><path fill="#fff" d="M235.991 237.451l-7.905-16.514-6.966 16.514h14.871zm3.018 6.944h-20.972l-4.68 11.737-8.729.161 23.395-52.042 24.207 52.042h-8.081l-5.14-11.898z"/><path fill="#fff" d="M228.023 204.252l.063 16.686 7.901 16.534h-7.944l-.02 6.915 10.986.009 5.14 11.898 8.34.157-24.466-52.199z"/><g><path fill="#1DA3DD" d="M461.939 254.787v-32.46h11.81c10.738 0 16.108 5.116 16.108 15.344 0 11.411-5.37 17.116-16.108 17.116h-11.81zm11.518-3.405c7.946 0 11.916-4.57 11.916-13.711 0-7.961-3.97-11.939-11.916-11.939h-7.607v25.65h7.607z" enable-background="new"/><g enable-background="new" fill="#1DA3DD"><path d="M529.106 254.786v-32.459h13.855c6.161 0 9.258 2.598 9.258 7.782 0 4.225-3.025 7.352-9.059 9.377l11.143 15.3h-5.534l-10.332-14.596v-2.746c6.205-.984 9.31-3.367 9.31-7.145 0-3-1.73-4.496-5.176-4.496h-9.259v28.983h-4.206zM580.92 222.327v3.404h-10.219v29.055h-4.197v-29.055h-10.213v-3.404h24.629z"/></g></g><path fill="#1DA3DD" d="M495.731 254.784h-4.342l16.104-36.673 11.041 25.476 5.066 11.197h-4.645l-4.19-10.197h-10.72l1.158-3.395h8.155l-6.047-14.682-11.58 28.274z"/><g fill="#fff"><path d="M407.591 174.694c-15.75 0-25.246-7.796-25.246-20.862v-3.953h18.065v3.513c0 3.514 2.316 6.039 6.254 6.039 3.936 0 5.79-2.087 5.79-5.93 0-4.501-5.676-7.685-12.044-11.528-8.221-4.831-17.485-10.76-17.485-21.521 0-11.42 8.568-22.509 25.243-22.509 13.665 0 23.045 9.334 23.045 20.752v3.074h-18.063v-3.404c0-3.184-2.202-5.159-4.981-5.159-2.662 0-5.441 1.755-5.441 5.27 0 4.501 5.675 7.576 12.043 11.419 8.222 4.941 17.602 10.979 17.602 22.179-.001 11.531-8.801 22.62-24.782 22.62zM463.869 174.694c-15.517 0-26.863-9.003-26.863-22.509v-31.841c0-13.505 11.347-22.509 26.863-22.509 14.707 0 24.086 8.565 24.086 21.192v8.235h-18.41v-8.345c0-2.854-1.969-4.831-5.676-4.831-3.704 0-5.674 1.977-5.674 4.831v34.696c0 2.855 1.97 4.831 5.674 4.831 3.707 0 5.676-1.976 5.676-4.831v-8.345h18.41v8.234c0 12.628-9.379 21.192-24.086 21.192zM526.75 172.828v-26.791h-12.275v26.791h-20.728v-73.126h20.728v29.644h12.275v-29.644h20.726v73.125h-20.726zM579.786 174.694c-14.707 0-25.94-8.564-25.94-21.192v-34.476c0-12.627 11.232-21.082 25.94-21.082 14.591 0 25.823 8.455 25.823 21.082v34.476c0 12.628-11.233 21.192-25.823 21.192zm4.631-56.766c0-2.416-2.2-3.843-4.632-3.843-2.431 0-4.747 1.427-4.747 3.843v36.672c0 2.416 2.316 3.842 4.747 3.842 2.432 0 4.632-1.426 4.632-3.842v-36.672zM637.339 174.694c-14.707 0-25.939-8.564-25.939-21.192v-34.476c0-12.627 11.232-21.082 25.939-21.082 14.59 0 25.822 8.455 25.822 21.082v34.476c.001 12.628-11.232 21.192-25.822 21.192zm4.632-56.766c0-2.416-2.202-3.843-4.632-3.843-2.432 0-4.748 1.427-4.748 3.843v36.672c0 2.416 2.316 3.842 4.748 3.842 2.43 0 4.632-1.426 4.632-3.842v-36.672zM669.531 172.828v-73.126h20.729v56.545h22.118v16.581h-42.847z"/></g><g fill="#fff"><path d="M367.022 203.143l3.254-10.505h2.217l3.258 10.505 3.674-10.505h2.656l-5.098 14.597h-2.447l-3.068-10.002h-.17l-3.068 10.002h-2.443l-5.099-14.597h2.654l3.68 10.505zM384.355 192.638h2.465v14.597h-2.465v-14.597zM396.387 194.895v12.34h-2.463v-12.34h-4.43v-2.257h11.323v2.257h-4.43zM403.487 207.235v-14.597h2.472v6.328h7.246v-6.328h2.462v14.597h-2.462v-5.971h-7.246v5.971h-2.472z"/></g></svg>