<svg xmlns="http://www.w3.org/2000/svg" width="804" height="208"><g fill="#fff"><path d="M277.237 114.765v-16.776h3.744v13.439h7.152v3.336h-10.896zM302.821 114.765l-1.56-3.624h-7.032l-1.561 3.624h-3.983l7.248-16.775h3.624l7.248 16.775h-3.984zm-5.064-11.785l-2.112 4.872h4.2l-2.088-4.872zM312.733 110.433c.624.776 1.464 1.164 2.52 1.164 1.057 0 1.893-.388 2.509-1.164.615-.775.924-1.836.924-3.18v-9.264h3.744v9.384c0 2.432-.673 4.3-2.017 5.604-1.344 1.305-3.063 1.956-5.16 1.956-2.096 0-3.819-.655-5.172-1.968-1.353-1.312-2.027-3.176-2.027-5.592v-9.384h3.743v9.264c0 1.344.312 2.404.936 3.18zM338.052 97.989h3.744v16.775h-3.744l-7.991-10.512v10.512h-3.744v-16.775h3.504l8.231 10.8v-10.8zM353.629 111.453c1.84 0 3.344-.729 4.512-2.185l2.4 2.473c-1.904 2.144-4.148 3.216-6.732 3.216s-4.712-.816-6.384-2.448-2.508-3.691-2.508-6.18.852-4.563 2.556-6.229c1.704-1.663 3.788-2.496 6.252-2.496 2.752 0 5.056 1.049 6.912 3.145l-2.328 2.64c-1.185-1.472-2.656-2.208-4.416-2.208-1.408 0-2.612.46-3.612 1.38-1 .921-1.5 2.16-1.5 3.721 0 1.56.472 2.812 1.416 3.756s2.087 1.415 3.432 1.415zM373.909 97.989h3.744v16.775h-3.744v-6.6h-6.672v6.6h-3.744v-16.775h3.744v7.008h6.672v-7.008zM400.213 97.989v3.336h-8.353v3.456h7.512v3.191h-7.512v3.48h8.616v3.312h-12.36v-16.775h12.097zM410.004 108.669l4.272-10.68h4.056l-6.744 16.775h-3.168l-6.743-16.775h4.056l4.271 10.68zM432.42 97.989v3.336h-8.352v3.456h7.512v3.191h-7.512v3.48h8.615v3.312h-12.359v-16.775h12.096zM447.756 97.989h3.744v16.775h-3.744l-7.992-10.512v10.512h-3.744v-16.775h3.504l8.232 10.8v-10.8zM462.731 101.229v13.536h-3.744v-13.536h-4.752v-3.239h13.248v3.239h-4.752zM491.579 104.205l-4.536 9.168h-2.232l-4.512-9.168v10.56h-3.744v-16.776h5.064l4.32 9.216 4.344-9.216h5.04v16.775h-3.744v-10.559zM511.403 114.765l-1.561-3.624h-7.032l-1.56 3.624h-3.984l7.248-16.775h3.624l7.248 16.775h-3.983zm-5.064-11.785l-2.112 4.872h4.2l-2.088-4.872zM528.886 99.489c1.176 1 1.764 2.536 1.764 4.607 0 2.072-.604 3.588-1.812 4.548s-3.052 1.44-5.532 1.44h-2.231v4.68h-3.744v-16.775h5.928c2.576 0 4.452.5 5.627 1.5zm-2.748 6.6c.448-.504.672-1.239.672-2.208 0-.968-.292-1.656-.876-2.064-.584-.407-1.492-.611-2.724-.611h-2.136v5.64h2.52c1.248-.001 2.096-.253 2.544-.757z"/></g><polygon stroke="#fff" stroke-width="4" points="568.508,103.694 555.365,78.332 248.582,78.332 235.059,104.425 235.059,105.709 248.605,131.848 555.341,131.848 568.508,106.441" fill="none" opacity=".8"/><g stroke="#fff" stroke-width="4" fill="none"><line opacity=".8" x1="208.924" y1="94.085" x2="208.924" y2="116.094"/><line opacity=".8" x1="179.645" y1="94.085" x2="179.645" y2="116.094"/><line opacity=".8" x1="150.366" y1="94.085" x2="150.366" y2="116.094"/><line opacity=".8" x1="121.087" y1="94.085" x2="121.087" y2="116.094"/><line opacity=".8" x1="91.807" y1="94.085" x2="91.807" y2="116.094"/><line opacity=".8" x1="62.528" y1="94.085" x2="62.528" y2="116.094"/><line opacity=".8" x1="33.249" y1="94.085" x2="33.249" y2="116.094"/><line opacity=".8" x1="3.97" y1="94.085" x2="3.97" y2="116.094"/></g><g stroke="#fff" stroke-width="4" fill="none"><line opacity=".8" x1="800.508" y1="94.085" x2="800.508" y2="116.094"/><line opacity=".8" x1="771.229" y1="94.085" x2="771.229" y2="116.094"/><line opacity=".8" x1="741.95" y1="94.085" x2="741.95" y2="116.094"/><line opacity=".8" x1="712.671" y1="94.085" x2="712.671" y2="116.094"/><line opacity=".8" x1="683.391" y1="94.085" x2="683.391" y2="116.094"/><line opacity=".8" x1="654.112" y1="94.085" x2="654.112" y2="116.094"/><line opacity=".8" x1="624.833" y1="94.085" x2="624.833" y2="116.094"/><line opacity=".8" x1="595.554" y1="94.085" x2="595.554" y2="116.094"/></g><path opacity=".8" stroke="#fff" stroke-width="4" d="M490.69 61.533c-16.113-32.831-49.864-55.439-88.906-55.439-39.495 0-73.576 23.135-89.461 56.587" fill="none"/><path opacity=".8" stroke="#fff" stroke-width="4" d="M312.323 147.499c15.886 33.451 49.966 56.586 89.461 56.586 39.494 0 73.575-23.135 89.46-56.586" fill="none"/></svg>