<svg xmlns="http://www.w3.org/2000/svg" width="349.857" height="58.967"><g><path fill="#fff" d="M47.448 15.292c-1.336-1.348-3.707-2.573-5.849-3.124l-.002-.002-1.442-4.09-6.597-6.549c-1.526-1.511-3.603-1.981-4.605-1.042l-17.131 11.338.002.002h-.002v-.002l-11.336 17.125c-.941 1.006-.474 3.081 1.043 4.61l6.545 6.599 4.116 1.449.002.002c.558 2.137 1.79 4.541 3.117 5.854l9.52 9.465 21.164.027 2.656-8.293h.001l.002-.009-.014-.018.018.018h.004l.001-.001 7.9-2.523.017-21.673-9.13-9.163z"/><g fill="#fff"><path d="M109.963 14.193c4.702 4.3 7.049 10.198 7.049 17.854 0 7.661-2.293 13.735-6.87 18.198-4.581 4.465-11.572 6.709-20.972 6.709h-16.543v-49.036h17.107c8.785 0 15.53 1.978 20.229 6.275zm-8.07 29.135c2.699-2.54 4.054-6.235 4.054-11.082 0-4.834-1.354-8.631-4.054-11.242-2.701-2.61-6.848-3.98-12.439-3.98h-6.316v30.125h7.16c5.025-.001 8.893-1.287 11.595-3.821zM156.003 56.955h-9.8v-4.689c-2.803 3.43-6.069 5.146-10.082 5.146-4.021 0-7.379-1.163-10.104-3.491-2.725-2.325-4.078-5.425-4.078-9.31 0-3.873 1.41-6.718 4.231-8.642 2.817-1.93 6.677-2.831 11.56-2.831h7.769v-.33c0-4.041-2.073-6.061-6.341-6.061-1.838 0-3.744.367-5.787 1.093-2.047.731-3.762 1.631-5.168 2.715l-4.714-6.84c4.978-3.618 10.67-5.429 17.061-5.429 4.603 0 8.27 1.152 11.185 3.458 2.905 2.299 4.269 5.938 4.269 10.923v24.288zm-10.504-14.558v-1.554h-6.568c-4.228 0-6.339 1.172-6.339 3.808 0 1.36.5 2.336 1.51 3.066 1.014.728 2.455 1.057 4.337 1.057 1.88 0 3.509-.593 4.942-1.744 1.432-1.152 2.118-2.707 2.118-4.633zM183.879 28.234c-3.15 0-5.644 1.114-7.195 3.344-1.549 2.232-2.468 5.182-2.468 8.844v16.533h-10.507v-37.828h10.507v4.803c1.398-1.555 3.312-2.869 5.354-3.953 2.047-1.078 4.453-1.644 6.554-1.689v9.947h-2.245zM202.938 26.832v16.691c0 1.46.427 2.598 1.182 3.416.75.824 1.667 1.238 2.704 1.238 1.974 0 3.657-.893 5.016-2.68l3.957 7.401c-3.288 3.008-6.753 4.513-10.394 4.513-3.642 0-6.708-1.197-9.218-3.598-2.518-2.395-3.76-5.659-3.76-9.797v-36.1h10.513v10.507h11.192l-5.776 8.407h-5.416z"/></g><g fill="#fff"><path d="M257.194 56.976v-44.482c3.688 0 5.164-1.99 5.164-4.646h3.91v49.128h-9.074zM281.244 56.976v-8.336h8.559v8.336h-8.559zM323.297 58.967c-16.897 0-26.635-12.688-26.635-25.597v-1.622c0-12.909 9.737-25.597 26.635-25.597 16.822 0 26.561 12.688 26.561 25.597v1.622c-.001 12.909-9.739 25.597-26.561 25.597zm17.706-26.998c0-10.105-6.271-18.072-17.706-18.072s-17.708 7.967-17.708 18.072v1.181c0 10.105 6.272 18.071 17.708 18.071s17.706-7.966 17.706-18.071v-1.181z"/></g><polygon fill="#fff" points="253.569,7.848 247.335,16.922 266.269,16.922 266.269,7.848"/><path fill="#45BFAE" d="M15.504 15.506l-3.682-3.681.016 26.608.045 1.244c.019.585.127 1.246.308 1.93l29.168 10.285 7.292-3.23.002-.009-33.149-33.147z"/><path fill="#6CC8BF" d="M12.19 41.607l.002.002-.008-.038.006.036zm36.462 7.046-.002.009l-7.292 3.23-29.166-10.283c.558 2.137 1.79 4.541 3.117 5.854l9.52 9.465 21.164.027 2.659-8.302-.002.009z"/><path fill="#0A82C5" d="M11.822 11.823l-11.336 17.125c-.941 1.006-.474 3.081 1.043 4.61l6.545 6.599 4.116 1.449c-.181-.684-.289-1.345-.308-1.93l-.045-1.244-.016-26.608v-.001z"/><path fill="#0075C9" d="M41.598 12.166c-.685-.174-1.34-.282-1.936-.301l-1.313-.045-26.526.004 36.834 36.83h.004l3.234-7.298-10.297-29.19z"/><path fill="#1DA3DD" d="M41.564 12.159l.035.009-.002-.002-.033-.007zm5.884 3.133c-1.336-1.348-3.707-2.573-5.849-3.124l10.295 29.187-3.234 7.298h-.004l7.905-2.524.017-21.673-9.13-9.164z"/><path fill="#45BFAE" d="M40.155 8.076l-6.597-6.549c-1.526-1.511-3.603-1.981-4.605-1.042l-17.131 11.338 26.526-.004 1.313.045c.596.019 1.251.127 1.936.301l-1.442-4.089zm-28.333 3.747"/></g></svg>