<svg xmlns="http://www.w3.org/2000/svg" width="288.5" height="122"><polygon stroke="#fff" stroke-width="4" points="282.463,25.526 271.536,4.441 16.488,4.441 5.245,26.135 5.245,93.582 16.507,115.313 271.517,115.313 282.463,94.191" fill="none" opacity=".8"/><g fill="#fff"><path d="M69.726 77.877c-11.078 0-17.758-5.784-17.758-15.478v-2.933h12.707v2.606c0 2.606 1.629 4.48 4.399 4.48s4.072-1.548 4.072-4.398c0-3.34-3.991-5.702-8.472-8.553-5.783-3.585-12.3-7.983-12.3-15.966 0-8.473 6.027-16.699 17.758-16.699 9.612 0 16.21 6.924 16.21 15.396v2.281h-12.707v-2.525c0-2.363-1.548-3.829-3.502-3.829-1.874 0-3.829 1.304-3.829 3.91 0 3.34 3.991 5.62 8.472 8.472 5.784 3.666 12.382 8.146 12.382 16.455 0 8.554-6.191 16.781-17.432 16.781zM112.737 34.297v42.194h-14.581v-42.194h-10.182v-12.056h35.026v12.056h-10.263zM145.077 76.491l-.978-7.575h-8.635l-1.222 7.575h-13.277l10.996-54.25h16.943l10.752 54.25h-14.579zm-4.806-35.923l-3.096 18.327h5.539l-2.443-18.327zM187.11 76.491c-2.28 0-3.421-4.48-3.421-8.39v-8.96c0-1.466-1.06-3.504-3.097-3.504h-3.339v20.854h-14.581v-54.25h20.69c7.087 0 13.685 4.887 13.685 12.382v7.982c0 2.77-1.954 6.109-5.702 7.657 3.748 1.548 5.947 4.888 5.947 7.738v9.449c0 3.421.894 6.19 1.874 8.797v.244h-12.056zm-3.828-40.566c0-1.954-.815-2.688-2.444-2.688h-3.584v12.546h3.584c1.629 0 2.444-.733 2.444-2.689v-7.169zM225.477 34.297v42.194h-14.58v-42.194h-10.183v-12.056h35.026v12.056h-10.263z"/></g><rect x="240.832" y="22.241" fill="#fff" width="25.753" height="2.656"/><rect x="240.832" y="39.419" fill="#fff" width="25.753" height="2.657"/><rect x="240.832" y="56.598" fill="#fff" width="25.753" height="2.658"/><rect x="240.832" y="73.775" fill="#fff" width="25.753" height="2.657"/><rect x="21.122" y="22.241" fill="#fff" width="25.753" height="2.656"/><rect x="21.122" y="39.419" fill="#fff" width="25.753" height="2.657"/><rect x="21.122" y="56.598" fill="#fff" width="25.753" height="2.658"/><rect x="21.122" y="73.775" fill="#fff" width="25.753" height="2.657"/></svg>