<?xml version="1.0" encoding="utf-8"?>
<!-- Generator: Adobe Illustrator 16.0.0, SVG Export Plug-In . SVG Version: 6.00 Build 0)  -->
<!DOCTYPE svg PUBLIC "-//W3C//DTD SVG 1.1//EN" "http://www.w3.org/Graphics/SVG/1.1/DTD/svg11.dtd">
<svg version="1.1" id="Layer_1" xmlns="http://www.w3.org/2000/svg" xmlns:xlink="http://www.w3.org/1999/xlink" x="0px" y="0px"
	 width="792px" height="612px" viewBox="0 0 792 612" enable-background="new 0 0 792 612" xml:space="preserve">
<path fill="#231F20" d="M399.767,279.009c9.061,8.29,13.589,19.655,13.589,34.425c0,14.773-4.418,26.484-13.251,35.091
	c-8.83,8.608-22.312,12.936-40.436,12.936h-31.895v-94.558h32.983C377.701,266.902,390.704,270.717,399.767,279.009z
	 M384.204,335.182c5.206-4.894,7.812-12.021,7.812-21.357c0-9.329-2.606-16.653-7.812-21.682c-5.213-5.029-13.205-7.68-23.992-7.68
	h-12.175v58.086h13.809C371.539,342.549,378.991,340.074,384.204,335.182z"/>
<path fill="#231F20" d="M488.554,361.46h-18.911v-9.044c-5.403,6.614-11.698,9.92-19.445,9.92c-7.745,0-14.221-2.24-19.476-6.725
	c-5.253-4.485-7.868-10.467-7.868-17.944c0-7.474,2.726-12.957,8.161-16.674c5.438-3.715,12.875-5.461,22.299-5.461h14.979v-0.631
	c0-7.791-4-11.688-12.242-11.688c-3.538,0-7.21,0.702-11.158,2.104c-3.938,1.406-7.239,3.147-9.959,5.232l-9.092-13.185
	c9.604-6.978,20.581-10.466,32.903-10.466c8.877,0,15.945,2.221,21.57,6.662c5.612,4.438,8.239,11.461,8.239,21.066V361.46z
	 M468.292,333.389v-2.997h-12.67c-8.152,0-12.229,2.268-12.229,7.343c0,2.627,0.969,4.508,2.918,5.914
	c1.947,1.404,4.736,2.04,8.363,2.04c3.625,0,6.76-1.146,9.53-3.364C466.962,340.104,468.292,337.103,468.292,333.389z"/>
<path fill="#231F20" d="M542.311,306.075c-6.071,0-10.881,2.148-13.87,6.452c-2.988,4.305-4.765,9.988-4.765,17.054v31.879h-20.262
	v-72.945h20.262v9.261c2.702-2.989,6.388-5.527,10.326-7.611c3.945-2.085,8.585-3.172,12.638-3.264v19.175H542.311z"/>
<path fill="#231F20" d="M579.061,303.374v32.188c0,2.81,0.828,5.008,2.278,6.59c1.446,1.586,3.223,2.381,5.214,2.381
	c3.81,0,7.05-1.721,9.675-5.167l7.628,14.271c-6.346,5.802-13.021,8.698-20.038,8.698c-7.026,0-12.937-2.309-17.777-6.931
	c-4.853-4.62-7.243-10.917-7.243-18.894v-69.609h20.264v20.262h21.587l-11.14,16.21H579.061z"/>
<path fill="#00C4B3" d="M217.673,281.663l-7.089-7.092l0.027,51.234l0.086,2.391c0.032,1.132,0.249,2.401,0.591,3.717l56.154,19.804
	l14.034-6.218l0.011-0.02L217.673,281.663z"/>
<path fill="#22D3C5" d="M211.289,331.913h0.005c-0.005-0.021-0.013-0.045-0.024-0.071
	C211.281,331.868,211.281,331.892,211.289,331.913z M281.487,345.479 M281.477,345.499l-14.034,6.218l-56.148-19.804
	c1.071,4.118,3.448,8.749,6,11.276l18.321,18.221l40.757,0.052l5.116-15.982L281.477,345.499z"/>
<path fill="#0075C9" d="M210.774,274.571l-21.832,32.972c-1.812,1.937-0.91,5.931,2.01,8.873l12.604,12.706l7.922,2.791
	c-0.343-1.315-0.559-2.585-0.591-3.717l-0.087-2.391L210.774,274.571L210.774,274.571z"/>
<path fill="#0075C9" d="M267.905,275.23c-1.317-0.334-2.584-0.545-3.723-0.577l-2.533-0.093l-51.065,0.011l70.911,70.908h0.006
	l6.229-14.05L267.905,275.23z"/>
<path fill="#00A8E1" d="M267.839,275.218c0.023,0.008,0.047,0.013,0.066,0.019v-0.006
	C267.882,275.226,267.862,275.226,267.839,275.218z M279.173,281.246c-2.578-2.596-7.142-4.954-11.268-6.01l19.824,56.193
	l-6.229,14.05h-0.006l15.218-4.862l0.032-41.723L279.173,281.246z"/>
<path fill="#00C4B3" d="M265.124,267.357l-12.698-12.61c-2.937-2.907-6.934-3.815-8.87-2.006l-32.972,21.83l51.065-0.011
	l2.533,0.093c1.139,0.032,2.405,0.243,3.723,0.577L265.124,267.357z M210.584,274.571"/>
</svg>
