<?xml version="1.0" encoding="utf-8"?>
<!-- Generator: Adobe Illustrator 17.0.0, SVG Export Plug-In . SVG Version: 6.00 Build 0)  -->
<!DOCTYPE svg PUBLIC "-//W3C//DTD SVG 1.1//EN" "http://www.w3.org/Graphics/SVG/1.1/DTD/svg11.dtd">
<svg version="1.1" xmlns="http://www.w3.org/2000/svg" xmlns:xlink="http://www.w3.org/1999/xlink" x="0px" y="0px" width="1068px"
	 height="500px" viewBox="0 0 1068 500" enable-background="new 0 0 1068 500" xml:space="preserve">
<g id="Layer_1">
</g>
<g id="Layer_2">
</g>
<g id="Layer_3">
</g>
<g id="Layer_4">
	<rect x="0.754" y="0" fill="#FAFAFA" width="1067.246" height="500"/>
	<path fill="#FF7517" d="M909.742,77.165l-0.228-0.227l-8.5-41.819c-0.591-2.175-2.017-5.367-7.306-5.23l-31.459,0.187l-0.05,10.609
		l-0.017,0.036l0.079,19.487c-0.328,5.325,1.594,7.248,5.284,8.379l41.819,8.5l0.227,0.227l-0.038-0.189L909.742,77.165z"/>
	<path fill="#FFAB17" d="M879.274,97.901l0.221,0.22l8.231,40.497c0.572,2.106,1.953,5.198,7.075,5.064l30.465-0.181l0.048-10.274
		l0.016-0.035l-0.076-18.871c0.318-5.157-1.544-7.019-5.117-8.115l-40.497-8.232l-0.22-0.22l0.037,0.183L879.274,97.901z"/>
	<polygon fill="#F04817" points="827.202,152.433 822.536,147.214 987.281,-0.05 997.782,-0.048 	"/>
	<path fill="#F04817" d="M728.972,248.138l-10.627-23.986l0-0.001l10.627,23.985l0.034,0.019l109.07-109.066l12.121-12.116
		l-87.565,0.047l-4.086,0.146c-1.905,0.054-4.038,0.417-6.251,0.986c0.007-0.003,0.012-0.004,0.019-0.007
		c-0.024,0.01-0.043,0.013-0.065,0.017c-0.019,0.005-0.038,0.009-0.057,0.014l-0.005,0.014c-7.037,1.831-14.949,5.893-19.267,10.254
		l-31.142,31.312l-0.089,69.659l27.315,8.744L728.972,248.138z"/>
	<path fill="#FF5017" d="M850.197,127.298l-56.353-37.314c-3.311-3.097-10.137-1.555-15.165,3.435l-21.716,21.542l-4.77,13.54
		c2.247-0.586,4.418-0.955,6.353-1.01l4.086-0.149L850.197,127.298L850.197,127.298z"/>
	<path fill="#FF5017" d="M808.626,274.231l30.163-30.031c4.436-4.405,8.466-12.204,10.271-19.255l0.011-0.004
		c0.571-2.251,0.931-4.417,0.986-6.363l0.159-4.33l-0.019-87.276l-121.19,121.196l0-0.001v0.001v0.009v0.001l0.005,0.002
		l8.305,25.995L808.626,274.231z"/>
	<path fill="#F04816" d="M862.527,220.189l21.552-21.702c4.968-5.02,6.52-11.851,3.429-15.16l-37.31-56.353l0.019,87.276
		l-0.159,4.329c-0.055,1.947-0.415,4.11-0.986,6.363L862.527,220.189z"/>
	<line fill="#FFAB17" x1="850.197" y1="126.973" x2="789.46" y2="186.107"/>
	<path fill="#F04816" d="M850.625,126.854"/>
	<g>
		<path fill="#00A5E9" d="M696.96,226.207l-36.274-19.342c-0.585-0.31-1.118-0.002-1.246,0.083l-28.457,19.67
			c-0.143,0.099-0.232,0.258-0.241,0.431c-0.009,0.173,0.062,0.341,0.193,0.455l14.816,12.819c0.105,0.091,0.237,0.138,0.371,0.137
			c0.078,0,0.157-0.017,0.231-0.052l18.616-8.577l31.826-4.576c0.236-0.042,0.42-0.228,0.457-0.465S697.171,226.32,696.96,226.207z"
			/>
		<path fill="#00CCB9" d="M643.761,255.842l30.964,3.175c0,0,9.723-16.059,22.433-25.822l-1.245-7.199l-30.946,5.836l-18.616,8.577
			L643.761,255.842z"/>
		<polygon fill="#018BD1" points="601.068,239.829 631.061,226.564 646.352,240.408 643.761,255.842 613.657,234.261 		"/>
		<path fill="#00A5E9" d="M557.761,261.167c0.109,0.111,0.255,0.169,0.404,0.168c0.08,0,0.161-0.018,0.237-0.054l55.272-26.168
			c0.202-0.096,0.328-0.302,0.321-0.525c-0.007-0.223-0.146-0.421-0.353-0.504l-130.225-45.977c-2.508-1,0,0,0,0"/>
		<path fill="#00A5E9" d="M596.014,297.762l-37.655-37.189c-0.076-0.075-0.184-0.098-0.288-0.066
			c-0.363,0.123-36.711,10.132-67.44,18.092c-0.041,0.011-0.159,0.061-0.159,0.061s-1.01,0.37,0.301,0.738
			c5.409,1.209,44.02,9.669,105.002,18.841c0.015,0.002,0.03,0.003,0.044,0.003c0.104-0.001,0.201-0.059,0.249-0.155
			C596.122,297.979,596.1,297.848,596.014,297.762z"/>
		<polygon fill="#018BD1" points="613.853,234.232 596.017,298.159 557.351,260.748 		"/>
		<polygon fill="#00A5E9" points="596.017,298.159 604.537,300.995 643.761,255.842 613.853,234.232 		"/>
		<path fill="#4EDECB" d="M668.53,287.172c0.415-0.454,0.804-0.712,1.03-2.09l0.001,0c1.119-7.217,5.164-26.066,5.164-26.066
			l-30.964-3.175l-39.223,45.153l15.996,22.074L668.53,287.172z"/>
		<path fill="#018BD1" d="M596.017,298.159c0,0,18.074,49.509,23.039,58.039l1.477-33.129l-15.996-22.074L596.017,298.159z"/>
		<path fill="#00CCB9" d="M620.086,385.895l-0.044-1.005l0,0l0,0l-1.282-29.22l-22.743-57.51c0,0-0.016,0.13-0.045,0.381
			c-0.483,4.19-6.203,43.386-0.811,67.711c0.109,0.341,0.413,0.997,0.887-0.221c1.471-4.622,5.527-17.035,7.187-18.715
			c0,0,0.893,17.143,2.584,24.434c0.046,0.177,0.425,1.527,1.501,2.79c2.475,2.916,8.644,8.489,11.946,11.707
			C619.508,386.454,620.009,386.769,620.086,385.895z"/>
		
			<ellipse transform="matrix(0.9962 0.0869 -0.0869 0.9962 22.6255 -56.9249)" fill="#045B7F" cx="665.074" cy="231.383" rx="7.175" ry="7.391"/>
		<path fill="#045B7F" d="M670.99,230.13c0,0,28.222-5.228,71.606-9.616c0,0-38.233,9.19-46.998,13.922l-25.904-2.053L670.99,230.13
			z"/>
		<polygon fill="#045B7F" points="659.306,232.36 645.13,239.559 646.322,240.586 660.908,233.748 		"/>
		<path fill="#00CCB9" d="M662.126,344.086c-0.119-0.05-0.232-0.101-0.35-0.151c-0.005-0.001-0.017-0.003-0.017-0.003l0.004-0.003
			c-29.023-12.413-37.448-23.844-37.448-23.844l-4.128,2.503l-1.367,33.049c0,0,6.235,21.56,8.882,28.215
			c0.02,0.052,0.391,0.989,1.231,0.64c0.126-0.077,0.265-0.163,0.418-0.257c0.002-0.001,0.003-0.002,0.003-0.002l0.002-0.001
			c0.709-0.438,1.701-1.057,2.849-1.788c0.052-0.038,6.863-5.006,13.963-12.081c0.439-0.577,0.223-1.061,0.158-1.177
			c-2.841-4.822-12.17-20.607-15.04-24.853c0,0,11.381,11.899,21.045,18.222c0.183,0.104,0.569,0.251,0.909-0.022
			c4.084-5.15,8.075-12.361,9.173-17.757C662.432,344.411,662.288,344.203,662.126,344.086z"/>
		<path fill="#018BD1" d="M600.149,240.663c0,0-36.053,18.219-47.611,21.374l26.06,7.521L600.149,240.663z"/>
		<polygon fill="#00A5E9" points="557.523,260.358 568.386,271.426 550.955,262.621 556.706,260.657 		"/>
		<polygon fill="#018BD1" points="583.411,285.962 556.946,260.569 566.848,256.501 572.926,260.144 		"/>
	</g>
	<path fill="#FFAB17" d="M819.273,263.584l-44.369-2.01l-13.776-45.595l89.296-89.77v90.575c0,0-0.525,18.663-12.755,29.187
		L819.273,263.584z"/>
	<path fill="#FF7517" d="M713.395,157.707l2.01,44.369L761,215.851l89.77-89.296h-90.575c0,0-18.663,0.525-29.187,12.755
		L713.395,157.707z"/>
	<polygon opacity="0.03" fill="#475B63" points="-0.003,0.883 298.282,244.111 -0.003,500 	"/>
	<polygon opacity="0.05" fill="#475B63" points="298.282,244.111 -0.003,500 641.333,500 	"/>
	<polygon fill="#FFFFFF" points="299.603,245.182 641.333,0.883 -3.639,-0.615 	"/>
</g>
</svg>
