<?xml version="1.0" encoding="utf-8"?>
<!-- Generator: Adobe Illustrator 17.0.0, SVG Export Plug-In . SVG Version: 6.00 Build 0)  -->
<!DOCTYPE svg PUBLIC "-//W3C//DTD SVG 1.1//EN" "http://www.w3.org/Graphics/SVG/1.1/DTD/svg11.dtd">
<svg version="1.1" xmlns="http://www.w3.org/2000/svg" xmlns:xlink="http://www.w3.org/1999/xlink" x="0px" y="0px"
	 width="333.033px" height="296.144px" viewBox="0 0 333.033 296.144" enable-background="new 0 0 333.033 296.144"
	 xml:space="preserve">
<g id="Layer_1">
</g>
<g id="Layer_2">
	<path fill="#00A5E9" d="M244.498,90.375l-35.744-19.347c-0.576-0.311-1.105-0.009-1.233,0.074l-28.257,19.272
		c-0.142,0.097-0.231,0.254-0.241,0.425c-0.01,0.171,0.059,0.338,0.188,0.451l14.569,12.765c0.103,0.09,0.234,0.138,0.366,0.138
		c0.077,0,0.156-0.016,0.229-0.05l18.458-8.365l31.495-4.328c0.234-0.04,0.416-0.223,0.455-0.457
		C244.821,90.72,244.706,90.488,244.498,90.375z"/>
	<path fill="#00CCB9" d="M191.718,119.346l30.595,3.33c0,0,9.713-15.818,22.339-25.392l-1.187-7.125l-30.632,5.579l-18.458,8.365
		L191.718,119.346z"/>
	<polygon fill="#018BD1" points="149.606,103.251 179.342,90.321 194.375,104.104 191.718,119.346 162.087,97.824 	"/>
	<path fill="#00A5E9" d="M162.073,97.649L43.583,49.546c-2.474-1.004-2.917-0.75-2.917-0.75c-0.179,0.387,0.715,1.657,0.945,1.975
		c19.433,26.272,64.585,72.835,65.047,73.31c0.107,0.11,0.251,0.168,0.398,0.168c0.079,0,0.159-0.017,0.234-0.052l54.808-25.531
		c0.2-0.093,0.326-0.296,0.32-0.517C162.414,97.928,162.278,97.732,162.073,97.649z"/>
	<polygon fill="#00A5E9" points="144.253,160.89 152.659,163.747 191.718,119.346 162.281,97.797 	"/>
	<path fill="#4EDECB" d="M216.014,150.475c0.413-0.447,0.799-0.699,1.031-2.06l0.001,0c1.151-7.129,5.266-25.74,5.266-25.74
		l-30.595-3.33l-39.059,44.4l15.679,21.923L216.014,150.475z"/>
	<path fill="#018BD1" d="M144.253,160.89c0,0,17.564,49.061,22.42,57.525l1.665-32.745l-15.679-21.923L144.253,160.89z"/>
	<path fill="#00CCB9" d="M167.508,247.783l-0.037-0.994c0,0,0,0,0,0v0l-1.087-28.898l-22.131-57c0,0-0.016,0.129-0.047,0.377
		c-0.504,4.139-6.401,42.857-1.219,66.94c0.106,0.337,0.402,0.988,0.879-0.213c1.483-4.561,5.57-16.808,7.221-18.459
		c0,0,0.777,16.955,2.404,24.173c0.045,0.175,0.411,1.512,1.467,2.768c2.429,2.899,8.494,8.447,11.739,11.648
		C166.933,248.332,167.426,248.646,167.508,247.783z"/>
	
		<ellipse transform="matrix(0.9957 0.0931 -0.0931 0.9957 9.7998 -19.4161)" fill="#045B7F" cx="212.941" cy="95.296" rx="7.094" ry="7.308"/>
	<path fill="#045B7F" d="M218.797,94.094c0,0,27.935-4.995,70.856-9.065c0,0-37.858,8.85-46.553,13.475l-25.598-2.19L218.797,94.094
		z"/>
	<polygon fill="#045B7F" points="207.232,96.226 193.172,103.256 194.344,104.279 208.807,97.609 	"/>
	<path fill="#00CCB9" d="M209.33,206.706c-0.117-0.051-0.229-0.101-0.345-0.151c-0.005-0.001-0.017-0.003-0.017-0.003l0.004-0.003
		c-28.618-12.452-36.878-23.805-36.878-23.805l-4.097,2.45l-1.555,32.667c0,0,6.032,21.355,8.607,27.951
		c0.019,0.051,0.381,0.981,1.214,0.64c0.125-0.076,0.263-0.159,0.415-0.252c0.002-0.001,0.003-0.001,0.004-0.003v0
		c0.704-0.428,1.689-1.034,2.828-1.751c0.052-0.037,6.816-4.907,13.879-11.858c0.438-0.568,0.227-1.047,0.164-1.163
		c-2.779-4.785-11.905-20.449-14.716-24.665c0,0,11.179,11.835,20.695,18.145c0.18,0.104,0.561,0.251,0.899-0.016
		c4.069-5.067,8.06-12.171,9.179-17.499C209.632,207.029,209.49,206.822,209.33,206.706z"/>
	<path fill="#018BD1" d="M148.693,104.07c0,0-35.757,17.79-47.204,20.838l25.718,7.597L148.693,104.07z"/>
	<path fill="#00A5E9" d="M144.253,160.498l-37-37.001c-0.075-0.074-0.181-0.098-0.284-0.067c-0.017,0.006-0.139,0.039-0.311,0.087
		l-0.231-0.238l-0.809,0.291l-3.497,1.169c-10.87,2.913-38.11,10.148-61.941,16.162c-0.041,0.01-0.157,0.06-0.157,0.06
		s-1,0.36,0.293,0.731c5.34,1.228,43.463,9.832,103.698,19.276c0.015,0.002,0.029,0.003,0.043,0.003
		c0.103,0,0.199-0.057,0.247-0.152C144.358,160.713,144.337,160.583,144.253,160.498z"/>
	<polygon fill="#018BD1" points="162.282,97.797 112.116,120.958 105.855,123.485 131.859,148.748 144.253,160.89 	"/>
</g>
<g id="Layer_3">
</g>
<g id="Layer_4">
</g>
</svg>
