<svg xmlns="http://www.w3.org/2000/svg" viewBox="0 0 415.8 111.5" enable-background="new 0 0 415.8 111.5"><style type="text/css">.st0{fill:#000000;} .st1{fill:#00C4B3;} .st2{fill:#22D3C5;} .st3{fill:#0075C9;} .st4{fill:#00A8E1;}</style><path class="st0" d="M211.8 28.2c9.1 8.3 13.6 19.7 13.6 34.4 0 14.8-4.4 26.5-13.3 35.1-8.8 8.6-22.3 12.9-40.4 12.9h-31.9V16.1h33c16.9 0 29.9 3.8 39 12.1zm-15.6 56.2c5.2-4.9 7.8-12 7.8-21.4 0-9.3-2.6-16.7-7.8-21.7-5.2-5-13.2-7.7-24-7.7H160v58.1h13.8c9.7 0 17.2-2.4 22.4-7.3zM300.5 110.7h-18.9v-9c-5.4 6.6-11.7 9.9-19.4 9.9-7.7 0-14.2-2.2-19.5-6.7-5.3-4.5-7.9-10.5-7.9-17.9 0-7.5 2.7-13 8.2-16.7 5.4-3.7 12.9-5.5 22.3-5.5h15v-.6c0-7.8-4-11.7-12.2-11.7-3.5 0-7.2.7-11.2 2.1-3.9 1.4-7.2 3.1-10 5.2l-9.1-13.2c9.6-7 20.6-10.5 32.9-10.5 8.9 0 15.9 2.2 21.6 6.7 5.6 4.4 8.2 11.5 8.2 21.1v46.8zm-20.2-28.1v-3h-12.7c-8.2 0-12.2 2.3-12.2 7.3 0 2.6 1 4.5 2.9 5.9 1.9 1.4 4.7 2 8.4 2 3.6 0 6.8-1.1 9.5-3.4 2.8-2.1 4.1-5.1 4.1-8.8zM354.3 55.3c-6.1 0-10.9 2.1-13.9 6.5-3 4.3-4.8 10-4.8 17.1v31.9h-20.3V37.7h20.3V47c2.7-3 6.4-5.5 10.3-7.6 3.9-2.1 8.6-3.2 12.6-3.3v19.2h-4.2zM391.1 52.6v32.2c0 2.8.8 5 2.3 6.6 1.4 1.6 3.2 2.4 5.2 2.4 3.8 0 7-1.7 9.7-5.2l7.6 14.3c-6.3 5.8-13 8.7-20 8.7s-12.9-2.3-17.8-6.9c-4.9-4.6-7.2-10.9-7.2-18.9V16.1h20.3v20.3h21.6l-11.1 16.2h-10.6z"/><path class="st1" d="M29.7 29.9l-7.1-7.1V74l.1 2.4c0 1.1.2 2.4.6 3.7l56.2 19.8 14-6.2-63.8-63.8z"/><path class="st2" d="M23.3 80.1zm70.2 13.6l-14 6.2-56.2-19.8c1.1 4.1 3.4 8.7 6 11.3l18.3 18.2 40.8.1 5.1-16z"/><path class="st3" d="M22.8 22.8L1 55.8c-1.8 1.9-.9 5.9 2 8.9l12.6 12.7 7.9 2.8c-.3-1.3-.6-2.6-.6-3.7l-.1-2.5V22.8zM79.9 23.4c-1.3-.3-2.6-.5-3.7-.6l-2.5-.1H22.6l70.9 70.9 6.2-14-19.8-56.2z"/><path class="st4" d="M79.8 23.4c.1 0 .1 0 0 0 .1 0 .1 0 0 0zm11.4 6c-2.6-2.6-7.1-5-11.3-6l19.8 56.2-6.2 14 15.2-4.9V47L91.2 29.4z"/><path class="st1" d="M77.1 15.5L64.4 2.9C61.5 0 57.5-.9 55.5.9l-33 21.8h51.1l2.5.1c1.1 0 2.4.2 3.7.6l-2.7-7.9z"/></svg>