<svg xmlns="http://www.w3.org/2000/svg" viewBox="0 0 301.7 333" enable-background="new 0 0 301.7 333"><style type="text/css">.st0{fill:#0075C9;} .st1{fill:#CFD1D2;} .st2{fill:#A5A7AA;} .st3{fill:#BABBBE;} .st4{fill:#6FD8C9;} .st5{fill:#7FEADD;} .st6{fill:#AFF9F0;} .st7{fill:#00C4B3;} .st8{fill:#00A8E1;} .st9{fill:#4FBFF7;} .st10{fill:#87D9F9;} .st11{fill:#1D1D1B;} .st12{fill:#686868;} .st13{fill:#FFFFFF;}</style><path class="st0" d="M195.5 311.5l-41.3-88-7.2 16.1 48.5 71.9zm-29.1 2L147 239.6l-13.9 11.8 33.3 62.1zm-27.2-17.7l-6.1-44.4-10.2 8.6 16.3 35.8z"/><path class="st1" d="M270.8 87.1l30.9-10.8L255 88.7l13.9-.5 1.9-1.1z"/><path class="st2" d="M255 88.7l-13.7 3.6v7l6.8.7 20.8-11.8-13.9.5z"/><path class="st3" d="M241.3 99.3l-2.1 13 8.9-12.3-6.8-.7z"/><path class="st1" d="M241.3 92.3v7l-13-9.5 13 2.5z"/><path class="st4" d="M241.3 99.3L225 97.2l6.8-4.9 9.5 7z"/><path class="st5" d="M232 100.4l.2-2.3 9.1 1.2-9.3 1.1z"/><path class="st6" d="M231.4 106.7l.6-6.3 9.3-1.1-9.9 7.4z"/><path class="st7" d="M225 97.2l6.4 9.6.8-8.7-7.2-.9z"/><path class="st5" d="M225 97.2l-10.4 7.6 16.8 2-6.4-9.6z"/><path class="st6" d="M219.7 94.1l-5.1 10.7 10.4-7.6-5.3-3.1z"/><path class="st7" d="M231.8 92.3l-12.1 1.8 5.3 3.1 6.8-4.9zm-3.5-2.5L223 89l8.8 3.3-3.5-2.5z"/><path class="st5" d="M219.7 94.1L223 89l8.8 3.3-12.1 1.8z"/><path class="st7" d="M211.5 88.7l8.2 5.4L223 89l-11.5-.3z"/><path class="st5" d="M208.5 104.1l3-15.4 8.2 5.4-11.2 10z"/><path class="st7" d="M219.7 94.1l-11.2 10 6.1.7 5.1-10.7z"/><path class="st4" d="M213.5 117.8c.2-.5 1.1-13 1.1-13l-6.1-.7 5 13.7z"/><path class="st6" d="M211.5 88.7l-21.9 8.5 18.9 6.9 3-15.4z"/><path class="st4" d="M208.5 104.1l-9.1 15.6-9.8-22.5 18.9 6.9z"/><path class="st5" d="M208.5 104.1l5 13.7-14.1 1.9 9.1-15.6zm-34.7 11.4l15.8-18.3 9.8 22.5-25.6-4.2z"/><path class="st7" d="M214.6 104.8l16.4 24.4-17.5-11.4 1.1-13z"/><path class="st6" d="M231.4 106.8l-5.7 14.7-11.1-16.7 16.8 2z"/><path class="st4" d="M225.7 121.5l12.9-3.1-2.2 19-10.7-15.9z"/><path class="st5" d="M231.4 106.8l7.2 11.6-12.9 3.1 5.7-14.7z"/><path class="st7" d="M241.3 99.3l-2.7 19.1-7.4-11.9 10.1-7.2z"/><path class="st4" d="M213.5 117.8L201.3 134l-1.9-14.3 14.1-1.9z"/><path class="st7" d="M213.5 170.8v-53L201.3 134l12.2 36.8z"/><path class="st5" d="M231.7 129.4l-18.2-11.6v23.3l18.2-11.7z"/><path class="st6" d="M236.4 137.4l-22.9 3.7 18.2-11.7 4.7 8z"/><path class="st7" d="M213.5 141.1l22.9-3.7-1.6 11.7-21.3-8z"/><path class="st6" d="M213.5 170.8v-29.7l13.9 15.6-13.9 14.1z"/><path class="st5" d="M234.8 149.1l-21.3-8 13.9 15.6 7.4-7.6zm-21.3 21.7l-21-19.2 8.8-17.6 12.2 36.8z"/><path class="st6" d="M186.6 163.5l26.9 7.3-21-19.2-5.9 11.9z"/><path class="st4" d="M203 192c.4-.2 10.5-21.1 10.5-21.1l-26.9-7.3L203 192zm-23.4-58h21.7l-14.7 29.5-7-29.5z"/><path class="st6" d="M199.4 119.7l-6.4 9.7 8.3 4.6-1.9-14.3z"/><path class="st4" d="M173.8 115.5l25.6 4.2-6.4 9.7-19.2-13.9z"/><path class="st5" d="M193 129.4l-11.8-.2-74.6-24.2 73 29h21.7l-8.3-4.6z"/><path class="st0" d="M122.9 82.5l35.3 35.5-8.5 1.4-15.6-5.2-11.2-31.7z"/><path class="st8" d="M139.5 118.1l6.8 15.9 22.6-4.3-29.4-11.6z"/><path class="st9" d="M162 149.1c.2-.5 6.6-19.3 6.6-19.3l-22.3 4.2 6.3 11.5 9.4 3.6z"/><path class="st8" d="M179.6 134L162 149.1l6.7-19.4 10.9 4.3z"/><path class="st9" d="M149.7 119.4l24.1-3.9 19.2 13.9-11.8-.2-31.5-9.8zm-78 15.8l71.2-9.3 3.4 8.1-74.6 1.2zM70 115.5l69.5 2.6 3.4 7.8L70 115.5z"/><path class="st8" d="M92.3 152.4l54-18.4 3.4 6.2-57.4 12.2zm17.3 16.6l40.2-28.8 2.9 5.3-43.1 23.5z"/><path class="st9" d="M131.4 182.1l21.3-36.6 9.3 3.6-30.6 33zM31.2 44.5c.5 0 91.7 38 91.7 38l3.7 10.3-95.4-48.3zm-.9 15.1c.7 0 96.2 33.2 96.2 33.2l3.6 10.2-99.8-43.4z"/><path class="st8" d="M130.4 103L30.3 59.6 32 75.8l16.2 9.7 82.2 17.5z"/><path class="st10" d="M134.1 114.2l-3.9-11.2-82-17.5 85.9 28.7zm-7.6-21.4L8.8 33.5 23.9 56l6.4 3.6 96.2 33.2zm-3.6-10.3L14 0l71.2 66.8 37.7 15.7z"/><path class="st8" d="M0 5.6L14 0l71.2 66.8-54-22.3-22.4-11L0 5.6z"/><path class="st0" d="M139.5 118.1l-32-12.9-59.3-19.7 1.3 12.8 9.2 17.2 80.8 2.6z"/><path class="st8" d="M142.9 125.9l-71.2-10.1-13-.3 9.7 10.5-.8 10.1 75.3-10.2z"/><path class="st10" d="M146.3 134l-72.1 1.2-6.6.9 23.5 8.7 1.2 7.6 54-18.4zm3.4 6.2l-57.4 12.2 16.7 5.9.6 10.7 40.1-28.8z"/><path class="st8" d="M152.7 145.5L109.6 169l14.8 1.8 7 11.3 21.3-36.6zm26.9-11.5L162 149.1l-30.6 33 13.6 1.5 6.9 4 27.7-53.6z"/><path class="st5" d="M184 152.4l-4.4-18.4-27.7 53.6 32.1-35.2z"/><path class="st6" d="M171.9 193.1l12.1-40.7-32.1 35.2 12.1-3.5 7.9 9zM186.6 163.5l-2.6-11.1-12.1 40.7 14.7-29.6z"/><path class="st5" d="M203 192l-31.1 1.1 14.7-29.6L203 192z"/><path class="st6" d="M203 192s-13.6 17.8-13.6 17.6-17.5-16.5-17.5-16.5L203 192z"/><path class="st4" d="M166.4 211.1c.6 0 17.5-6.7 17.5-6.7l5.8 5.2-23.3 1.5z"/><path class="st5" d="M176.2 218.3l-9.8-7.2 23.4-1.5-13.6 8.7z"/><path class="st7" d="M158.2 214.4l13.7-21.3 12.1 11.2-25.8 10.1z"/><path class="st5" d="M167.1 187.6l.1 12.9 4.7-7.4-4.8-5.5z"/><path class="st4" d="M147 204.3l11.2 10.1 9-13.9-20.2 3.8z"/><path class="st6" d="M167.1 187.6L147 204.3l20.2-3.8-.1-12.9z"/><path class="st7" d="M148 185.4l3.8 2.3 8.7 5.4-13.5 11.2 1-18.9z"/><path class="st5" d="M164 184.1l-3.5 9-8.7-5.4 12.2-3.6z"/><path class="st4" d="M167.1 187.6l-3.1-3.5-3.5 9 6.6-5.5z"/><path class="st9" d="M131.1 232.1c.6-.8 15.9-27.8 15.9-27.8l11.2 10.1-27.1 17.7z"/><path class="st10" d="M110.8 213.5c1-.3 36.2-9.1 36.2-9.1l-15.9 27.7-20.3-18.6z"/><path class="st8" d="M130.4 197.5l16.6 6.8-36.2 9.2 19.6-16zm-14.8-9.9l15.8-5.5-1 15.4-14.8-9.9z"/><path class="st9" d="M110.8 213.5l4.8-25.9 14.8 9.9-19.6 16z"/><path class="st8" d="M148 185.4s-17.7 12.5-17.6 12.1c0-.4 1-15.3 1-15.3l13.6 1.5 3 1.7z"/><path class="st9" d="M147 204.3l1-18.9-17.6 12.1 16.6 6.8z"/><path class="st8" d="M113.4 241.7l-2.6-28.2 20.3 18.6-17.7 9.6z"/><path class="st9" d="M122.9 260l8.2-27.9-17.7 9.6 9.5 18.3z"/><path class="st10" d="M147 239.6l-15.9-7.5-8.2 27.9 24.1-20.4z"/><path class="st0" d="M158.2 214.4L147 239.6l-15.9-7.5 27.1-17.7z"/><path class="st9" d="M160 231.2l16.2-12.9-9.8-7.2-8.2 3.3-4 9.1 5.8 7.7zm-2.1 12l-3.7-19.7-7.2 16.1 10.9 3.6zM147 258.5v-18.9l-13.9 11.8 13.9 7.1zm-15.9 8.5l-8.2-7 10.2-8.6-2 15.6z"/><path class="st8" d="M222.6 313.5l-68.4-90 41.3 88 27.1 2zm-40.1 10.7c0-1.8-35.5-84.6-35.5-84.6l48.5 71.9-13 12.7zm-66.1-154.5l15 12.4-7-11.3-8-1.1z"/><path class="st9" d="M115.6 187.6l.8-17.9 15 12.4-15.8 5.5zm66.9 136.6L147 239.6l19.4 73.9 16.1 10.7zm-32.8-4.2l-16.6-68.6 33.3 62.1-16.7 6.5zm-10.5-24.2l10.5 24.2-16.6-68.6 6.1 44.4z"/><path class="st11" d="M226.5 97.7c-1.7 0-3.1 1.4-3.1 3.1 0 .7.2 1.3.6 1.8l5.1-3.3c-.4-1-1.4-1.6-2.6-1.6z"/><path class="st12" d="M226.5 103.8c1.7 0 3.1-1.4 3.1-3.1 0-.5-.2-1-.4-1.5l-5.1 3.3c.5.8 1.4 1.3 2.4 1.3z"/><circle class="st13" cx="225.6" cy="99.5" r=".5"/><path class="st0" d="M166.4 313.5l-16.7 6.5 19.2 13 13.6-8.8zM182.5 324.2zM195.5 311.5l-13 12.7 20.5 5.1 19.6-15.8z"/></svg>