<svg xmlns="http://www.w3.org/2000/svg" viewBox="0 0 1200 1200"><linearGradient id="a" gradientUnits="userSpaceOnUse" x1="600" y1="1200" x2="600" gradientTransform="rotate(180 600 600)"><stop offset="0" stop-color="#10aba1"/><stop offset=".428" stop-color="#8ad1c5"/><stop offset=".505" stop-color="#9fd9ce"/><stop offset=".688" stop-color="#ccebe2"/><stop offset=".829" stop-color="#e8f6ee"/><stop offset=".911" stop-color="#f2faf2"/></linearGradient><path fill="url(#a)" d="M0 0h1200v1200H0z"/><linearGradient id="b" gradientUnits="userSpaceOnUse" x1="-58.019" y1="1019.935" x2="-55.619" y2="1017.535" gradientTransform="matrix(34 0 0 -33 2186.06 34168.355)"><stop offset="0" stop-color="#7eccbf"/><stop offset="1" stop-color="#84cfc2"/></linearGradient><path fill="url(#b)" d="M272.4 547.2l-69.6-26.4 81.6 79.2z"/><linearGradient id="c" gradientUnits="userSpaceOnUse" x1="-41.662" y1="1005.005" x2="-39.262" y2="1002.605" gradientTransform="matrix(110 0 0 -80 5427.03 81413.453)"><stop offset="0" stop-color="#f1f9f1"/><stop offset="1" stop-color="#e3f3ea"/></linearGradient><path fill="url(#c)" d="M1131.6 1068l-93.6-72-170.4 192z"/><linearGradient id="d" gradientUnits="userSpaceOnUse" x1="-42.492" y1="1012.617" x2="-40.092" y2="1010.217" gradientTransform="matrix(44 0 0 -30 2924.027 31363.357)"><stop offset="0" stop-color="#dcf1e8"/><stop offset="1" stop-color="#e1f3e9"/></linearGradient><path fill="url(#d)" d="M1143.6 1015.2L1038 996l93.6 72z"/><linearGradient id="e" gradientUnits="userSpaceOnUse" x1="-46.886" y1="1057.402" x2="-44.486" y2="1055.002" gradientTransform="matrix(103 0 0 -11 4774.03 12141.406)"><stop offset="0" stop-color="#7bccbf"/><stop offset="1" stop-color="#79cbbd"/></linearGradient><path fill="url(#e)" d="M0 509.4v23.2l202.8-11.8z"/><linearGradient id="f" gradientUnits="userSpaceOnUse" x1="-42.209" y1="1006.82" x2="-39.809" y2="1004.42" gradientTransform="matrix(59 0 0 -129 3518.15 130117.398)"><stop offset="0" stop-color="#68c6b9"/><stop offset="1" stop-color="#59c2b5"/></linearGradient><path fill="url(#f)" d="M1059.6 477.6L1200 449v-2.8L1074 168z"/><linearGradient id="g" gradientUnits="userSpaceOnUse" x1="-41.554" y1="1035.67" x2="-39.155" y2="1033.271" gradientTransform="matrix(59 0 0 -19 3518.015 20124.375)"><stop offset="0" stop-color="#72c9bb"/><stop offset="1" stop-color="#72c9bb"/></linearGradient><path fill="url(#g)" d="M1088.4 494.4l111.6-45.1v-.3l-140.4 28.6z"/><linearGradient id="h" gradientUnits="userSpaceOnUse" x1="-43.313" y1="1004.872" x2="-40.913" y2="1002.472" gradientTransform="matrix(82 0 0 -104 4257.169 105413.336)"><stop offset="0" stop-color="#e5f5eb"/><stop offset="1" stop-color="#e5f4ec"/></linearGradient><path fill="url(#h)" d="M680.4 1060.8L867.6 1188l9.6-249.6z"/><linearGradient id="i" gradientUnits="userSpaceOnUse" x1="-42.935" y1="1004.428" x2="-40.535" y2="1002.028" gradientTransform="matrix(71 0 0 -104 3906.18 105413.336)"><stop offset="0" stop-color="#eef8ef"/><stop offset="1" stop-color="#d9efe6"/></linearGradient><path fill="url(#i)" d="M867.6 1188L1038 996l-160.8-57.6z"/><linearGradient id="j" gradientUnits="userSpaceOnUse" x1="-46.828" y1="1009.811" x2="-44.428" y2="1007.411" gradientTransform="matrix(103 0 0 -37 4704.03 38402.41)"><stop offset="0" stop-color="#ecf8ef"/><stop offset="1" stop-color="#eef8ef"/></linearGradient><path fill="url(#j)" d="M0 1077.2v27l34.8-31.4z"/><linearGradient id="k" gradientUnits="userSpaceOnUse" x1="-48.876" y1="1008.821" x2="-46.476" y2="1006.421" gradientTransform="matrix(83 0 0 -37 3986.044 38402.41)"><stop offset="0" stop-color="#f2faf1"/><stop offset="1" stop-color="#eef8ef"/></linearGradient><path fill="url(#k)" d="M34.8 1072.8L0 1104.2v53.6l135.6-8.2z"/><linearGradient id="l" gradientUnits="userSpaceOnUse" x1="-47.793" y1="1006.461" x2="-45.393" y2="1004.061" gradientTransform="matrix(67 0 0 -76 3523.077 77352.328)"><stop offset="0" stop-color="#caebe0"/><stop offset="1" stop-color="#dcf1e7"/></linearGradient><path fill="url(#l)" d="M322.8 859.2l134.4 182.4 26.4-21.6z"/><linearGradient id="m" gradientUnits="userSpaceOnUse" x1="-44.837" y1="1007.133" x2="-42.437" y2="1004.733" gradientTransform="matrix(133 0 0 -131 5958.153 132135.406)"><stop offset="0" stop-color="#70c8ba"/><stop offset="1" stop-color="#62c4b7"/></linearGradient><path fill="url(#m)" d="M308.4 206.4L0 498.6v10.8l202.8 11.4z"/><linearGradient id="n" gradientUnits="userSpaceOnUse" x1="-53.893" y1="1006.666" x2="-51.493" y2="1004.266" gradientTransform="matrix(44 0 0 -142 2576.142 143146.406)"><stop offset="0" stop-color="#72c9bc"/><stop offset="1" stop-color="#65c5b8"/></linearGradient><path fill="url(#n)" d="M308.4 206.4L202.8 520.8l69.6 26.4z"/><linearGradient id="o" gradientUnits="userSpaceOnUse" x1="-58.517" y1="1013.03" x2="-56.117" y2="1010.63" gradientTransform="matrix(26 0 0 -27 1980.078 28370.389)"><stop offset="0" stop-color="#e2f3e9"/><stop offset="1" stop-color="#e3f4ea"/></linearGradient><path fill="url(#o)" d="M457.2 1041.6l62.4 43.2-36-64.8z"/><linearGradient id="p" gradientUnits="userSpaceOnUse" x1="-45.286" y1="1012.71" x2="-42.886" y2="1010.311" gradientTransform="matrix(82 0 0 -27 4175.044 28370.418)"><stop offset="0" stop-color="#e1f3e9"/><stop offset="1" stop-color="#e6f5eb"/></linearGradient><path fill="url(#p)" d="M519.6 1084.8l160.8-24-196.8-40.8z"/><linearGradient id="q" gradientUnits="userSpaceOnUse" x1="-43.837" y1="1015.797" x2="-41.438" y2="1013.397" gradientTransform="matrix(24 0 0 -22 2183.078 23363.36)"><stop offset="0" stop-color="#e3f4ea"/><stop offset="1" stop-color="#def2e8"/></linearGradient><path fill="url(#q)" d="M1189.2 1017.6l-45.6-2.4-12 52.8z"/><linearGradient id="r" gradientUnits="userSpaceOnUse" x1="-41.014" y1="1013.225" x2="-38.614" y2="1010.825" gradientTransform="matrix(66 0 0 -26 3821.014 27368.389)"><stop offset="0" stop-color="#e5f4eb"/><stop offset="1" stop-color="#e3f4ea"/></linearGradient><path fill="url(#r)" d="M1131.6 1068l68.4 5.2v-48.9l-10.8-6.7z"/><linearGradient id="s" gradientUnits="userSpaceOnUse" x1="-42.801" y1="1034.688" x2="-40.401" y2="1032.288" gradientTransform="matrix(30 0 0 -10 2422.034 11342.36)"><stop offset="0" stop-color="#ddf1e8"/><stop offset="1" stop-color="#dcf1e7"/></linearGradient><path fill="url(#s)" d="M1189.2 1017.6l10.8-9.8v-9.5l-56.4 16.9z"/><linearGradient id="t" gradientUnits="userSpaceOnUse" x1="-41.148" y1="1010.208" x2="-38.749" y2="1007.809" gradientTransform="matrix(42 0 0 -36 2909.027 37368.36)"><stop offset="0" stop-color="#ddf1e8"/><stop offset="1" stop-color="#e2f3ea"/></linearGradient><path fill="url(#t)" d="M1200 1024.3v-16.5l-10.8 9.8z"/><linearGradient id="u" gradientUnits="userSpaceOnUse" x1="-46.053" y1="1007.513" x2="-43.653" y2="1005.113" gradientTransform="matrix(80 0 0 -67 4030.044 68343.32)"><stop offset="0" stop-color="#c7e9df"/><stop offset="1" stop-color="#d2ede3"/></linearGradient><path fill="url(#u)" d="M514.8 916.8l-192-57.6L483.6 1020z"/><linearGradient id="v" gradientUnits="userSpaceOnUse" x1="-45.846" y1="1018.879" x2="-43.446" y2="1016.479" gradientTransform="matrix(80 0 0 -24 4030.044 25300.406)"><stop offset="0" stop-color="#c2e7dd"/><stop offset="1" stop-color="#c6e9de"/></linearGradient><path fill="url(#v)" d="M505.2 866.4l-182.4-7.2 192 57.6z"/><linearGradient id="w" gradientUnits="userSpaceOnUse" x1="-45.353" y1="1007.059" x2="-42.953" y2="1004.659" gradientTransform="matrix(82 0 0 -60 4175.044 61360.422)"><stop offset="0" stop-color="#dcf1e8"/><stop offset="1" stop-color="#d9f0e6"/></linearGradient><path fill="url(#w)" d="M483.6 1020l196.8 40.8-165.6-144z"/><linearGradient id="x" gradientUnits="userSpaceOnUse" x1="-45.66" y1="1005.435" x2="-43.259" y2="1003.035" gradientTransform="matrix(42 0 0 -63 2742.089 64476.32)"><stop offset="0" stop-color="#fefbf4"/><stop offset="1" stop-color="#fdfcf5"/></linearGradient><path fill="url(#x)" d="M861.3 1200h8.2l-1.9-12z"/><linearGradient id="y" gradientUnits="userSpaceOnUse" x1="-41.99" y1="1019.28" x2="-39.589" y2="1016.879" gradientTransform="matrix(99 0 0 -35 4979.032 36152.41)"><stop offset="0" stop-color="#80cdc0"/><stop offset="1" stop-color="#7acbbe"/></linearGradient><path fill="url(#y)" d="M1033.2 549.6l26.4-72-237.6 84z"/><linearGradient id="z" gradientUnits="userSpaceOnUse" x1="-46.463" y1="1022.774" x2="-44.063" y2="1020.374" gradientTransform="matrix(23 0 0 -29 2103.078 30153.361)"><stop offset="0" stop-color="#80cec1"/><stop offset="1" stop-color="#7cccbe"/></linearGradient><path fill="url(#z)" d="M1038 564l50.4-69.6-55.2 55.2z"/><linearGradient id="A" gradientUnits="userSpaceOnUse" x1="-46.656" y1="1022.184" x2="-44.255" y2="1019.784" gradientTransform="matrix(23 0 0 -30 2103.078 31147.357)"><stop offset="0" stop-color="#75cabc"/><stop offset="1" stop-color="#7accbd"/></linearGradient><path fill="url(#A)" d="M1088.4 494.4l-28.8-16.8-26.4 72z"/><linearGradient id="B" gradientUnits="userSpaceOnUse" x1="-43.816" y1="1006.145" x2="-41.416" y2="1003.745" gradientTransform="matrix(82 0 0 -76 4257.044 77360.328)"><stop offset="0" stop-color="#dcf1e7"/><stop offset="1" stop-color="#cdebe1"/></linearGradient><path fill="url(#B)" d="M682.8 878.4l-2.4 182.4 196.8-122.4z"/><linearGradient id="C" gradientUnits="userSpaceOnUse" x1="-42.734" y1="1007.767" x2="-40.334" y2="1005.367" gradientTransform="matrix(95 0 0 -138 4788.167 139035.406)"><stop offset="0" stop-color="#25b2a7"/><stop offset="1" stop-color="#3ab8ac"/></linearGradient><path fill="url(#C)" d="M966 57.6L844.4 0H743.5L774 280.8z"/><linearGradient id="D" gradientUnits="userSpaceOnUse" x1="-42.717" y1="1013.959" x2="-40.317" y2="1011.559" gradientTransform="matrix(95 0 0 -76 4788.042 76942.492)"><stop offset="0" stop-color="#1aaea4"/><stop offset="1" stop-color="#1cafa4"/></linearGradient><path fill="url(#D)" d="M911.4 0h-67L966 57.6z"/><linearGradient id="E" gradientUnits="userSpaceOnUse" x1="-44.701" y1="1006.637" x2="-42.301" y2="1004.237" gradientTransform="matrix(84 0 0 -44 4263.043 45441.41)"><stop offset="0" stop-color="#fdfdf5"/><stop offset="1" stop-color="#fafcf4"/></linearGradient><path fill="url(#E)" d="M533.8 1200h107.7l-61.9-50.4z"/><linearGradient id="F" gradientUnits="userSpaceOnUse" x1="-45.828" y1="1009.322" x2="-43.428" y2="1006.922" gradientTransform="matrix(67 0 0 -37 3605.014 38397.41)"><stop offset="0" stop-color="#eaf6ed"/><stop offset="1" stop-color="#ecf7ee"/></linearGradient><path fill="url(#F)" d="M579.6 1149.6l100.8-88.8-160.8 24z"/><linearGradient id="G" gradientUnits="userSpaceOnUse" x1="-41.17" y1="1006.884" x2="-38.77" y2="1004.484" gradientTransform="matrix(110 0 0 -97 5464.166 98250.469)"><stop offset="0" stop-color="#a0dace"/><stop offset="1" stop-color="#9cd9cd"/></linearGradient><path fill="url(#G)" d="M956.4 710.4l243.6 79.7v-19.3L1038 564z"/><linearGradient id="H" gradientUnits="userSpaceOnUse" x1="-41.211" y1="1006.027" x2="-38.811" y2="1003.627" gradientTransform="matrix(76 0 0 -126 4172.179 127250.398)"><stop offset="0" stop-color="#89d1c4"/><stop offset="1" stop-color="#93d5c8"/></linearGradient><path fill="url(#H)" d="M1038 564l162 206.8v-20.7l-111.6-255.7z"/><linearGradient id="I" gradientUnits="userSpaceOnUse" x1="-41.314" y1="1005.907" x2="-38.913" y2="1003.507" gradientTransform="matrix(76 0 0 -91 4172.179 92341.336)"><stop offset="0" stop-color="#d4eee4"/><stop offset="1" stop-color="#cbeae0"/></linearGradient><path fill="url(#I)" d="M1143.6 1015.2l56.4-160.4v-35.7L1038 996z"/><linearGradient id="J" gradientUnits="userSpaceOnUse" x1="-41.131" y1="1005.956" x2="-38.731" y2="1003.556" gradientTransform="matrix(55 0 0 -145 3374.15 146250.406)"><stop offset="0" stop-color="#7fcec0"/><stop offset="1" stop-color="#8ed3c7"/></linearGradient><path fill="url(#J)" d="M1200 750.1V449.3l-111.6 45.1z"/><linearGradient id="K" gradientUnits="userSpaceOnUse" x1="-42.707" y1="1005.666" x2="-40.307" y2="1003.266" gradientTransform="matrix(32 0 0 -91 2500.006 92341.336)"><stop offset="0" stop-color="#d6efe5"/><stop offset="1" stop-color="#c9eae0"/></linearGradient><path fill="url(#K)" d="M1200 998.3V854.8l-56.4 160.4z"/><linearGradient id="L" gradientUnits="userSpaceOnUse" x1="-46.995" y1="1012.801" x2="-44.594" y2="1010.401" gradientTransform="matrix(70 0 0 -76 3673.983 76994.328)"><stop offset="0" stop-color="#39b8ac"/><stop offset="1" stop-color="#2bb4a8"/></linearGradient><path fill="url(#L)" d="M572.4 86.4L450 0l-45.6 182.4z"/><linearGradient id="M" gradientUnits="userSpaceOnUse" x1="-43.367" y1="1017.534" x2="-40.967" y2="1015.134" gradientTransform="matrix(120 0 0 -57 5643.04 57954.422)"><stop offset="0" stop-color="#2ab4a8"/><stop offset="1" stop-color="#1fb0a5"/></linearGradient><path fill="url(#M)" d="M677 0H450l122.4 86.4z"/><linearGradient id="N" gradientUnits="userSpaceOnUse" x1="-49.273" y1="1005.433" x2="-46.873" y2="1003.034" gradientTransform="matrix(72 0 0 -88 3598.18 89397.336)"><stop offset="0" stop-color="#e6f5eb"/><stop offset="1" stop-color="#e2f3ea"/></linearGradient><path fill="url(#N)" d="M207.6 938.4L34.8 1072.8l100.8 76.8z"/><linearGradient id="O" gradientUnits="userSpaceOnUse" x1="-44.331" y1="1005.535" x2="-41.931" y2="1003.135" gradientTransform="matrix(163 0 0 -96 7055.962 97365.469)"><stop offset="0" stop-color="#c7e9df"/><stop offset="1" stop-color="#d8efe6"/></linearGradient><path fill="url(#O)" d="M207.6 938.4L0 887.5v148.6l34.8 36.7z"/><linearGradient id="P" gradientUnits="userSpaceOnUse" x1="-44.558" y1="1006.843" x2="-42.158" y2="1004.443" gradientTransform="matrix(163 0 0 -81 7055.962 82309.453)"><stop offset="0" stop-color="#bde5da"/><stop offset="1" stop-color="#bde5da"/></linearGradient><path fill="url(#P)" d="M0 828.5v59l207.6 50.9z"/><linearGradient id="Q" gradientUnits="userSpaceOnUse" x1="-58.294" y1="1005.917" x2="-55.894" y2="1003.517" gradientTransform="matrix(26 0 0 -67 1980.11 68419.32)"><stop offset="0" stop-color="#e7f5ec"/><stop offset="1" stop-color="#f0f8f0"/></linearGradient><path fill="url(#Q)" d="M457.2 1041.6l44.9 158.4h1l16.5-115.2z"/><linearGradient id="R" gradientUnits="userSpaceOnUse" x1="-53.826" y1="1008.754" x2="-51.426" y2="1006.354" gradientTransform="matrix(32 0 0 -33 2233.075 34430.355)"><stop offset="0" stop-color="#fcfdf5"/><stop offset="1" stop-color="#f8fbf4"/></linearGradient><path fill="url(#R)" d="M506.3 1200h27.5l45.8-50.4z"/><linearGradient id="S" gradientUnits="userSpaceOnUse" x1="-54.386" y1="1006.511" x2="-51.986" y2="1004.111" gradientTransform="matrix(32 0 0 -49 2233.075 50419.36)"><stop offset="0" stop-color="#eef8ef"/><stop offset="1" stop-color="#f6faf3"/></linearGradient><path fill="url(#S)" d="M519.6 1084.8L503.1 1200h3.2l73.3-50.4z"/><linearGradient id="T" gradientUnits="userSpaceOnUse" x1="-41.312" y1="1020.333" x2="-38.911" y2="1017.933" gradientTransform="matrix(88 0 0 -46 4610.043 46988.41)"><stop offset="0" stop-color="#2fb5a9"/><stop offset="1" stop-color="#36b7ab"/></linearGradient><path fill="url(#T)" d="M1177.2 96L966 57.6 1074 168z"/><linearGradient id="U" gradientUnits="userSpaceOnUse" x1="-41.159" y1="1029.472" x2="-38.759" y2="1027.072" gradientTransform="matrix(79 0 0 -30 4304.044 30988.41)"><stop offset="0" stop-color="#3bb9ad"/><stop offset="1" stop-color="#37b7ab"/></linearGradient><path fill="url(#U)" d="M1074 168l126-17.5V108l-22.8-12z"/><linearGradient id="V" gradientUnits="userSpaceOnUse" x1="-41.487" y1="1029.093" x2="-39.087" y2="1026.693" gradientTransform="matrix(40 0 0 -31 2826.027 31977.357)"><stop offset="0" stop-color="#36b7ab"/><stop offset="1" stop-color="#30b5a9"/></linearGradient><path fill="url(#V)" d="M1200 108V89.2l-22.8 6.8z"/><linearGradient id="W" gradientUnits="userSpaceOnUse" x1="-42.466" y1="1018.658" x2="-40.066" y2="1016.259" gradientTransform="matrix(177 0 0 -35 7791.96 36168.473)"><stop offset="0" stop-color="#81cec0"/><stop offset="1" stop-color="#82cec1"/></linearGradient><path fill="url(#W)" d="M272.4 547.2l12 52.8 412.8-84z"/><linearGradient id="X" gradientUnits="userSpaceOnUse" x1="-46.071" y1="1014.994" x2="-43.671" y2="1012.594" gradientTransform="matrix(52 0 0 -47 3094.088 48152.41)"><stop offset="0" stop-color="#73c9bc"/><stop offset="1" stop-color="#7dccbf"/></linearGradient><path fill="url(#X)" d="M822 561.6l-45.6-112.8-79.2 67.2z"/><linearGradient id="Y" gradientUnits="userSpaceOnUse" x1="-41.6" y1="1016.584" x2="-39.2" y2="1014.184" gradientTransform="matrix(88 0 0 -60 4610.043 60958.422)"><stop offset="0" stop-color="#2ab3a8"/><stop offset="1" stop-color="#26b2a7"/></linearGradient><path fill="url(#Y)" d="M1177.2 96l-52.8-96H1038l-72 57.6z"/><linearGradient id="Z" gradientUnits="userSpaceOnUse" x1="-42.29" y1="1010.666" x2="-39.89" y2="1008.267" gradientTransform="matrix(100 0 0 -105 5006.167 105942.46)"><stop offset="0" stop-color="#10aba1"/><stop offset="1" stop-color="#15ada2"/></linearGradient><path fill="url(#Z)" d="M981.4 0h-70L966 57.6z"/><linearGradient id="aa" gradientUnits="userSpaceOnUse" x1="-43.591" y1="1010.09" x2="-41.192" y2="1007.691" gradientTransform="matrix(55 0 0 -105 3323.088 105942.336)"><stop offset="0" stop-color="#21b1a6"/><stop offset="1" stop-color="#10aba1"/></linearGradient><path fill="url(#aa)" d="M1038 0h-56.6L966 57.6z"/><linearGradient id="ab" gradientUnits="userSpaceOnUse" x1="-41.566" y1="1004.908" x2="-39.165" y2="1002.508" gradientTransform="matrix(107 0 0 -57 5310.03 58470.422)"><stop offset="0" stop-color="#fcfdf6"/><stop offset="1" stop-color="#fefbf4"/></linearGradient><path fill="url(#ab)" d="M869.5 1200h21l-22.9-12z"/><linearGradient id="ac" gradientUnits="userSpaceOnUse" x1="-41.133" y1="1004.104" x2="-38.733" y2="1001.704" gradientTransform="matrix(110 0 0 -106 5427.166 107469.46)"><stop offset="0" stop-color="#fafcf5"/><stop offset="1" stop-color="#f4f9f1"/></linearGradient><path fill="url(#ac)" d="M867.6 1188l22.9 12h237.4l3.7-132z"/><linearGradient id="ad" gradientUnits="userSpaceOnUse" x1="-40.905" y1="1003.618" x2="-38.505" y2="1001.218" gradientTransform="matrix(69 0 0 -106 3935.108 107469.336)"><stop offset="0" stop-color="#f0f8f0"/><stop offset="1" stop-color="#fcfbf4"/></linearGradient><path fill="url(#ad)" d="M1127.9 1200h72.1v-70.9l-68.4-61.1z"/><linearGradient id="ae" gradientUnits="userSpaceOnUse" x1="-51.504" y1="1004.932" x2="-49.104" y2="1002.532" gradientTransform="matrix(57 0 0 -88 3055.088 89397.336)"><stop offset="0" stop-color="#ecf7ee"/><stop offset="1" stop-color="#e0f2e9"/></linearGradient><path fill="url(#ae)" d="M272.4 1099.2l-64.8-160.8-72 211.2z"/><linearGradient id="af" gradientUnits="userSpaceOnUse" x1="-52.299" y1="1005.51" x2="-49.899" y2="1003.11" gradientTransform="matrix(48 0 0 -100 2734.089 101376.336)"><stop offset="0" stop-color="#d2ede3"/><stop offset="1" stop-color="#d5efe4"/></linearGradient><path fill="url(#af)" d="M322.8 859.2l-115.2 79.2 64.8 160.8z"/><linearGradient id="ag" gradientUnits="userSpaceOnUse" x1="-47.446" y1="1004.734" x2="-45.046" y2="1002.335" gradientTransform="matrix(77 0 0 -100 3892.169 101376.336)"><stop offset="0" stop-color="#cdebe1"/><stop offset="1" stop-color="#e3f3ea"/></linearGradient><path fill="url(#ag)" d="M272.4 1099.2l184.8-57.6-134.4-182.4z"/><linearGradient id="ah" gradientUnits="userSpaceOnUse" x1="-45.158" y1="1005.907" x2="-42.758" y2="1003.506" gradientTransform="matrix(96 0 0 -67 4633.042 68419.453)"><stop offset="0" stop-color="#e8f5ec"/><stop offset="1" stop-color="#f1f9f1"/></linearGradient><path fill="url(#ah)" d="M272.4 1099.2l225 100.8h4.7l-44.9-158.4z"/><linearGradient id="ai" gradientUnits="userSpaceOnUse" x1="-50.358" y1="1011.594" x2="-47.958" y2="1009.194" gradientTransform="matrix(29 0 0 -70 2229.007 71105.328)"><stop offset="0" stop-color="#57c1b4"/><stop offset="1" stop-color="#62c4b7"/></linearGradient><path fill="url(#ai)" d="M843.6 338.4L774 280.8l2.4 168z"/><linearGradient id="aj" gradientUnits="userSpaceOnUse" x1="-42.928" y1="1008.684" x2="-40.528" y2="1006.284" gradientTransform="matrix(80 0 0 -117 4218.169 118059.344)"><stop offset="0" stop-color="#4dbeb1"/><stop offset="1" stop-color="#45bcaf"/></linearGradient><path fill="url(#aj)" d="M966 57.6L774 280.8l69.6 57.6z"/><linearGradient id="ak" gradientUnits="userSpaceOnUse" x1="-50.218" y1="1009.054" x2="-47.818" y2="1006.654" gradientTransform="matrix(28 0 0 -93 2191.007 94152.336)"><stop offset="0" stop-color="#6ec8bb"/><stop offset="1" stop-color="#6fc8bb"/></linearGradient><path fill="url(#ak)" d="M843.6 338.4l-67.2 110.4L822 561.6z"/><linearGradient id="al" gradientUnits="userSpaceOnUse" x1="-42.367" y1="1008.38" x2="-39.967" y2="1005.981" gradientTransform="matrix(99 0 0 -93 4979.167 94152.469)"><stop offset="0" stop-color="#7accbe"/><stop offset="1" stop-color="#6ac7b9"/></linearGradient><path fill="url(#al)" d="M822 561.6l237.6-84-216-139.2z"/><linearGradient id="am" gradientUnits="userSpaceOnUse" x1="-42.189" y1="1008.327" x2="-39.789" y2="1005.927" gradientTransform="matrix(96 0 0 -117 4871.167 118059.46)"><stop offset="0" stop-color="#37b7ab"/><stop offset="1" stop-color="#49bdb0"/></linearGradient><path fill="url(#am)" d="M1074 168L966 57.6 843.6 338.4z"/><linearGradient id="an" gradientUnits="userSpaceOnUse" x1="-41.684" y1="1007.63" x2="-39.284" y2="1005.23" gradientTransform="matrix(96 0 0 -129 4871.167 130117.398)"><stop offset="0" stop-color="#65c5b8"/><stop offset="1" stop-color="#51bfb2"/></linearGradient><path fill="url(#an)" d="M1059.6 477.6L1074 168 843.6 338.4z"/><linearGradient id="ao" gradientUnits="userSpaceOnUse" x1="-44.161" y1="1016.208" x2="-41.761" y2="1013.808" gradientTransform="matrix(105 0 0 -57 5039.03 58011.422)"><stop offset="0" stop-color="#3fbaae"/><stop offset="1" stop-color="#3cb9ad"/></linearGradient><path fill="url(#ao)" d="M572.4 86.4l-168 96 252 40.8z"/><linearGradient id="ap" gradientUnits="userSpaceOnUse" x1="-45.267" y1="1009.449" x2="-42.867" y2="1007.049" gradientTransform="matrix(69 0 0 -114 3705.108 115011.344)"><stop offset="0" stop-color="#30b6aa"/><stop offset="1" stop-color="#30b5aa"/></linearGradient><path fill="url(#ap)" d="M656.4 223.2L723 0h-46L572.4 86.4z"/><linearGradient id="aq" gradientUnits="userSpaceOnUse" x1="-47.158" y1="1007.725" x2="-44.758" y2="1005.325" gradientTransform="matrix(49 0 0 -138 2960.14 139035.406)"><stop offset="0" stop-color="#2ab3a8"/><stop offset="1" stop-color="#46bcaf"/></linearGradient><path fill="url(#aq)" d="M774 280.8L743.5 0H723l-66.6 223.2z"/><linearGradient id="ar" gradientUnits="userSpaceOnUse" x1="-45.061" y1="1005.392" x2="-42.661" y2="1002.991" gradientTransform="matrix(133 0 0 -196 5958.153 197130.422)"><stop offset="0" stop-color="#62c4b7"/><stop offset="1" stop-color="#3eb9ad"/></linearGradient><path fill="url(#ar)" d="M154.8 38.4L0 478.1v20.5l308.4-292.2z"/><linearGradient id="as" gradientUnits="userSpaceOnUse" x1="-69.763" y1="1022.43" x2="-67.363" y2="1020.03" gradientTransform="matrix(23 0 0 -44 1726.078 44935.36)"><stop offset="0" stop-color="#1cb0a4"/><stop offset="1" stop-color="#26b2a6"/></linearGradient><path fill="url(#as)" d="M183.6 40.8L162.3 0H145l9.8 38.4z"/><linearGradient id="at" gradientUnits="userSpaceOnUse" x1="-49.603" y1="1013.903" x2="-47.203" y2="1011.503" gradientTransform="matrix(64 0 0 -70 3336.077 71004.328)"><stop offset="0" stop-color="#2db4a8"/><stop offset="1" stop-color="#35b7ab"/></linearGradient><path fill="url(#at)" d="M154.8 38.4l153.6 168L183.6 40.8z"/><linearGradient id="au" gradientUnits="userSpaceOnUse" x1="-44.519" y1="1011.721" x2="-42.119" y2="1009.322" gradientTransform="matrix(163 0 0 -97 7033.962 97934.469)"><stop offset="0" stop-color="#0baa9f"/><stop offset="1" stop-color="#1cafa3"/></linearGradient><path fill="url(#au)" d="M145 0H90.3l64.5 38.4z"/><linearGradient id="av" gradientUnits="userSpaceOnUse" x1="-44.311" y1="1004.991" x2="-41.911" y2="1002.591" gradientTransform="matrix(163 0 0 -279 7034.112 280116.313)"><stop offset="0" stop-color="#1aaea3"/><stop offset="1" stop-color="#44bbaf"/></linearGradient><path fill="url(#av)" d="M90.3 0H0v320.1L154.8 38.4z"/><linearGradient id="aw" gradientUnits="userSpaceOnUse" x1="-47" y1="1005.822" x2="-44.6" y2="1003.422" gradientTransform="matrix(100 0 0 -196 4640.167 197130.422)"><stop offset="0" stop-color="#67c6b8"/><stop offset="1" stop-color="#54c0b3"/></linearGradient><path fill="url(#aw)" d="M0 320.1v158L154.8 38.4z"/><linearGradient id="ax" gradientUnits="userSpaceOnUse" x1="-54.431" y1="1006.607" x2="-52.031" y2="1004.207" gradientTransform="matrix(40 0 0 -142 2449.142 143146.406)"><stop offset="0" stop-color="#6cc8ba"/><stop offset="1" stop-color="#4cbeb1"/></linearGradient><path fill="url(#ax)" d="M368.4 213.6l-60-7.2-36 340.8z"/><linearGradient id="ay" gradientUnits="userSpaceOnUse" x1="-53.751" y1="1063.597" x2="-51.351" y2="1061.197" gradientTransform="matrix(40 0 0 -13 2464.027 14007.375)"><stop offset="0" stop-color="#44bbaf"/><stop offset="1" stop-color="#44bbaf"/></linearGradient><path fill="url(#ay)" d="M404.4 182.4l-96 24 60 7.2z"/><linearGradient id="az" gradientUnits="userSpaceOnUse" x1="-40.431" y1="1006.902" x2="-38.031" y2="1004.502" gradientTransform="matrix(70 0 0 -52 3976.983 53415.41)"><stop offset="0" stop-color="#eaf6ee"/><stop offset="1" stop-color="#f0f8f0"/></linearGradient><path fill="url(#az)" d="M1200 1118.8v-45.6l-68.4-5.2z"/><linearGradient id="aA" gradientUnits="userSpaceOnUse" x1="-40.635" y1="1006.022" x2="-38.235" y2="1003.622" gradientTransform="matrix(70 0 0 -59 3976.983 60422.422)"><stop offset="0" stop-color="#edf7ef"/><stop offset="1" stop-color="#f8fbf4"/></linearGradient><path fill="url(#aA)" d="M1200 1129.1v-10.3l-68.4-50.8z"/><linearGradient id="aB" gradientUnits="userSpaceOnUse" x1="-46.215" y1="1015.459" x2="-43.815" y2="1013.059" gradientTransform="matrix(118 0 0 -22 5274.04 23378.422)"><stop offset="0" stop-color="#eaf7ee"/><stop offset="1" stop-color="#e6f5eb"/></linearGradient><path fill="url(#aB)" d="M34.8 1072.8L0 1070.1v7.1z"/><linearGradient id="aC" gradientUnits="userSpaceOnUse" x1="-46.847" y1="1005.404" x2="-44.447" y2="1003.004" gradientTransform="matrix(118 0 0 -96 5274.165 97365.469)"><stop offset="0" stop-color="#cbeae0"/><stop offset="1" stop-color="#e1f3e9"/></linearGradient><path fill="url(#aC)" d="M0 1036.1v34l34.8 2.7z"/><linearGradient id="aD" gradientUnits="userSpaceOnUse" x1="-42.901" y1="1009.621" x2="-40.501" y2="1007.221" gradientTransform="matrix(80 0 0 -60 4214.044 61274.422)"><stop offset="0" stop-color="#b3e1d6"/><stop offset="1" stop-color="#b1e0d5"/></linearGradient><path fill="url(#aD)" d="M939.6 854.4l16.8-144-192 91.2z"/><linearGradient id="aE" gradientUnits="userSpaceOnUse" x1="-43.063" y1="1007.997" x2="-40.663" y2="1005.597" gradientTransform="matrix(67 0 0 -59 3754.077 60333.422)"><stop offset="0" stop-color="#cfece2"/><stop offset="1" stop-color="#cdebe1"/></linearGradient><path fill="url(#aE)" d="M1038 996l-98.4-141.6-62.4 84z"/><linearGradient id="aF" gradientUnits="userSpaceOnUse" x1="-41.322" y1="1009.027" x2="-38.922" y2="1006.626" gradientTransform="matrix(117 0 0 -60 5730.04 61274.422)"><stop offset="0" stop-color="#aaded2"/><stop offset="1" stop-color="#b7e3d8"/></linearGradient><path fill="url(#aF)" d="M939.6 854.4L1200 801v-10.9l-243.6-79.7z"/><linearGradient id="aG" gradientUnits="userSpaceOnUse" x1="-40.792" y1="1006.62" x2="-38.392" y2="1004.221" gradientTransform="matrix(117 0 0 -83 5730.165 84333.46)"><stop offset="0" stop-color="#cfece2"/><stop offset="1" stop-color="#bde5da"/></linearGradient><path fill="url(#aG)" d="M1038 996l162-176.9V801l-260.4 53.4z"/><linearGradient id="aH" gradientUnits="userSpaceOnUse" x1="-43.385" y1="1006.553" x2="-40.984" y2="1004.153" gradientTransform="matrix(146 0 0 -139 6582.964 140146.406)"><stop offset="0" stop-color="#6ec8bb"/><stop offset="1" stop-color="#53bfb3"/></linearGradient><path fill="url(#aH)" d="M368.4 213.6l-96 333.6 350.4-244.8z"/><linearGradient id="aI" gradientUnits="userSpaceOnUse" x1="-42.59" y1="1008.172" x2="-40.19" y2="1005.772" gradientTransform="matrix(177 0 0 -102 7791.96 103146.46)"><stop offset="0" stop-color="#77cbbd"/><stop offset="1" stop-color="#6ac6b9"/></linearGradient><path fill="url(#aI)" d="M622.8 302.4L272.4 547.2 697.2 516z"/><linearGradient id="aJ" gradientUnits="userSpaceOnUse" x1="-44.36" y1="1017.169" x2="-41.96" y2="1014.769" gradientTransform="matrix(106 0 0 -50 5063.03 51044.41)"><stop offset="0" stop-color="#48bcb0"/><stop offset="1" stop-color="#4abdb0"/></linearGradient><path fill="url(#aJ)" d="M622.8 302.4l-218.4-120-36 31.2z"/><linearGradient id="aK" gradientUnits="userSpaceOnUse" x1="-43.823" y1="1017.556" x2="-41.423" y2="1015.156" gradientTransform="matrix(105 0 0 -50 5039.03 51044.41)"><stop offset="0" stop-color="#45bcaf"/><stop offset="1" stop-color="#4cbeb1"/></linearGradient><path fill="url(#aK)" d="M656.4 223.2l-252-40.8 218.4 120z"/><linearGradient id="aL" gradientUnits="userSpaceOnUse" x1="-45.98" y1="1024.45" x2="-43.58" y2="1022.05" gradientTransform="matrix(63 0 0 -33 3492.014 34044.41)"><stop offset="0" stop-color="#4bbdb1"/><stop offset="1" stop-color="#51bfb2"/></linearGradient><path fill="url(#aL)" d="M774 280.8l-117.6-57.6-33.6 79.2z"/><linearGradient id="aM" gradientUnits="userSpaceOnUse" x1="-45.562" y1="1009.216" x2="-43.162" y2="1006.816" gradientTransform="matrix(64 0 0 -89 3531.077 90133.336)"><stop offset="0" stop-color="#72c9bb"/><stop offset="1" stop-color="#64c5b7"/></linearGradient><path fill="url(#aM)" d="M776.4 448.8L622.8 302.4 697.2 516z"/><linearGradient id="aN" gradientUnits="userSpaceOnUse" x1="-44.928" y1="1012.293" x2="-42.528" y2="1009.893" gradientTransform="matrix(64 0 0 -70 3531.077 71105.328)"><stop offset="0" stop-color="#57c1b4"/><stop offset="1" stop-color="#60c3b6"/></linearGradient><path fill="url(#aN)" d="M776.4 448.8l-2.4-168-151.2 21.6z"/><linearGradient id="aO" gradientUnits="userSpaceOnUse" x1="-42.414" y1="1017.111" x2="-40.014" y2="1014.711" gradientTransform="matrix(36 0 0 -60 2637.09 60958.352)"><stop offset="0" stop-color="#1eb0a5"/><stop offset="1" stop-color="#25b2a7"/></linearGradient><path fill="url(#aO)" d="M1182.7 0h-58.3l52.8 96z"/><linearGradient id="aP" gradientUnits="userSpaceOnUse" x1="-41.817" y1="1018.386" x2="-39.417" y2="1015.987" gradientTransform="matrix(40 0 0 -52 2826.09 52958.352)"><stop offset="0" stop-color="#2eb4a8"/><stop offset="1" stop-color="#26b2a7"/></linearGradient><path fill="url(#aP)" d="M1200 89.2V0h-17.3l-5.5 96z"/><linearGradient id="aQ" gradientUnits="userSpaceOnUse" x1="-49.874" y1="1017.798" x2="-47.474" y2="1015.398" gradientTransform="matrix(44 0 0 -25 2702.027 26300.375)"><stop offset="0" stop-color="#c3e8dd"/><stop offset="1" stop-color="#c5e8de"/></linearGradient><path fill="url(#aQ)" d="M610.8 856.8l-105.6 9.6 9.6 50.4z"/><linearGradient id="aR" gradientUnits="userSpaceOnUse" x1="-45.719" y1="1006.097" x2="-43.319" y2="1003.697" gradientTransform="matrix(69 0 0 -85 3681.108 86360.336)"><stop offset="0" stop-color="#ceebe1"/><stop offset="1" stop-color="#d2ede3"/></linearGradient><path fill="url(#aR)" d="M514.8 916.8l165.6 144-69.6-204z"/><linearGradient id="aS" gradientUnits="userSpaceOnUse" x1="-52.457" y1="1006.44" x2="-50.057" y2="1004.04" gradientTransform="matrix(30 0 0 -85 2200.006 86360.336)"><stop offset="0" stop-color="#d9f0e6"/><stop offset="1" stop-color="#c6e9de"/></linearGradient><path fill="url(#aS)" d="M610.8 856.8l69.6 204 2.4-182.4z"/><linearGradient id="aT" gradientUnits="userSpaceOnUse" x1="-45.382" y1="1015.257" x2="-42.981" y2="1012.857" gradientTransform="matrix(64 0 0 -32 3526.014 33284.41)"><stop offset="0" stop-color="#c1e7dc"/><stop offset="1" stop-color="#bbe5da"/></linearGradient><path fill="url(#aT)" d="M682.8 878.4l81.6-76.8-153.6 55.2z"/><linearGradient id="aU" gradientUnits="userSpaceOnUse" x1="-40.784" y1="1007.867" x2="-38.384" y2="1005.467" gradientTransform="matrix(91 0 0 -117 4772.168 118105.344)"><stop offset="0" stop-color="#4bbeb1"/><stop offset="1" stop-color="#62c4b7"/></linearGradient><path fill="url(#aU)" d="M1200 446.2V281.5L1074 168z"/><linearGradient id="aV" gradientUnits="userSpaceOnUse" x1="-40.388" y1="1010.238" x2="-37.988" y2="1007.838" gradientTransform="matrix(91 0 0 -93 4772.168 94070.336)"><stop offset="0" stop-color="#43bbaf"/><stop offset="1" stop-color="#4bbeb1"/></linearGradient><path fill="url(#aV)" d="M1200 281.5v-131L1074 168z"/><linearGradient id="aW" gradientUnits="userSpaceOnUse" x1="-50.88" y1="1006.885" x2="-48.48" y2="1004.485" gradientTransform="matrix(57 0 0 -50 3055.088 51426.41)"><stop offset="0" stop-color="#f4faf2"/><stop offset="1" stop-color="#f4faf2"/></linearGradient><path fill="url(#aW)" d="M135.6 1149.6l55.6 50.4H222l50.4-100.8z"/><linearGradient id="aX" gradientUnits="userSpaceOnUse" x1="-44.745" y1="1006.183" x2="-42.345" y2="1003.784" gradientTransform="matrix(121 0 0 -50 5583.04 51426.41)"><stop offset="0" stop-color="#f1f9f1"/><stop offset="1" stop-color="#fafcf5"/></linearGradient><path fill="url(#aX)" d="M222 1200h275.4l-225-100.8z"/><linearGradient id="aY" gradientUnits="userSpaceOnUse" x1="-58.225" y1="1014.764" x2="-55.825" y2="1012.364" gradientTransform="matrix(34 0 0 -45 2186.09 46180.36)"><stop offset="0" stop-color="#81cec1"/><stop offset="1" stop-color="#8cd2c6"/></linearGradient><path fill="url(#aY)" d="M202.8 520.8l74.4 108 7.2-28.8z"/><linearGradient id="aZ" gradientUnits="userSpaceOnUse" x1="-52.874" y1="1005.038" x2="-50.474" y2="1002.638" gradientTransform="matrix(48 0 0 -129 2734.14 130309.398)"><stop offset="0" stop-color="#c3e7dd"/><stop offset="1" stop-color="#addfd4"/></linearGradient><path fill="url(#aZ)" d="M277.2 628.8l-69.6 309.6 115.2-79.2z"/><linearGradient id="ba" gradientUnits="userSpaceOnUse" x1="-45.51" y1="1006.076" x2="-43.109" y2="1003.676" gradientTransform="matrix(95 0 0 -111 4596.167 112279.406)"><stop offset="0" stop-color="#96d6ca"/><stop offset="1" stop-color="#a7ddd1"/></linearGradient><path fill="url(#ba)" d="M284.4 600l-7.2 28.8 228 237.6z"/><linearGradient id="bb" gradientUnits="userSpaceOnUse" x1="-45.925" y1="1006.11" x2="-43.525" y2="1003.71" gradientTransform="matrix(95 0 0 -99 4596.167 100279.406)"><stop offset="0" stop-color="#b9e4d9"/><stop offset="1" stop-color="#acdfd3"/></linearGradient><path fill="url(#bb)" d="M505.2 866.4l-228-237.6 45.6 230.4z"/><linearGradient id="bc" gradientUnits="userSpaceOnUse" x1="-43.34" y1="1005.708" x2="-40.94" y2="1003.308" gradientTransform="matrix(182 0 0 -129 7806.96 130309.398)"><stop offset="0" stop-color="#acdfd3"/><stop offset="1" stop-color="#b0e0d5"/></linearGradient><path fill="url(#bc)" d="M277.2 628.8L0 701.9v126.6l207.6 109.9z"/><linearGradient id="bd" gradientUnits="userSpaceOnUse" x1="-43.701" y1="1008.039" x2="-41.301" y2="1005.639" gradientTransform="matrix(182 0 0 -87 7806.96 88228.46)"><stop offset="0" stop-color="#9ed9cd"/><stop offset="1" stop-color="#8bd2c5"/></linearGradient><path fill="url(#bd)" d="M0 548.1v153.8l277.2-73.1z"/><linearGradient id="be" gradientUnits="userSpaceOnUse" x1="-44.588" y1="1015.05" x2="-42.188" y2="1012.65" gradientTransform="matrix(134 0 0 -45 5983.038 46180.41)"><stop offset="0" stop-color="#80cec1"/><stop offset="1" stop-color="#85cfc2"/></linearGradient><path fill="url(#be)" d="M202.8 520.8L0 532.6v15.5l277.2 80.7z"/><linearGradient id="bf" gradientUnits="userSpaceOnUse" x1="-60.498" y1="1004.612" x2="-58.098" y2="1002.212" gradientTransform="matrix(32 0 0 -74 2080.006 75471.328)"><stop offset="0" stop-color="#f9fcf4"/><stop offset="1" stop-color="#fefdf5"/></linearGradient><path fill="url(#bf)" d="M157.4 1200h33.8l-55.6-50.4z"/><linearGradient id="bg" gradientUnits="userSpaceOnUse" x1="-44.045" y1="1004.341" x2="-41.701" y2="1001.997" gradientTransform="matrix(164 0 0 -79 7095.962 80481.453)"><stop offset="0" stop-color="#fefaf3"/><stop offset="1" stop-color="#fbfbf4"/></linearGradient><path fill="url(#bg)" d="M0 1200h.4l-.4-.2z"/><linearGradient id="bh" gradientUnits="userSpaceOnUse" x1="-45.664" y1="1004.751" x2="-43.264" y2="1002.351" gradientTransform="matrix(115 0 0 -74 5234.04 75471.453)"><stop offset="0" stop-color="#f8fcf4"/><stop offset="1" stop-color="#fafbf3"/></linearGradient><path fill="url(#bh)" d="M0 1157.8v42l.4.2h157l-21.8-50.4z"/><linearGradient id="bi" gradientUnits="userSpaceOnUse" x1="-44.08" y1="1012.62" x2="-41.68" y2="1010.22" gradientTransform="matrix(78 0 0 -38 4102.044 39290.41)"><stop offset="0" stop-color="#c2e7dd"/><stop offset="1" stop-color="#bfe6db"/></linearGradient><path fill="url(#bi)" d="M870 892.8l-105.6-91.2-81.6 76.8z"/><linearGradient id="bj" gradientUnits="userSpaceOnUse" x1="-43.224" y1="1017.674" x2="-40.824" y2="1015.274" gradientTransform="matrix(81 0 0 -25 4219.044 26309.406)"><stop offset="0" stop-color="#c6e9df"/><stop offset="1" stop-color="#cbeae0"/></linearGradient><path fill="url(#bj)" d="M877.2 938.4l-7.2-45.6-187.2-14.4z"/><linearGradient id="bk" gradientUnits="userSpaceOnUse" x1="-43.501" y1="1012.878" x2="-41.101" y2="1010.478" gradientTransform="matrix(73 0 0 -38 3941.045 39290.41)"><stop offset="0" stop-color="#b9e4d9"/><stop offset="1" stop-color="#c1e7dc"/></linearGradient><path fill="url(#bk)" d="M870 892.8l69.6-38.4-175.2-52.8z"/><linearGradient id="bl" gradientUnits="userSpaceOnUse" x1="-48.182" y1="1013.061" x2="-45.782" y2="1010.661" gradientTransform="matrix(29 0 0 -35 2269.075 36309.36)"><stop offset="0" stop-color="#cceae1"/><stop offset="1" stop-color="#c5e8dd"/></linearGradient><path fill="url(#bl)" d="M877.2 938.4l62.4-84-69.6 38.4z"/><linearGradient id="bm" gradientUnits="userSpaceOnUse" x1="-45.773" y1="1005.532" x2="-43.373" y2="1003.132" gradientTransform="matrix(64 0 0 -67 3513.077 68427.32)"><stop offset="0" stop-color="#f3faf2"/><stop offset="1" stop-color="#f1f9f1"/></linearGradient><path fill="url(#bm)" d="M579.6 1149.6l107.5 50.4h39l-45.7-139.2z"/><linearGradient id="bn" gradientUnits="userSpaceOnUse" x1="-45.747" y1="1006.721" x2="-43.347" y2="1004.321" gradientTransform="matrix(64 0 0 -44 3513.077 45441.41)"><stop offset="0" stop-color="#f8fbf3"/><stop offset="1" stop-color="#fdfdf5"/></linearGradient><path fill="url(#bn)" d="M641.5 1200h45.6l-107.5-50.4z"/><linearGradient id="bo" gradientUnits="userSpaceOnUse" x1="-44.102" y1="1005.223" x2="-41.702" y2="1002.823" gradientTransform="matrix(78 0 0 -67 4101.044 68427.32)"><stop offset="0" stop-color="#ecf7ef"/><stop offset="1" stop-color="#f9fcf5"/></linearGradient><path fill="url(#bo)" d="M680.4 1060.8l45.7 139.2h93.5l48-12z"/><linearGradient id="bp" gradientUnits="userSpaceOnUse" x1="-44.275" y1="1005.515" x2="-41.874" y2="1003.115" gradientTransform="matrix(56 0 0 -63 3265.088 64476.32)"><stop offset="0" stop-color="#fefcf4"/><stop offset="1" stop-color="#fcfef6"/></linearGradient><path fill="url(#bp)" d="M819.6 1200h41.7l6.3-12z"/><linearGradient id="bq" gradientUnits="userSpaceOnUse" x1="-42.166" y1="1006.323" x2="-39.766" y2="1003.923" gradientTransform="matrix(181 0 0 -111 7952.96 112279.46)"><stop offset="0" stop-color="#96d6ca"/><stop offset="1" stop-color="#a8ddd1"/></linearGradient><path fill="url(#bq)" d="M284.4 600l220.8 266.4 213.6-220.8z"/><linearGradient id="br" gradientUnits="userSpaceOnUse" x1="-42.187" y1="1012.616" x2="-39.786" y2="1010.216" gradientTransform="matrix(181 0 0 -54 7952.96 55187.484)"><stop offset="0" stop-color="#8ad1c5"/><stop offset="1" stop-color="#88d0c4"/></linearGradient><path fill="url(#br)" d="M697.2 516l-412.8 84 434.4 45.6z"/><linearGradient id="bs" gradientUnits="userSpaceOnUse" x1="-44.404" y1="1006.888" x2="-42.004" y2="1004.488" gradientTransform="matrix(89 0 0 -92 4457.168 93279.336)"><stop offset="0" stop-color="#bae5d9"/><stop offset="1" stop-color="#addfd3"/></linearGradient><path fill="url(#bs)" d="M718.8 645.6L505.2 866.4l105.6-9.6z"/><linearGradient id="bt" gradientUnits="userSpaceOnUse" x1="-45.731" y1="1006.98" x2="-43.331" y2="1004.58" gradientTransform="matrix(64 0 0 -88 3526.077 89275.336)"><stop offset="0" stop-color="#b7e3d8"/><stop offset="1" stop-color="#a8ddd1"/></linearGradient><path fill="url(#bt)" d="M610.8 856.8l153.6-55.2-45.6-156z"/><linearGradient id="bu" gradientUnits="userSpaceOnUse" x1="-46.201" y1="1012.326" x2="-43.801" y2="1009.926" gradientTransform="matrix(52 0 0 -54 3094.088 55187.414)"><stop offset="0" stop-color="#80cec1"/><stop offset="1" stop-color="#8ad2c5"/></linearGradient><path fill="url(#bu)" d="M718.8 645.6l103.2-84L697.2 516z"/><linearGradient id="bv" gradientUnits="userSpaceOnUse" x1="-45.095" y1="1022.334" x2="-42.695" y2="1019.934" gradientTransform="matrix(123 0 0 -44 5626.04 44935.41)"><stop offset="0" stop-color="#1bafa4"/><stop offset="1" stop-color="#22b1a6"/></linearGradient><path fill="url(#bv)" d="M353.6 0H162.3l21.3 40.8z"/><linearGradient id="bw" gradientUnits="userSpaceOnUse" x1="-45.44" y1="1011.226" x2="-43.039" y2="1008.826" gradientTransform="matrix(100 0 0 -93 4752.167 94004.469)"><stop offset="0" stop-color="#2cb4a8"/><stop offset="1" stop-color="#31b5aa"/></linearGradient><path fill="url(#bw)" d="M308.4 206.4L414.9 0h-61.3l-170 40.8z"/><linearGradient id="bx" gradientUnits="userSpaceOnUse" x1="-51.465" y1="1010.928" x2="-49.065" y2="1008.528" gradientTransform="matrix(48 0 0 -93 2776.089 94004.336)"><stop offset="0" stop-color="#3eb9ad"/><stop offset="1" stop-color="#32b6aa"/></linearGradient><path fill="url(#bx)" d="M404.4 182.4L422 0h-7.1L308.4 206.4z"/><linearGradient id="by" gradientUnits="userSpaceOnUse" x1="-67.457" y1="1012.132" x2="-65.057" y2="1009.732" gradientTransform="matrix(19 0 0 -83 1685.11 83994.336)"><stop offset="0" stop-color="#36b7ab"/><stop offset="1" stop-color="#23b1a6"/></linearGradient><path fill="url(#by)" d="M450 0h-28l-17.6 182.4z"/><linearGradient id="bz" gradientUnits="userSpaceOnUse" x1="-44.846" y1="1008.372" x2="-42.446" y2="1005.972" gradientTransform="matrix(59 0 0 -78 3376.087 79252.328)"><stop offset="0" stop-color="#99d7cb"/><stop offset="1" stop-color="#a0dace"/></linearGradient><path fill="url(#bz)" d="M764.4 801.6l96-187.2-141.6 31.2z"/><linearGradient id="bA" gradientUnits="userSpaceOnUse" x1="-45.2" y1="1017.718" x2="-42.8" y2="1015.318" gradientTransform="matrix(59 0 0 -35 3376.015 36187.41)"><stop offset="0" stop-color="#91d4c7"/><stop offset="1" stop-color="#8ad2c4"/></linearGradient><path fill="url(#bA)" d="M860.4 614.4L822 561.6l-103.2 84z"/><linearGradient id="bB" gradientUnits="userSpaceOnUse" x1="-43.42" y1="1007.878" x2="-41.02" y2="1005.478" gradientTransform="matrix(80 0 0 -78 4214.044 79252.328)"><stop offset="0" stop-color="#abded3"/><stop offset="1" stop-color="#9cd8cc"/></linearGradient><path fill="url(#bB)" d="M764.4 801.6l192-91.2-96-96z"/><linearGradient id="bC" gradientUnits="userSpaceOnUse" x1="-42.255" y1="1023.251" x2="-39.855" y2="1020.851" gradientTransform="matrix(88 0 0 -27 4550.043 28174.418)"><stop offset="0" stop-color="#85d0c3"/><stop offset="1" stop-color="#87d1c3"/></linearGradient><path fill="url(#bC)" d="M1033.2 549.6l-211.2 12 38.4 52.8z"/><linearGradient id="bD" gradientUnits="userSpaceOnUse" x1="-42.374" y1="1010.986" x2="-39.975" y2="1008.586" gradientTransform="matrix(74 0 0 -61 4020.045 62214.32)"><stop offset="0" stop-color="#9ad8cb"/><stop offset="1" stop-color="#8cd2c5"/></linearGradient><path fill="url(#bD)" d="M956.4 710.4L1038 564l-177.6 50.4z"/><linearGradient id="bE" gradientUnits="userSpaceOnUse" x1="-42.713" y1="1023.124" x2="-40.313" y2="1020.724" gradientTransform="matrix(74 0 0 -27 4020.045 28174.42)"><stop offset="0" stop-color="#84cfc2"/><stop offset="1" stop-color="#88d1c4"/></linearGradient><path fill="url(#bE)" d="M860.4 614.4L1038 564l-4.8-14.4z"/></svg>