<svg xmlns="http://www.w3.org/2000/svg" viewBox="0 0 1478 363"><path fill="#FFF" d="M1121.8 334.7h-2.5c.6 1.4 1.2 2.8 2 4.1.1-1.4.3-2.7.5-4.1zm6.8-.1c-2 0-4 .1-5.9.1-.2 1.4-.4 2.9-.5 4.4h4.7c.4-1.6 1-3.1 1.7-4.5zm7.6-.1c-2.2 0-4.5.1-6.7.1l-.3.6c-.5 1.3-1.1 2.5-1.5 3.8h6c.8-1.5 1.6-3.1 2.5-4.5zm9.5-.2l-8.6.1c-.9 1.5-1.7 3-2.5 4.6h7.5c1.2-1.6 2.4-3.1 3.6-4.7zm10-.1c-3 0-6 .1-9.1.1-1.2 1.6-2.4 3.1-3.6 4.7h8.4c1.4-1.7 2.8-3.3 4.3-4.8zm9 3.5c1.5-1.1 2.9-2.3 4.1-3.7-4 0-7.9.1-11.9.1l-3 3.3-1.2 1.5h10.2l1.8-1.2zm15.6-3.7H1170c-1.5 1.6-3.1 3.1-4.9 4.4l-.7.5h10.4c1.7-1.7 3.6-3.3 5.5-4.9zm11.6 3c1.8-1.1 3.7-2.1 5.5-3.1-5.3 0-10.6.1-15.9.1-1.9 1.6-3.8 3.3-5.6 5h12.8c1.1-.8 2.1-1.4 3.2-2zm16.8.1c2.3-1.1 4.6-2.1 6.9-3.4-5.5 0-11 0-16.5.1-2.9 1.8-5.9 3.3-8.8 5.1h14.8c1.1-.6 2.4-1.2 3.6-1.8zm24.7-3.4h-16.3c-.9.6-1.9 1.1-2.8 1.6-2.4 1.2-4.9 2.3-7.4 3.5h16.8c3.2-1.6 6.5-3.3 9.7-5.1zm13.9 5.2c3.9-1.6 7.7-3.3 11.5-5.1h-23.6c-.1.1-.3.2-.4.2-3.1 1.7-6.2 3.3-9.3 4.9h21.8zm61.2-4.8c-7.6-.1-15.2-.1-22.8-.2-1.6.7-3.2 1.4-4.8 2-2.6 1-5.1 2-7.7 3h24c3.8-1.5 7.6-3.1 11.3-4.8zm41.2.6c-5.3-.1-10.7-.2-16-.2-2.7 1.6-5.5 3.1-8.3 4.6 6.2 0 12.4 0 18.6.1l5.7-4.5zm14.7.2c-4.5-.1-9-.2-13.5-.2-1.8 1.5-3.7 3-5.6 4.4 4.8 0 9.7 0 14.5.1 1.6-1.4 3.2-2.8 4.6-4.3zm16.6.3c-1.2 0-2.5-.1-3.7-.1-1 1.4-2.1 2.7-3.3 4h5.3c.7-1.2 1.2-2.5 1.7-3.9zm-4.8-.1l-10.7-.2c-1.4 1.4-2.9 2.8-4.4 4.1h11.7c1.2-1.2 2.4-2.5 3.4-3.9zm-44-.7l-21.6-.3c-1.4.6-2.9 1.2-4.3 1.9-2.3 1-4.6 2-6.9 2.9 8 0 16 0 24 .1 3-1.4 5.9-3 8.8-4.6zm-52.9 1.3c1.4-.6 2.9-1.2 4.3-1.8-7.7-.1-15.3-.1-23-.1-1.6.8-3.3 1.6-4.9 2.3-2.1.9-4.2 1.9-6.3 2.8h21.6c2.8-1.1 5.5-2.1 8.3-3.2zm-161.5-7h-.2c.1.3.1.6.2.9v-.9zm5.1-.2c-1.4.1-2.9.1-4.3.2-.1 1.3-.1 2.6 0 3.9.1.4.2.8.4 1.1l3-.1c.2-1.7.5-3.4.9-5.1zm-.1 5.1c2.1-.1 4.2-.1 6.3-.1v-.1c.8-1.8 1.6-3.5 2.4-5.3l-7.6.3c-.5 1.8-.9 3.5-1.1 5.2zm27.6-6c-3 .1-6.1.2-9.1.3-1.2 1.8-2.4 3.6-3.5 5.5 2.9-.1 5.9-.1 8.8-.1 1.3-1.9 2.6-3.8 3.8-5.7zm7.5 4.4c1.6-1.6 3.3-3.1 4.9-4.7l-11.3.3c-.1.1-.2.3-.3.4-1.1 1.8-2.4 3.5-3.7 5.2 3.1-.1 6.2-.1 9.3-.1l1.1-1.1zm16.3-3.7l1.3-1.3c-3.9.1-7.8.1-11.7.2-1 1.1-2.1 2.1-3.2 3.2-.9.9-1.8 1.7-2.7 2.6 4-.1 7.9-.1 11.9-.1 1.6-1.5 2.9-3.1 4.4-4.6zm15-1.5c-4.1.1-8.2.1-12.4.2-1.4 1.3-2.8 2.6-4.1 4-.6.6-1.2 1.3-1.8 1.9 3.5 0 7.1-.1 10.6-.1 2.7-2.1 5.2-4 7.7-6zm14.8 2.6c1.3-1 2.7-1.9 4.1-2.8-5.8.1-11.7.1-17.5.2-2.6 2-5.1 3.9-7.6 6 5.5-.1 10.9-.1 16.4-.1 1.6-1.1 3.1-2.2 4.6-3.3zm18.7-.4c1.3-.9 2.7-1.7 4-2.5-5.7 0-11.4.1-17.1.1-2.9 1.9-5.7 4.1-8.6 6.1 5.5 0 11-.1 16.5-.1 1.7-1.2 3.4-2.5 5.2-3.6zm21-.9c1-.6 2.1-1.1 3.1-1.7h-18.5c-1.6 1-3.2 1.9-4.8 2.9s-3.1 2.1-4.6 3.1h16.8c2.7-1.3 5.4-2.8 8-4.3zm18.7 3.9c3.6-1.8 7.4-3.4 11.2-4.8.5-.2 1-.4 1.5-.5-8.9-.1-17.7-.2-26.6-.2l-11.1 6c8 0 15.9 0 23.9.1.4-.2.8-.4 1.1-.6zm35.9-4.9c-7-.1-14-.3-21.1-.4-3.2 1.3-6.6 2.2-9.8 3.7-1.5.7-2.9 1.4-4.4 2.1 7.7 0 15.5.1 23.2.2 4.1-1.7 8.1-3.6 12.1-5.6zm16.9 4.1c2.6-1.2 5.2-2.3 7.7-3.5-7.6-.2-15.2-.4-22.8-.5-3.9 2-7.8 3.9-11.7 5.6 7.6.1 15.1.1 22.7.2 1.3-.6 2.7-1.2 4.1-1.8zm26.8-3c-5.7-.2-11.3-.4-17-.5-3.9 1.9-7.8 3.6-11.8 5.3l20.8.3c2.7-1.6 5.4-3.3 8-5.1zm14.5.5c-4.4-.2-8.8-.3-13.2-.5-.1.1-.3.2-.4.3-2.4 1.6-4.9 3.3-7.5 4.8l15.5.3c1.9-1.6 3.8-3.2 5.6-4.9zm13.1.5c-4-.2-8-.3-11.9-.5-1.8 1.6-3.7 3.3-5.5 4.9l13.2.3c1.4-1.5 2.9-3 4.2-4.7zm10.5.5c-3.2-.1-6.3-.3-9.4-.4-1.3 1.6-2.7 3.2-4.2 4.7 3.5.1 7 .2 10.4.2 1.1-1.5 2.2-3 3.2-4.5zm2.2.1c-.4 0-.9 0-1.3-.1-1 1.6-2 3.1-3.1 4.5 1.1 0 2.2.1 3.3.1.5-1.4.8-2.8 1.1-4.5zm-242-1.9c-2.7.1-5.3.2-8 .3-.8 1.8-1.6 3.6-2.4 5.3l6.9-.1c1.1-1.9 2.3-3.7 3.5-5.5zm14.4-33c4.4-.4 8.7-.8 13.1-1.1 1.3-1.3 2.7-2.7 4.1-3.9 2-1.9 4-3.6 6.1-5.4-4.7.4-9.3.8-14 1.2-3.2 2.9-6.3 6-9.3 9.2zm14.4-1.2c4.5-.4 9.1-.7 13.6-.9 3.4-3.2 7-6.4 10.6-9.3-4.7.3-9.3.6-14 .9-3.5 2.9-6.9 6-10.2 9.3zm179.8-3c-4.7-.7-9.4-1.3-14.2-2-2.5 2.6-5.1 5-8 7.1 5.1.5 10.3 1.1 15.4 1.7 2.4-2.1 4.7-4.4 6.8-6.8zm21.3 10.5c2.9.4 5.8.9 8.6 1.3-1.9-2.3-4.1-4.3-6.5-6-.4 1.2-1 2.4-1.5 3.6l-.6 1.1zm-9.2-1.3l8.4 1.2c.9-1.6 1.6-3.3 2.2-5.1-1.2-.8-2.5-1.6-3.9-2.4l-1.8-.3c-.4.7-.8 1.5-1.3 2.1-1.1 1.7-2.3 3.2-3.6 4.5zm-17.8-2.3l16.8 2.1c1.2-1.3 2.4-2.6 3.4-4 .6-.8 1.1-1.7 1.6-2.6-5-.8-10.1-1.7-15.2-2.4-2 2.6-4.2 4.8-6.6 6.9zm-38.7-3.7c7 .5 14 1.2 21 1.9 2.9-2.2 5.6-4.5 8.2-7.1-6.5-.8-13-1.6-19.5-2.3-3.3 2.5-6.4 5-9.7 7.5zm-21.6-1.5c6.8.4 13.6.8 20.3 1.3 1.5-1.1 2.9-2.2 4.3-3.3 1.8-1.4 3.6-2.9 5.4-4.3-5.7-.6-11.3-1.1-17-1.5-4.3 2.6-8.7 5.3-13 7.8zm-19-1.9l-1.6 1.1c6.3.2 12.7.4 19.1.8l6.6-3.9c2.2-1.3 4.3-2.6 6.5-3.9-6.3-.5-12.5-.9-18.8-1.2-4.1 2.2-8 4.7-11.8 7.1zm-16.1-3.9c-2.9 1.4-5.8 3-8.6 4.6 7.1 0 14.3.2 21.4.4 2.6-1.7 5.3-3.4 8-5 1.8-1.1 3.6-2.2 5.5-3.3-5.8-.3-11.5-.5-17.3-.7-3 1.2-6 2.5-9 4zm-13.6-4.4c-1.2.6-2.4 1.2-3.5 1.9-3.6 2.2-7.2 4.6-10.6 7.1 5-.1 9.9-.1 14.9-.1h2.6c5.5-3.3 11.2-6.2 17.2-8.7-6.6-.2-13.2-.3-19.7-.3l-.9.1zm-34.5 9.7c6.3-.2 12.7-.4 19-.6 4.2-3.2 8.6-6.2 13.2-8.8.2-.1.3-.2.5-.2-6.8 0-13.6.1-20.5.4-4.2 2.7-8.3 5.9-12.2 9.2zm-15.7.8c4.8-.3 9.6-.5 14.3-.7 3.2-2.7 6.4-5.3 9.8-7.7.8-.5 1.5-1.1 2.3-1.6-5.2.2-10.5.4-15.7.7-3.7 2.9-7.2 6-10.7 9.3zm-44.8 3.8c4.8-.5 9.5-1 14.3-1.5 2.9-3.2 6-6.3 9.1-9.2-5.3.5-10.6 1.1-15.9 1.8-2.6 2.8-5.1 5.8-7.5 8.9zm-1.1.1c2.3-3.1 4.8-6.1 7.4-8.9-4 .5-8 1-12 1.6-.2.1-.3.2-.5.3-2.1 2.6-4.1 5.4-5.8 8.3 3.7-.4 7.3-.8 10.9-1.3zm-7.2-5.6c-3 2.1-5.6 4.6-7.9 7.5 1.1-.1 2.1-.3 3.2-.4 1.4-2.5 3-4.8 4.7-7.1zm-12.3 29.6l-1.8.1c0 2.4.2 4.7.6 7h.4c.2-2.4.5-4.8.8-7.1zm.5 2.9c-.2 1.3-.3 2.7-.4 4.1l4.5-.2c.6-2.5 1.3-4.9 2.2-7.3-2 .1-3.9.2-5.9.4-.2 1-.3 2-.4 3zm4.9 3.9l7.9-.3c.7-1.5 1.4-3.1 2.1-4.6l1.5-3-9.3.6c-.8 2.4-1.6 4.8-2.2 7.3zm10.1-3.1c-.4.9-.9 1.9-1.3 2.8 2.8-.1 5.5-.2 8.3-.3.4-.6.8-1.2 1.3-1.8 1.4-2 2.9-4 4.4-6-3.4.2-6.9.3-10.3.5-.9 1.6-1.7 3.2-2.4 4.8zm18.9-.3c1.5-1.9 3-3.7 4.6-5.5-3.3.1-6.6.3-9.9.4-1.9 2.6-3.9 5.2-5.7 7.9 3-.1 6.1-.2 9.1-.3.7-.9 1.3-1.7 1.9-2.5zm11.3 1.7c2.5-2.6 4.9-5.2 7.4-7.8-4.3.1-8.7.3-13 .5-2.3 2.5-4.5 5.2-6.5 8.1l11.7-.3c.1-.2.3-.3.4-.5zm30.2-2.9c2.5-1.9 4.9-3.8 7.4-5.7l-13.8.3c-2 1.7-4 3.5-6.1 5.2-1.3 1.1-2.5 2.1-3.8 3.2 4.2-.1 8.4-.2 12.6-.2 1.3-1 2.5-1.9 3.7-2.8zm20.3-.7c2.6-1.7 5.1-3.5 7.6-5.3-6.3 0-12.7.1-19 .2-3.7 2.9-7.4 5.7-11.2 8.5 5.9-.1 11.8-.2 17.7-.2 1.6-1 3.3-2.1 4.9-3.2zm18.6.4c3-1.8 5.9-3.7 8.8-5.7h-18.4c-1.2.8-2.3 1.6-3.5 2.5-2.9 2.1-5.9 4.1-8.9 6.1 5.8-.1 11.5-.1 17.3-.1 1.6-1 3.1-1.9 4.7-2.8zm15.7 2.8c5.5-2.9 11-5.6 16.6-8.3-7.3-.1-14.6-.2-21.9-.2-3.2 2.1-6.3 4.1-9.5 6.1-1.3.8-2.6 1.6-3.9 2.3h5.4c4.4 0 8.9.1 13.3.1zm52.7 0c4.3-2.2 8.5-4.5 12.7-6.9-7.7-.3-15.4-.6-23.2-.8-.8.5-1.5 1-2.2 1.5-3 2.1-9.7 6.4-9.7 6.4 6.9.1 14.2.3 21.1.4.4-.2.9-.4 1.3-.6zm35.1-5.5c.1-.1.3-.2.4-.3-7.1-.4-14.2-.7-21.3-1-4.4 2.6-8.8 5-13.3 7.3-.1.1-.3.1-.4.2 7.6.2 15.2.4 22.9.6 4-2 7.9-4.2 11.7-6.8zm11.6 3.7c1.3-1 2.7-2.1 4-3.2-4.6-.3-9.2-.5-13.8-.8-2.9 2.1-5.9 4-9 5.7-.9.5-1.8.9-2.7 1.4 5.5.2 10.9.4 16.4.6 1.8-1.2 3.4-2.4 5.1-3.7zm17.5-2.3c-1.8 1.7-3.6 3.3-5.4 4.9-.6.5-1.2 1.1-1.8 1.6 3.9.1 7.7.3 11.6.5 1.7-2.1 3.2-4.2 4.7-6.4-3-.1-6.1-.4-9.1-.6zm17 5.2c-.4.8-.9 1.6-1.4 2.4h.9c.2-.7.3-1.5.5-2.4zm.5-2.8c.1-.4.1-.7.2-1.1-2.5-.2-5.1-.4-7.6-.6-1.5 2.2-3 4.3-4.7 6.4 3.1.1 6.2.3 9.3.4 1-1.6 1.9-3.3 2.8-5v-.1zm-23.5 2c1.6-1.4 3.2-2.9 4.8-4.4-3.7-.2-7.4-.5-11.1-.7-2.9 2.4-5.9 4.7-9 6.8 4.3.2 8.6.3 12.8.5l2.5-2.2zm-69.9-8c-7.5-.2-15-.4-22.5-.5-3.2 1.6-6.4 3-9.6 4.6-2.4 1.2-4.8 2.4-7.2 3.7 9.1 0 17.4.1 26.5.2.1-.1 0-.1-.2-.1 2.4-1.3 4.8-2.8 7-4.4 1.7-1.4 4.1-2.3 6-3.5zm-106.3 2.4c1-.8 2-1.7 3-2.5-4.6.1-9.2.3-13.8.4-2.6 2.8-5.3 5.5-7.9 8.3l11.8-.3c2.2-2.1 4.6-4 6.9-5.9zm-32.7-37.9c-5.2 1.4-10.3 3.3-15.1 5.8 3.5-.5 7.1-1 10.7-1.4 1.4-1.5 2.9-3 4.4-4.4zm-3.1 4.2c5.4-.7 10.7-1.3 16.1-1.8 2.5-2.2 5.1-4.4 7.8-6.4-6.4.7-12.8 1.9-19.1 3.5-1.6 1.5-3.3 3.1-4.8 4.7zm31.5-3.2c2.7-2.2 5.4-4.4 8.1-6.4-4.9.3-9.6.7-14.1 1.2-2.8 2-5.5 4.2-8.1 6.5 4.7-.5 9.4-.9 14.1-1.3zm15.4-1c2.6-2.1 5.3-4.1 8.1-6-4.7.1-9.4.2-13.9.5-2.8 2.1-5.5 4.2-8.2 6.4 4.7-.3 9.4-.6 14-.9zm1.5-.1c5.3-.3 10.6-.5 15.9-.7 1.9-1.2 3.8-2.4 5.8-3.5 1-.6 2-1.1 3.1-1.7-3.6-.1-7.1-.1-10.5-.1h-6.1c-.8.5-1.5 1-2.3 1.5-2 1.6-4 3.1-5.9 4.5zm17.5-.7c6.9-.2 13.9-.3 20.8-.3 3.2-1.5 6.4-2.9 9.7-4.1-7.1-.3-14.2-.6-21.1-.7-1.1.4-2.2.9-3.2 1.4-2.1 1.2-4.2 2.4-6.2 3.7zm150.8 10.9c-4-1.9-8.2-3.4-12.4-4.6-.6.8-1.1 1.6-1.7 2.3 4.7.7 9.4 1.5 14.1 2.3zm-15-2.4l1.8-2.4c-4.1-1.2-8.5-2.2-13.1-3.1-.9 1.2-1.8 2.4-2.8 3.5 4.7.6 9.4 1.3 14.1 2zm-15.1-2.2c1-1.1 2-2.3 2.9-3.5-5.5-1-11.2-1.9-17.2-2.6-1.7 1.2-3.3 2.5-4.9 3.8 6.4.7 12.8 1.5 19.2 2.3zm-20.4-2.4c1.6-1.3 3.2-2.6 4.9-3.8-4.8-.6-9.8-1-14.9-1.4l-6.6 3.6c5.6.5 11.1 1 16.6 1.6zm-18-1.7c2.1-1.2 4.3-2.5 6.5-3.6-5.8-.4-11.8-.8-17.7-1.1-2.5 1-4.9 2.2-7.3 3.4 6.1.4 12.3.8 18.5 1.3zm-20.1-1.3c2.3-1.2 4.6-2.4 7-3.5-4.5-.2-9-.4-13.4-.6-3.3 1-6.7 2.1-9.9 3.4 5.4.1 10.8.4 16.3.7zm-18.5-.8c3.2-1.2 6.4-2.4 9.7-3.4-5.7-.2-11.3-.5-16.8-.8l-3.8-.2c-3.4 1.2-6.7 2.5-10 4 7 0 13.9.2 20.9.4zm-132.5 18.7c.2-.3.3-.6.5-.9-1.1.1-2.3.3-3.4.4-1.1 1.6-2 3.3-2.8 5.1 1.2-.1 2.5-.3 3.7-.4.7-1.4 1.3-2.8 2-4.2zm-.9 3.7c-.1.1-.1.2-.2.4 3.2-.4 6.4-.7 9.6-1 1.1-1.8 2.3-3.6 3.6-5.3-3.5.4-7.1.8-10.6 1.3-.8 1.4-1.6 3-2.4 4.6zm10.5-.8c4.3-.4 8.7-.9 13-1.2 1.5-1.9 3.1-3.7 4.7-5.6-4.7.4-9.4.9-14.1 1.4-1.2 1.8-2.5 3.6-3.6 5.4zm14.2-1.3c4.2-.4 8.3-.7 12.5-1 1.7-1.9 3.5-3.8 5.3-5.7-4.3.3-8.7.7-13 1.1-1.7 1.8-3.3 3.7-4.8 5.6zm13.5-1.1c4.4-.3 8.7-.6 13.1-.9l1.5-1.5c1.5-1.4 2.9-2.9 4.4-4.3-4.5.3-9.1.6-13.6.9-1.8 2-3.6 3.9-5.4 5.8zm14.3-.9c4.6-.3 9.2-.5 13.8-.7 2.1-2 4.2-3.9 6.3-5.8-4.7.2-9.5.4-14.2.7-1.9 1.9-3.9 3.8-5.9 5.8zm15.2-.8c6-.2 12-.5 18-.6.9-.7 1.8-1.5 2.8-2.2 1.5-1.2 2.9-2.4 4.4-3.5-6.3.1-12.6.3-18.8.6-2.2 1.8-4.3 3.7-6.4 5.7zm26.6-6.4l-7.2 5.7c5.2-.1 10.4-.2 15.6-.2 2.4-1.6 4.8-3.2 7.3-4.8.5-.3.9-.6 1.4-.9h-.4c-5.6.1-11.1.1-16.7.2zm163.7 15.8c-.6-1.4-1.3-2.7-2.2-4-.7 1.1-1.4 2.3-2.1 3.4 1.4.2 2.9.4 4.3.6zm-15.1-2c3.3.4 6.6.8 9.9 1.3.9-1.3 1.7-2.6 2.5-3.9-3.3-.5-6.5-1-9.8-1.5-.8 1.4-1.7 2.7-2.6 4.1zm-7-5.5c-.9 1-1.9 1.9-2.8 2.8l-1.3 1.3c3.4.4 6.9.8 10.3 1.2.9-1.3 1.8-2.7 2.6-4.1-3-.4-5.9-.8-8.8-1.2zm-19.7-.7c-1.1 1-2.2 1.9-3.3 2.9 5.9.6 11.8 1.2 17.8 1.9.2-.1.3-.3.4-.4 1.2-1.2 2.6-2.4 3.8-3.7-5.7-.8-11.3-1.5-17-2.1-.5.4-1.1.9-1.7 1.4zm.6-1.6c-5.2-.6-10.4-1.1-15.6-1.6-1.8 1.4-3.7 2.6-5.5 3.9-.3.2-.7.4-1 .7 5.8.5 11.5 1 17.2 1.5 1.3-1.2 2.7-2.4 4.1-3.6.3-.4.6-.7.8-.9zm-40.9-1.5c-1.5 1-3 1.9-4.6 2.8 7.4.4 14.8.9 22.2 1.5 2.2-1.5 4.4-3 6.5-4.6-7-.7-14.1-1.3-21.1-1.8l-3 2.1zm-22.1-1.8c-2 1.1-4 2.2-6 3.4 7.4.3 14.7.6 22.1 1l3.6-2.1c1.4-.9 2.8-1.8 4.1-2.7-6.9-.5-13.8-.9-20.8-1.3-1 .6-2 1.2-3 1.7zm-26 2.9c6.2.1 12.3.3 18.5.5 2.9-1.7 5.9-3.4 8.9-5.1-6.3-.3-12.6-.5-18.9-.7-2.9 1.7-5.7 3.5-8.5 5.3zm-23.7-.1h6.7c5.2 0 10.3 0 15.4.1l8.4-5.4c-7.2-.2-14.4-.3-21.7-.3-2.9 1.8-5.9 3.7-8.8 5.6zm-108.7 21.5c2-.1 4.1-.3 6.1-.4.9-2.4 1.9-4.8 3-7.2-2.6.2-5.1.4-7.7.7-.5 2.3-1 4.6-1.4 6.9zm7.1-.5c3.2-.2 6.3-.4 9.5-.6 1.4-2.6 3-5.1 4.7-7.5-3.7.3-7.4.6-11 .9-1.3 2.4-2.3 4.8-3.2 7.2zm13.3-5.5c-1.1 1.6-2 3.2-2.9 4.8l10.5-.6c1.9-2.6 3.9-5.2 5.9-7.7-3.9.2-7.8.5-11.6.8-.7 1-1.3 1.9-1.9 2.7zm8.6 4.2c3.4-.2 6.7-.3 10.1-.5.6-.7 1.3-1.4 1.9-2.1 1.8-2 3.7-3.9 5.5-5.9-3.8.2-7.7.4-11.5.7-2 2.7-4 5.3-6 7.8zm18.8-8.4l-.4.4-7.2 7.5c4.4-.2 8.7-.4 13.1-.5 2.6-2.7 5.2-5.4 7.8-8-4.4.1-8.9.4-13.3.6zm26.4 2.1c1.4-1.1 2.8-2.3 4.2-3.4-5.3.1-10.6.3-15.9.6-2 2-4 4.1-6 6.1l-1.9 1.9c4.7-.2 9.4-.3 14.1-.4 1.7-1.6 3.6-3.2 5.5-4.8zm20-3.7l-14.5.3c-2.5 2-4.9 4-7.3 6-.8.7-1.7 1.4-2.5 2.1l14-.3c3.4-2.7 6.8-5.4 10.3-8.1zm30.2 7.9l.1-.1c3.9-2.6 7.9-5.2 11.8-7.8-6.2-.1-12.4-.1-18.6-.1-4 2.6-8 5.3-11.9 8.1h9.9c3-.1 5.9-.1 8.7-.1zm33.9-5.1c1.1-.7 2.2-1.5 3.2-2.2-7.9-.3-15.8-.5-23.7-.6-.6.4-1.1.7-1.7 1.1-3.4 2.2-6.8 4.5-10.2 6.8 7.5 0 15 .1 22.5.3 3.5-1.6 6.7-3.4 9.9-5.4zm17.3 3.9c3.1-1.7 6.2-3.4 9.2-5.1-7.3-.4-14.6-.7-21.9-.9-.7.5-1.5 1-2.2 1.5-3.3 2.2-6.8 4.2-10.4 6 7.3.1 14.6.3 21.9.6 1.1-.7 2.2-1.4 3.4-2.1zm27-.7c1.5-1 3-2 4.5-3.1-6.9-.5-13.9-.9-20.8-1.2-1.9 1.1-3.8 2.2-5.8 3.3-2.3 1.3-4.7 2.5-6.9 3.9 7.7.2 15.4.5 23.1.9 2-1.3 4-2.6 5.9-3.8zm.8.4c-1.7 1.1-3.5 2.2-5.3 3.3 7 .3 14 .7 21 1.1 2.8-2 5.5-4.2 8.2-6.4-6.3-.5-12.7-1-19.1-1.4-1.5 1.2-3.1 2.3-4.8 3.4zm37.3-.8c-4.1-.4-8.1-.7-12.2-1.1-2.6 2.2-5.3 4.4-8 6.4 4.5.3 9.1.5 13.6.8 2.2-1.9 4.5-4 6.6-6.1zm11.3 1c-3.4-.3-6.8-.7-10.2-1-2 2.2-4.2 4.2-6.5 6.1 3.7.2 7.3.5 10.9.8 2-1.8 3.9-3.8 5.8-5.9zm7.7.8l-6.8-.7c-1.8 2.1-3.7 4-5.7 5.9 2.9.2 5.9.4 8.8.6 1.4-1.8 2.6-3.8 3.7-5.8zm-2.7 5.9l7.2.6c.3-2 .3-4 .2-6l-3.8-.4c-1.1 2-2.3 3.9-3.6 5.8zm-151.2-6.3c3.5-2.4 7-4.8 10.6-7.1h-.4c-6.8 0-13.6.1-20.4.2-3.1 2.4-6.1 4.9-9.2 7.3-.3.3-.7.6-1 .8 6.4-.1 12.8-.2 19.1-.2.4-.4.8-.7 1.3-1zm-106.6 4.5c.3-2.2.8-4.4 1.4-6.5-1 .1-2 .2-3.1.3-.1 1.1-.2 2.1-.3 3.2-.1 1.2-.1 2.4-.1 3.5.7 0 1.3-.1 2-.1.1-.2.1-.3.1-.4zm3.9-13.8l-3.7.4c-.8 2-1.3 4-1.7 6.1l3.2-.3c.6-2.1 1.3-4.2 2.2-6.2zm-1.3 6.1c2.6-.2 5.3-.5 7.9-.7 1.1-2.2 2.3-4.4 3.6-6.6-3.1.3-6.2.7-9.3 1-.8 2.1-1.6 4.2-2.2 6.3zm8.9-.8c3.8-.3 7.5-.6 11.3-.9 1.6-2.3 3.3-4.5 5.1-6.8l.1-.1c-4.3.4-8.5.8-12.8 1.2-1.3 2.2-2.6 4.4-3.7 6.6zm25.9-2.7c-.2.3-.4.5-.6.8 3.9-.2 7.8-.5 11.8-.7 2.3-2.4 4.6-4.8 7-7.2-4.3.2-8.6.5-12.9.8-1.9 2.1-3.7 4.2-5.3 6.3zm12.3.1c4.5-.2 8.9-.5 13.4-.6 2.4-2.4 4.8-4.9 7.3-7.2-4.6.2-9.1.4-13.7.7-2.3 2.3-4.7 4.7-7 7.1zm14.7-.7l16.2-.6c3-2.4 6-4.9 8.9-7.3-5.9.2-11.9.4-17.8.6l-7.3 7.3zm17.6-.6l14.6-.3c3.2-2.5 6.5-4.9 9.8-7.2-5.1 0-10.3.1-15.4.2-3 2.4-6 4.9-9 7.3zm172.5 6.8c2.2.2 4.3.4 6.5.7.9-1.7 1.8-3.3 2.7-5l-5.2-.7c-1.2 1.7-2.6 3.3-4 5zm10.6 1.1c-.2-1.5-.5-3-.9-4.4-.7 1.4-1.4 2.7-2.2 4.1 1 .1 2 .2 3.1.3zm-17.4-7.5c-1.3 1.8-2.8 3.6-4.3 5.3 3.4.3 6.8.7 10.2 1 1.4-1.6 2.8-3.3 4-5-3.3-.5-6.6-.9-9.9-1.3zm-11.5-1.4c-1.9 1.8-3.9 3.6-5.9 5.4 4 .4 8 .7 12 1.1 1.6-1.7 3-3.4 4.4-5.3-3.4-.4-7-.8-10.5-1.2zm-25.9 3.9c6.3.5 12.6.9 18.9 1.5 2-1.8 4-3.6 5.9-5.4-6-.7-11.9-1.2-17.9-1.8-2.2 1.9-4.5 3.8-6.9 5.7zm5.9-5.9l-17.7-1.5c-3.2 2.1-6.4 4.1-9.7 6 6.8.4 13.6.8 20.4 1.3 1.3-1 2.6-2 3.8-3 1.1-.9 2.2-1.8 3.2-2.8zm-45-.7c-2 1.3-4 2.8-5.9 4.2 7.4.3 14.8.6 22.2 1l.2-.1c3.2-1.9 6.5-3.8 9.7-5.9-7.5-.6-15-1-22.4-1.4-1.4.6-2.6 1.4-3.8 2.2zm-30.7 3.4l23.4.6c1.6-1.2 3.2-2.3 4.9-3.5 1.5-1.1 3.1-2 4.7-3-7.4-.4-14.8-.7-22.2-.9-3.6 2.3-7.2 4.5-10.8 6.8zm-20-.2c6.2 0 12.4.1 18.5.2 2.7-1.7 5.4-3.5 8.1-5.1.9-.6 1.8-1.1 2.7-1.6-6.1-.2-12.3-.3-18.4-.4-3.7 2.2-7.3 4.6-10.9 6.9zm-12.8-7.1c-.2.1-.3.2-.5.3-3.2 2.2-6.3 4.5-9.4 6.9 6.3-.1 12.6-.1 18.8-.1h2.2c3.1-2 6.3-4.1 9.4-6.1l1.5-.9c-4.5-.1-9.1-.1-13.6-.1h-8.4zM1147 304c-1.5 1.9-2.9 3.8-4.3 5.7 3.9-.3 7.8-.6 11.7-.8 1.9-2.4 3.9-4.7 5.9-7-4.1.3-8.2.6-12.4 1-.3.4-.6.7-.9 1.1zm331 59l-100.6-20.7c.5-.8 1-1.6 1.4-2.3h-5.7c-.7.8-1.4 1.5-2.2 2.3h-1.2c.8-.7 1.5-1.5 2.2-2.3h-12c-.9.8-1.9 1.5-2.9 2.3h-1.4c1-.7 2-1.5 3-2.3h-14.8c-1.2.8-2.5 1.6-3.8 2.3h-1.8c1.4-.7 2.7-1.4 4-2.3H1323c-1.7.8-3.4 1.6-5.2 2.3h-2.5c1.9-.7 3.8-1.5 5.6-2.3h-24.4c-1.9.8-3.8 1.5-5.7 2.3h-2.3c.5-.2.9-.4 1.4-.5 1.5-.6 2.9-1.1 4.3-1.7H1270c-1.9.7-3.7 1.5-5.6 2.3h-2.1c1.8-.8 3.6-1.5 5.5-2.3h-21.4c-1.8.8-3.6 1.5-5.4 2.3h-2.1c1.8-.8 3.6-1.5 5.4-2.3H1223c-1.4.8-2.9 1.5-4.4 2.3h-1.8c1.5-.8 2.9-1.5 4.4-2.3h-16.9c-1.3.7-2.6 1.4-3.8 2.3h-1.4c1.1-.8 2.3-1.6 3.5-2.3h-14.4c-1.1.7-2.1 1.5-3.1 2.3h-1.3c1-.8 1.9-1.6 3-2.3h-12.2c-.8.7-1.5 1.5-2.2 2.3h-1.1c.7-.8 1.4-1.5 2.2-2.3h-10.8c-.9.7-1.8 1.4-2.6 2.3h-1.1c.7-.8 1.5-1.6 2.4-2.3h-9.6c-.5.7-1 1.5-1.4 2.3h-1c.4-.8.8-1.5 1.3-2.3h-8.5c-.5.7-1 1.5-1.5 2.3h-1c.5-.8 1-1.5 1.5-2.3h-7.2c-.4.7-.7 1.5-1 2.3h-.9c.3-.8.6-1.5 1-2.3h-5.9c-.2.8-.4 1.5-.6 2.3h-.8c.2-.8.3-1.5.6-2.3h-4.3c.5.8 1.1 1.5 1.8 2.3h-20.7V88.2c0-3.1-1.6-5.7-3.7-5.7H1050c-2 0-3.7 2.5-3.7 5.7V251h-.3v91.3h-18v-194l-29.9-13.4-.9 1-8.5-5.1-.6 1.7-6.2-3.7-3.2 2.6V152h-1.5v50.5h-21.8v-89.7l-20.6-11v6.8l-15.5-6.8-13.1 22.1v218.6H865v-.5c8.6-1.7 16.3-5.2 21.3-12.1.6-.9 1.2-1.8 1.7-2.8 2.9-5.1 2.9-12.4 2.6-19.4v-4.5h-48.9v5.6h-23.1v-43c0-.7-1.5-1.3-3.8-1.6V261c2.4-.6 3.8-1.3 3.8-2.2 0-.2-.1-.3-.1-.4h.1v-45.7h-1.1c.7-.5 1.1-1.3 1.2-2.1 0-1.6-1.9-3-4.9-4.1v-8c0-3.1-7.3-5.7-16.8-6v-10.8c0-.9-1.5-1.6-3.5-1.6h-.2V179c0-2.3-3.6-4.2-8-4.2s-8 1.9-8 4.2v.4h-4.6c-1.2-1.8-4.2-3-7.8-3-4.6 0-8.3 2.1-8.3 4.6v5.4h-.8v-2c0-1.1-1.6-2-3.6-2s-3.6.9-3.6 2v12.1c-9.2.2-16.5 2.8-16.5 5.9V255c0 1.3 3 2.5 7.4 3.1v1.6c-4.3.4-7.4 1.3-7.4 2.4v80.4h-12l-5-175.4.2-.9.4-.6 4.5-3.2c4.2-.4 7-1.3 7-2.8 0-1.2-1.8-2.2-4.7-3.1V153c2.8-.8 4.6-1.9 4.6-3 0-1.2-1.8-2.3-4.7-3.1v-3.6c3-.8 4.9-1.9 4.9-3.1 0-2-5.2-3.7-12.4-4.3v-1l.2-.6.4-.5 5-4.2c4.1-.5 6.7-1.5 6.7-3 0-.2 0-.3-.1-.5v-12.6c0-1.4-2.2-2.8-5.8-3.6.3-.2.5-.4.5-.8 0-1.1-3-2-7.3-2.4v-6.4c4.3-.6 7.3-1.9 7.3-3.4 0-.2 0-.3-.1-.5v-3.2h-.3v2.7c-.1-.2-.3-.3-.5-.4v-3.7h-.4v3.5c-.2-.1-.5-.3-.8-.4V91h-.6v3.6c-.8-.3-1.6-.5-2.5-.7v-3.6h-.8v3.5l-2.1-.3v-14c.9-.3 1.4-.7 1.4-1.2-.1-.3-.3-.6-.6-.8.3-.1.4-.4.5-.7 0-.5-.8-1-2-1.3v-4.4c.5.2.9-.1 1.1-.5.2-.5-.1-.9-.5-1.1-.2-.1-.4-.1-.6 0V49.8h1.1v-1.5H713v-2c.4 0 .8-.3.9-.6-.1-.3-.3-.5-.6-.5.2-.1.3-.3.3-.5 0-.6-1.1-1.1-2.7-1.3v-4.5h.2v3.5h.3v-6.9h-.3v3.2h-.2V28.1c.9-.1 1.6-.5 1.6-.8s-.6-.7-1.6-.8v-.1c.9-.1 1.6-.5 1.6-.8-.2-.5-.7-.8-1.2-.8.4-.1.7-.3.8-.7-.2-.5-.6-.8-1.2-.8v-.7h-.3V0H709v22.6h-.3v.7c-.5 0-1 .3-1.2.8.1.4.4.7.8.7-.5 0-1 .3-1.2.8 0 .4.6.7 1.6.8v.1c-.9.1-1.6.5-1.6.8s.6.7 1.6.8v10.4h-.2v-3.2h-.3v6.9h.3v-3.5h.2v4.5c-1.5.2-2.7.7-2.7 1.3 0 .2.1.4.3.5-.3.1-.5.2-.6.5.2.4.5.6.9.6v2h-1.1v1.5h1.1v19.8c-.5-.2-.9.1-1.1.5s.1.9.5 1.1c.2.1.4.1.6 0v4.4c-1.2.3-2.1.8-2.1 1.3 0 .3.2.5.5.7-.3.1-.5.4-.6.8 0 .4.5.9 1.4 1.2v13.9l-2.1.3v-3.5h-.8v3.6c-.9.2-1.7.4-2.5.7V91h-.6v3.8c-.3.1-.5.3-.8.4v-3.5h-.4v3.7c-.2.1-.3.3-.5.4v-2.7h-.3v3.2c-.1.2-.1.3-.1.5 0 1.5 3 2.9 7.3 3.4v6.4c-4.3.4-7.3 1.3-7.3 2.4 0 .3.2.6.5.8-3.6.9-5.8 2.2-5.8 3.6V126c-.1.2-.1.3-.1.5 0 1.6 2.6 2.5 6.7 3l5 4.2.4.5.2.6v1c-7.2.5-12.4 2.2-12.4 4.3 0 1.2 1.9 2.3 4.9 3.1v3.6c-2.9.8-4.7 1.9-4.7 3.1 0 1.2 1.7 2.2 4.6 3v3.4c-2.9.8-4.7 1.9-4.7 3.1 0 1.5 2.8 2.3 7 2.8l4.5 3.2.4.6.2.9-5 175.4h-11.2v-1.5h-.5v-.3c.1 0 .2-.1.2-.2s-.1-.2-.2-.2h-.2v-30.6h.6v-.5h.1v-.4h.3v-.2h-1.1V291h.2v-.8h.2v-1.7l.1.1.5-.8-.6-.1v-.1h-.2V285l2.1-2 1.2-2.4h-2.8l.7-1.4h-1.2v-1.5h.4v-14.9l1.5-1.9H688v-2.8h-31.2V257h-1.6v-1.8h-.7v-3.5h.2v-.6h-2.9l-.1-.3-.6-.3v-1.4l.5-.6.7-1.1.4-.7-.3-.6-.2-1.3-.4-1-.8-.6-1.5-.4h-.9l-.6.5h.5l-.9.6-.5.7-.4 1.1v.1l-1.4.3.1-.7v-1.6l-.4-1v-.5l-.4-.1-.5-.7-.7-.4-1.2.4.2-2.8.3-.4V237h-.2l.3-4.3c.1 0 .2-.2.2-.3 0-.1-.1-.1-.1-.2v-.4h-.2v.4c-.1 0-.2.1-.2.2v.1c0 .1.1.2.1.2h.1l-.3 4.3h-.1l-.3-.2-.3.5v.7l-1 .9-.3.1v-2.5l-.4-.5-.7-.5-.3-.6.3-.8v-1l-.5-.7-.9-.3-.8.4-.2.8v.9l.5.8-.5.7-1.1.3-.6.7-.4 1.5v1.4l.9.7-.5.9-.3.6-.7-.2-1.2-.4-.7.4-.5.7-.4.1v.5l-.4 1v1.6l.1.7-1.4-.3v-.1l-.4-1.1-.5-.7-.9-.6h.5l-.6-.5h-.9l-1.5.4-.8.6-.4 1-.2 1.3-.3.6.4.7.7 1.1.5.6v1.4l-.6.3-.1.3h-2.9v.6h.2v3.5h-.6v1.8h-1.6v.9h-31.2v2.8H587l1.5 1.9v14.9h-.3v1.5H587l.7 1.4h-2.8l1.2 2.4 2.1 2v2.6h-.2v.1l-.6.1.5.8.1-.1v1.7h.2v.8h.2v17.3h-1.1v.2h.3v.4h.1v.5h.6V340h-.2c-.1 0-.2.1-.2.2s.1.2.2.2v.3h-.5v1.5h-16.2v-88.8h-1.3l-1.6-10.6h.5v-.9h-.6l-.6-3.6h.4v-.7h-.5l-.5-3.6h.6v-.8h-.7l-.6-4h.4v-.7h-.5l-.2-1.1h.9v-.9h-1l-.3-1.9h.2v-.5h-.3l-.2-1.3-.2 1.3h-.3v.5h.3l-.3 1.9h-1.1v.9h1l-.2 1.1h-.4v.7h.3l-.5 4h-.6v.8h.5l-.5 3.6h-.5v.7h.4l-.5 3.6h.1v.9h.2l-1.4 10.6h-3.3v-29.2h.4v-1.9h-.4v-4.6h1.8v-.4h2.8v-1.4h-4.7v-5.5h.8l-.8-.2-.4-13.2h.6v-.7h-.3l-.2-2.1h.3v-.2h-.4l-.1-1.1h.2v-.6h-.3l-.1-1.1h.4v-.5h-.5l-.1-.9h.2v-.5h-.3l-.2-2h.9v-.5h-.9l-.2-1.6-.2 1.6h-.9v.5h.8l-.3 2h-.3v.5h.3l-.1.9h-.4v.5h.3l-.1 1.1h-.2v.6h.1l-.1 1.1h-.4v.4h.3l-.3 2.1v.7h.4v1.9l-3.5-4.1v-3.5h-.6V188h-.8v-2.2h.7v-.3h-.7V184h-.5v-3.2l3.6-1.1v-.9l-3.6-.6v-5h.8v-.6l-.8-.5v-7.4l-.5-3.8.3-.3h-.3l-.2-1.2-.1 1.2h-.7l.6.3-.4 3.6v2.1l-.1.2-2.3-1.1-.1-1h.6l-.7-.4v-.7l.4-.4h-.7v-1.1l.3-.3-.4-.1-.1-2.1.5-.4h-.6v-1.4l-.2 1.4h-.7l.7.2-1.2 3.7-.8-4.4 1-.7-1.2-.5-.3-3.8.8-.6-1.1-.6-.5-4.1.8-.7-1.2-.4-.4-4 1-.5-1.2-.5-.5-4.2.8-.5-1.2-.5-.4-4.1.6-.5-1-.6-.5-3.9 1-.6-1.3-.6v-4l.5-.6-1.2-.8V118l.3-.7-.9-.9-.6-5.8 1.2-.9-1.5-1.2.1-1 1.2-.3-.5-1-.5-3 1.7 2.8.4-4.6 1-1-2.1.2h-.3c.7-.5.9-1.5.4-2.2-.5-.7-1.5-.9-2.2-.4s-.9 1.5-.4 2.2c.1.2.2.3.4.4h-1.2l-2.1-.2 1 1 .4 4.6 1.7-2.8-.5 3-.5 1 1.2.3.1 1-1.5 1.2 1.2.9-.6 5.8-.9.9.3.7v3.7l-1.2.8.5.6v4l-1.3.6 1 .6-.5 3.9-1 .6.6.5-.4 4.1-1.2.5.8.5-.5 4.2-1.2.5 1 .5-.4 4-.8.4.8.7-.5 4.1-1.1.6.8.6-.3 3.8-1.2.5 1 .7-.8 4.4-1.2-3.7.7-.2h-.7l-.2-1.4v1.4h-.6l.5.4-.1 2.1-.4.1.3.3v1.1h-.7l.4.4v.7l-.7.4h.6l-.1 1-2.3 1.1-.1-.2v-2.1l-.4-3.6.6-.3h-.7l-.1-1.2-.2 1.2h-.3l.3.3-.5 3.8v7.4l-.8.5v.6h.8v5l-3.6.6v.9l3.6 1.1v3.2h-.5v1.5h-.7v.3h.7v2.2h-.7v3.5h-.6v3.5l-3.5 4.1v-1.9h.4v-.7l-.3-2.1h.3v-.7h-.4l-.1-1.1h.1v-.6h-.2l-.1-1.1h.3v-.5h-.4l-.1-.9h.2v-.5h-.3l-.3-2h.8v-.5h-.9l-.2-1.6-.2 1.6h-.9v.5h.9l-.2 2h-.3v.5h.2l-.1.9h-.5v.5h.4l-.1 1.1h-.3v.6h.2l-.1 1.1h-.3v.4h.3l-.2 2.1h-.1v.7h.6l-.4 13.2-.8.2h.8v5.5h-4.7v1.4h2.8v.4h1.8v4.6h-.4v1.9h.4v29.2h-3.3l-1.4-10.6h.2v-1h-.3l-.5-3.6h.4v-.7h-.5l-.5-3.6h.5v-.8h-.7l-.5-4h.3v-.7h-.4l-.2-1.1h1v-.9h-1.1l-.3-1.9h.3v-.5h-.3l-.2-1.3-.2 1.3h-.3v.5h.2l-.3 1.9h-1v.9h.9l-.2 1.1h-.5v.7h.4l-.6 4h-.7v.8h.6l-.5 3.6h-.5v.7h.4l-.6 3.6h-.6v.9h.5l-1.6 10.6h-1.3v50.9l-33.1-43.5h-.1l-.2-8.1c.6-.2 1-.9.8-1.5-.1-.4-.4-.7-.8-.8l-.2-7.9-.2 7.9c-.6.2-1 .9-.8 1.5.1.4.4.6.7.8l-.2 8.1L349 259l-1.6-1.9-1.4-1.1v-4.4h.6l-1-1.8v-15.3h.4l-1-1.8v-20.4h.5l-2.4-3.1v-1.6l.8-.5-.9-1.1h.1v-9.8h.8v-1h-.5c.7-1.8 1.1-3.7 1.1-5.6 0-7.5-6.1-13.5-14.3-14-.3-1.2-.5-2.5-.7-3.7.7-.1 1.1-.8 1-1.4-.1-.5-.5-.9-1.1-1 0-.1-.1-.3-.2-.3s-.2.2-.2.3c-.7.1-1.2.6-1.1 1.3 0 .6.5 1.1 1.1 1.1-.1 1.2-.3 2.5-.6 3.7-8.3.3-13.9 6.5-13.9 14.1 0 2 .5 3.9 1.3 5.6h-.5v1h.6v9.7l-1 1.2.3.5v2.5h.1l-1.6 2.5h.6V233l-1.2 1.6h.5v15.3l-.9 1.2-.6-.8-1.4-1.1v-4.4h.6l-1-1.8v-15.3h.4l-1-1.8v-20.4h.5l-2.4-3.1v-1.6l.8-.5-1-1.1h.1v-9.8h.8v-1h-.5c.7-1.8 1.1-3.7 1.1-5.6 0-7.5-6.1-13.5-14.3-14-.3-1.2-.5-2.5-.7-3.7.7-.1 1.1-.8 1-1.4-.1-.5-.5-1-1.1-1 0-.1-.1-.3-.2-.3s-.2.2-.2.3c-.7.1-1.2.6-1.1 1.3 0 .6.5 1 1.1 1.1-.1 1.2-.3 2.5-.6 3.7-8.3.3-13.9 6.5-13.9 14.1 0 2 .5 3.9 1.3 5.6h-.5v1h.6v9.7l-1 1.2.3.5v2.6h.1l-1.6 2.5h.6v20l-1.2 1.6h.5V243l-1 1.5h.6v5.5l-3.3 3.1v3.5h-.5v.8h.7v16.8l-.7.6-.5.4.5.1v33.3l-1 1.3 1 2.1v13.4h-1v17h-7.3V270h.8v-.8h-.8V267l2.1-1.7v-1.7l.7-.5v-.7h-2.6l-.2 1.6v-4.3l.4-.5v-1.1h-7.2l-1.6 1.5v.7h-28.7v-.9l.6-.7v-.6H222l-1.6 2.9v.5l.5.4v.3l-.3.2-4.5 9.3h-.5l-1.2 2.7v.7l-1.6 3.2.6.6.1 1.2 1.3.3.1 1.6-.4.7.5.6.1 2.9 1.8.3h-4.1v-.5c0-.2-.1-.4-.3-.4s-.4.1-.4.3v.5h-6v-.4c0-.3-.2-.6-.6-.6s-.6.2-.6.6v.3h-5.8v-.5c0-.2-.2-.4-.4-.4s-.4.2-.4.4v.5h-4.6l-1.5-.3v-.2c0-.2-.2-.4-.4-.4s-.4.2-.4.4l-2.7-.6c0-.5-.3-.9-.8-.9h-.3c0-.5-.3-.9-.8-.9-.1-.3-.4-.5-.7-.6 0-.5-.2-1-.5-1.4-.2-.2-.4-.4-.7-.4h-.2c-.3 0-.6.2-.7.4-.3.4-.5.9-.5 1.4-.3 0-.6.3-.7.6-.5 0-.8.4-.8.9h-.2c-.5 0-.9.4-.9.8v.1l-2.7.6c0-.2-.2-.4-.4-.4s-.4.2-.4.4v.2l-1.5.3h-4.6v-.5c0-.2-.2-.4-.4-.4s-.4.2-.4.4v.5H165v-.3c0-.3-.2-.5-.5-.6-.3 0-.5.2-.5.6v.3h-6v-.5c0-.2-.2-.4-.4-.4s-.4.2-.4.4v.5H153l1.8-.3.1-2.9.5-.6-.4-.7.1-1.6 1.3-.3.1-1.2.6-.6-1.6-3.2v-.7l-1.2-2.7h-.5l-4.5-9.3-.3-.2v-.3l.5-.4v-.5l-1.6-2.9h-7.3v.6l.6.7v.9h-28.7v-.7l-1.6-1.5h-7.2v1.1l.4.5v4.3l-.2-1.6h-2.6v.7l.7.5v1.7l2.1 1.7v2.1h-.8v.8h.8V342h2.7L0 363h1478zM955.6 204.7h21.8v5.7h-21.8v-5.7zm0 7.7h21.8V275h-21.8v-62.6zm0 64.5h21.8v5.1h-21.8v-5.1zm0 7.2h21.8v5.3h-21.8v-5.3zm0 7.6h21.8v50.6h-21.8v-50.6zM711.1 23.5c.4 0 .8.2.9.6-.2.4-.5.6-.9.6v-1.2zm0 1.4c.5 0 1 .2 1.3.6-.3.4-.8.6-1.3.6v-1.2zm0 2.9v-1.1c.3-.3.8-.3 1.1.1s.3.8-.1 1.1c-.3.3-.8.3-1.1 0v-.1zm2.4 48.1c1 .3 1.4.7 1.4.9-.1.3-.2.5-.5.6-.4-.2-.9-.4-1.3-.5v-1.1c.1.1.3.1.4.1zm-2.7-31.6h.3v-.9c1.5.2 2.4.7 2.4 1.1 0 .2-.2.4-.3.4-.8-.2-1.6-.4-2.4-.4v-.2zm-2.9-20.2c.2-.4.5-.6.9-.6v1.2c-.3-.1-.7-.3-.9-.6zm-.4 1.5c.3-.4.8-.6 1.3-.6v1.2c-.5 0-1-.2-1.3-.6zm0 1.7c.3-.4.8-.6 1.3-.6v1.2c-.5 0-1-.2-1.3-.6zm-.8 17.7c-.2-.1-.3-.2-.3-.4 0-.4.9-.9 2.4-1.1v.9h.3v.2c-.8 0-1.6.1-2.4.4zm-1.2 32.4c-.2-.1-.4-.3-.5-.6 0-.2.4-.6 1.4-.9.1 0 .3-.1.4-.1v1.1c-.4.2-.8.3-1.3.5zm-43.4 245.7l.6-.4v-.8h-.5v-.7c.1-4 3.5-7.1 7.5-7 3.8.1 6.9 3.2 7 7v.7h-.2v.8h.4v17.4h-.1c-.1 0-.2.1-.2.2s.1.2.2.2v.3h-.4v1.5H663v-1.5h-.4v-.3c.1 0 .2-.1.2-.2s-.1-.2-.2-.2h-.4v-17zM649.4 250l.5.8v.3h-.5V250zm-4.3-.9v-1l.3-1.2.1-.7 1.3-.2-.1.5-.7.8v.7l.4 3.2h-1v-.2l-.7-.5.4-1.4zm-3.6-9.2l.9-1-.2 2.6-.5.1v-.1c-.3.3-.6.6-.9.8l.1-.1-.3.3.1-.5-.2-1.6 1-.5zm-10.4 6.3l.1.7.3 1.2v1l.3 1.3-.7.5v.2h-1l.4-3.2v-.7l-.7-.8-.1-.5 1.4.3zm-4.4 4.6l.5-.8v1.1h-.5v-.3zm-1.2 57.7h.2v-.5c0-6.6 5.4-12 12-12h.6v-1.7 1.7h.6c6.6 0 12 5.4 12 12v.5h.2v.1h-1l-.9 2.8.3.4v.6h.3v.2h.3v1.1h-.3v.5h.3v26h-.3c-.1 0-.2.1-.2.2s.1.2.2.2v.3h-.4v1.5h-22.3v-1.5h-.4v-.3c.1 0 .2-.1.2-.2s-.1-.2-.2-.2h-.3v-26h.3v-.5h-.3v-1.1h.3v-.2h.3v-.6l.3-.4-.9-2.8h-1l.1-.1zm-25.7 14.2h.4v-.8h-.2v-.7c.2-4 3.5-7.1 7.5-7 3.8.1 6.8 3.2 7 7v.7h-.5v.8l.6.4v17h-.4c-.1 0-.2.1-.2.2s.1.2.2.2v.3h-.4v1.5h-13.4v-1.5h-.4v-.3c.1 0 .2-.1.2-.2s-.1-.2-.2-.2h-.1l-.1-17.4zm-46.3-121.4h.6v-.4h-.6v-1.1l.6.6.7 1.1.5 1.8.1.4-.7-.8-1.2-.7v-.9zm-1.4-2.3l.7.1.1.1v1.8h-.6v.4h.6v.7h-.1l-.7.4V199zm0 4.5l.6-.7h.5l1.5.7 1 1.6.1.5-.1 4.4-3.6-.8v-5.7zm-4.8-36.5l.9.6.9.9v3.1l-1.4-.4-.9-.4V167h.5zm-22.9 1.5l.9-.9.9-.6h.5v3.8l-.9.4-1.4.4v-3.1zm-3.8 32.8h.6v-.4h-.6v-1.8l.1-.1.7-.1v3.5l-.7-.4h-.1v-.7zm-2.4 1.9l.5-1.8.7-1.1.6-.6v1.1h-.6v.4h.6v.9l-1.2.7-.7.8.1-.4zm-.3 1.8l1-1.6 1.5-.7h.5l.6.7v5.6l-3.6.8-.1-4.4.1-.4zm-204.6 46.2v.3l-.2-.3h.2zM222 308.4v30.3h-1l-.5-29.2 1.5-1.1zm-10.5-.6l.3-1h2.5l.4 1.8 1.1 1.6-1.1 28.6h-4.8l-.5-29.2 2.1-1.8zm-12.4 0l.3-1h3.6l.4 1.8 1.1 1.6-1.1 28.6h-5.9l-.5-29.2 2.1-1.8zm-20.2.8l.4-1.8h11.3l.4 1.8 1.1 1.6-1.1 28.6h-12.1l-1.1-28.6 1.1-1.6zm-12.3 0l.4-1.8h3.6l.3 1 2.2 1.7-.5 29.2h-5.9l-1.1-28.6 1-1.5zm-11.2 0l.4-1.8h2.5l.3 1 2.2 1.7-.5 29.2h-4.8l-1.1-28.6 1-1.5zm-7.4-.2l1.5 1.2-.5 29.2h-1v-30.4z"/></svg>