<?xml version="1.0" encoding="UTF-8" standalone="no"?>
<svg width="172px" height="154px" viewBox="0 0 172 154" version="1.1" xmlns="http://www.w3.org/2000/svg" xmlns:xlink="http://www.w3.org/1999/xlink" xmlns:sketch="http://www.bohemiancoding.com/sketch/ns">
    <!-- Generator: Sketch 3.1 (8751) - http://www.bohemiancoding.com/sketch -->
    <title>Path 4 + Oval 10</title>
    <desc>Created with Sketch.</desc>
    <defs>
        <linearGradient x1="0%" y1="42.5088516%" x2="50%" y2="100%" id="linearGradient-1">
            <stop stop-color="#981111" stop-opacity="0.099779212" offset="0%"></stop>
            <stop stop-color="#9F1010" stop-opacity="0" offset="100%"></stop>
        </linearGradient>
    </defs>
    <g id="Page-1" stroke="none" stroke-width="1" fill="none" fill-rule="evenodd" sketch:type="MSPage">
        <g id="desktop-v2" sketch:type="MSArtboardGroup" transform="translate(-459.000000, -1419.000000)">
            <g id="Get-involved" sketch:type="MSLayerGroup" transform="translate(404.000000, 1348.000000)">
                <g id="Path-4-+-Oval-10" transform="translate(56.000000, 71.000000)" sketch:type="MSShapeGroup">
                    <path d="M8.04605263,61.9728875 L104.469632,158.396467 L186.755209,158.396467 L189.860472,93.8862266 L114.869932,18.8956867 L8.04605263,61.9728875 Z" id="Path-4" fill="url(#linearGradient-1)"></path>
                    <path d="M52.4807478,94.7033818 C54.5772644,91.0024759 55.7894737,86.625074 55.7894737,81.9342105 C55.7894737,81.8592751 55.7891643,81.7844197 55.788547,81.7096458 C24.376688,79.5594712 -0.105263158,62.2331381 -0.105263158,41.1776316 C-0.105263158,18.6683946 27.8739945,0.421052632 62.3881579,0.421052632 C96.9023213,0.421052632 124.881579,18.6683946 124.881579,41.1776316 C124.881579,61.0474788 103.079209,77.5963155 74.2252232,81.2040853 L74.2252232,81.2040853 C70.9457242,89.961635 63.3802177,96.3491952 54.3393697,97.329433 L54.3393697,97.329433 C54.3146811,97.2983872 54.289921,97.2672639 54.2650929,97.2360681 C54.0304549,97.3785095 53.7550686,97.4605263 53.4605263,97.4605263 C52.6030316,97.4605263 51.9078947,96.7653895 51.9078947,95.9078947 C51.9078947,95.4219112 52.131175,94.9880777 52.4807478,94.7033818 Z" id="Oval-10" fill="#FFFFFF"></path>
                </g>
            </g>
        </g>
    </g>
</svg>
