<?xml version="1.0" encoding="UTF-8" standalone="no"?>
<svg width="304px" height="304px" viewBox="0 0 304 304" version="1.1" xmlns="http://www.w3.org/2000/svg" xmlns:xlink="http://www.w3.org/1999/xlink" xmlns:sketch="http://www.bohemiancoding.com/sketch/ns">
    <!-- Generator: Sketch 3.0.4 (8053) - http://www.bohemiancoding.com/sketch -->
    <title>Rectangle 53 + Screen Shot 2014-08-22 at 3.28</title>
    <desc>Created with Sketch.</desc>
    <defs>
        <rect id="path-1" x="0" y="0" width="304" height="304"></rect>
        <linearGradient x1="0%" y1="42.5088516%" x2="50%" y2="100%" id="linearGradient-3">
            <stop stop-color="#000000" stop-opacity="0.099779212" offset="0%"></stop>
            <stop stop-color="#000000" stop-opacity="0" offset="100%"></stop>
        </linearGradient>
    </defs>
    <g id="Page-1" stroke="none" stroke-width="1" fill="none" fill-rule="evenodd" sketch:type="MSPage">
        <g id="Desktop-Superwide" sketch:type="MSArtboardGroup" transform="translate(-508.000000, -2024.000000)">
            <g id="Rectangle-53-+-Screen-Shot-2014-08-22-at-3.28" sketch:type="MSLayerGroup" transform="translate(508.000000, 2024.000000)">
                <mask id="mask-2" sketch:name="Rectangle 53" fill="white">
                    <use xlink:href="#path-1"></use>
                </mask>
                <use id="Rectangle-53" fill="none" sketch:type="MSShapeGroup" xlink:href="#path-1"></use>
                <path d="M59.3496094,209.460938 L154.308775,304.420103 L304.314697,304.630859 L304.314695,144.14172 L245.302286,85.129312 L188.800781,66.9277345 L185.481934,76.0864258 L169.505859,60.5878906 L96.6777344,108.609375 L193.05674,204.98838 L175.4671,223.57802 L104.134675,152.245595 L59.3496094,209.460938 Z" id="Path-5" fill="url(#linearGradient-3)" sketch:type="MSShapeGroup" mask="url(#mask-2)"></path>
                <g id="Group" mask="url(#mask-2)" fill="#FFFFFF" sketch:type="MSShapeGroup">
                    <g transform="translate(152.042376, 147.088827) rotate(18.000000) translate(-152.042376, -147.088827) translate(82.542376, 58.588827)">
                        <path d="M60.173407,22.8055776 C60.1934766,22.6921232 60.2039448,22.5754256 60.2039448,22.4563639 L60.2039448,2.00148873 C60.2039448,0.896097026 59.3061732,1.55431223e-13 58.2008518,1.55431223e-13 L2.00309298,1.55431223e-13 C0.896815276,1.55431223e-13 2.84217094e-14,0.899474165 2.84217094e-14,2.00148873 L2.84217094e-14,22.4563639 C2.84217094e-14,23.5617556 0.897771649,24.4578526 2.00309298,24.4578526 L3.76274655,24.4578526 L3.76274655,67.6042919 C3.76274655,68.7124619 4.66170315,69.6108112 5.76625848,69.6108112 L24.3357139,69.6108112 C25.442223,69.6108112 26.3392259,68.7093442 26.3392259,67.6042919 L26.3392259,47.0343319 L26.8674996,47.0343319 C29.5093613,33.1073119 41.7454759,22.5764793 56.4411983,22.5764793 C57.7049698,22.5764793 58.9505518,22.6543579 60.173407,22.8055776 Z" id="Rectangle-60"></path>
                        <path d="M112.851859,22.8055776 C112.871928,22.6921232 112.882397,22.5754256 112.882397,22.4563639 L112.882397,2.00148873 C112.882397,0.896097026 111.984625,3.46389584e-14 110.879304,3.46389584e-14 L54.6815447,3.46389584e-14 C53.575267,3.46389584e-14 52.6784517,0.899474165 52.6784517,2.00148873 L52.6784517,22.4563639 C52.6784517,23.5617556 53.5762234,24.4578526 54.6815447,24.4578526 L56.4411983,24.4578526 L56.4411983,67.6042919 C56.4411983,68.7124619 57.3401549,69.6108112 58.4447102,69.6108112 L77.0141656,69.6108112 C78.1206747,69.6108112 79.0176776,68.7093442 79.0176776,67.6042919 L79.0176776,47.0343319 L79.5459513,47.0343319 C82.187813,33.1073119 94.4239276,22.5764793 109.11965,22.5764793 C110.383422,22.5764793 111.629004,22.6543579 112.851859,22.8055776 Z" id="Rectangle-61" transform="translate(95.950037, 41.390212) scale(-1, 1) translate(-95.950037, -41.390212) "></path>
                        <path d="M60.173407,116.874241 C60.1934766,116.760787 60.2039448,116.644089 60.2039448,116.525028 L60.2039448,96.0701525 C60.2039448,94.9647608 59.3061732,94.0686638 58.2008518,94.0686638 L2.00309298,94.0686638 C0.896815276,94.0686638 1.42108547e-14,94.9681379 1.42108547e-14,96.0701525 L1.42108547e-14,116.525028 C1.42108547e-14,117.630419 0.897771649,118.526516 2.00309298,118.526516 L3.76274655,118.526516 L3.76274655,161.672956 C3.76274655,162.781126 4.66170315,163.679475 5.76625848,163.679475 L24.3357139,163.679475 C25.442223,163.679475 26.3392259,162.778008 26.3392259,161.672956 L26.3392259,141.102996 L26.8674996,141.102996 C29.5093613,127.175976 41.7454759,116.645143 56.4411983,116.645143 C57.7049698,116.645143 58.9505518,116.723022 60.173407,116.874241 Z" id="Rectangle-63" transform="translate(43.271585, 135.458876) scale(1, -1) translate(-43.271585, -135.458876) "></path>
                        <path d="M112.851859,116.874241 C112.871928,116.760787 112.882397,116.644089 112.882397,116.525028 L112.882397,96.0701525 C112.882397,94.9647608 111.984625,94.0686638 110.879304,94.0686638 L54.6815447,94.0686638 C53.575267,94.0686638 52.6784517,94.9681379 52.6784517,96.0701525 L52.6784517,116.525028 C52.6784517,117.630419 53.5762234,118.526516 54.6815447,118.526516 L56.4411983,118.526516 L56.4411983,161.672956 C56.4411983,162.781126 57.3401549,163.679475 58.4447102,163.679475 L77.0141656,163.679475 C78.1206747,163.679475 79.0176776,162.778008 79.0176776,161.672956 L79.0176776,141.102996 L79.5459513,141.102996 C82.187813,127.175976 94.4239276,116.645143 109.11965,116.645143 C110.383422,116.645143 111.629004,116.723022 112.851859,116.874241 Z" id="Rectangle-62" transform="translate(95.950037, 135.458876) scale(-1, -1) translate(-95.950037, -135.458876) "></path>
                    </g>
                </g>
            </g>
        </g>
    </g>
</svg>
